{"glyphs":{"0":{"ha":997,"x_min":32,"x_max":961,"o":"m 481 14 l 449 -36 l 425 18 l 389 -8 l 364 28 l 313 3 l 285 54 l 235 32 l 226 88 l 151 94 l 144 169 l 79 194 l 103 261 l 63 296 l 89 343 l 44 381 l 86 422 l 32 464 l 85 506 l 43 557 l 88 607 l 54 650 l 96 685 l 71 747 l 131 778 l 122 821 l 165 828 l 160 888 l 218 878 l 250 931 l 311 926 l 349 986 l 408 951 l 440 997 l 481 958 l 538 983 l 592 951 l 642 978 l 672 931 l 726 963 l 739 901 l 793 915 l 797 860 l 853 869 l 840 815 l 903 800 l 883 738 l 935 718 l 901 674 l 940 640 l 907 601 l 951 565 l 910 528 l 961 492 l 910 456 l 938 421 l 908 388 l 936 338 l 899 293 l 925 225 l 861 189 l 844 126 l 786 100 l 786 50 l 739 69 l 736 11 l 689 46 l 642 6 l 581 19 l 542 -29 l 481 14 m 732 871 l 696 900 l 657 872 l 671 829 l 713 835 l 732 871 m 324 847 l 313 856 l 296 849 l 307 835 l 318 835 l 324 847 m 304 735 l 257 750 l 231 710 l 260 683 l 296 690 l 304 735 m 519 232 l 529 272 l 568 258 l 560 294 l 594 308 l 579 339 l 601 364 l 578 393 l 603 421 l 576 449 l 603 476 l 583 506 l 603 533 l 576 561 l 601 590 l 586 617 l 599 646 l 567 665 l 582 699 l 546 701 l 540 736 l 510 719 l 486 744 l 474 700 l 435 725 l 438 690 l 404 679 l 422 647 l 394 624 l 411 594 l 392 567 l 418 539 l 392 511 l 406 482 l 392 454 l 413 426 l 393 399 l 417 371 l 394 342 l 428 321 l 408 288 l 440 278 l 443 244 l 479 269 l 519 232 m 801 644 l 729 644 l 744 574 l 803 533 l 863 596 l 801 644 m 207 619 l 181 610 l 175 576 l 210 568 l 233 596 l 207 619 m 282 561 l 257 551 l 251 514 l 292 511 l 310 544 l 282 561 m 339 399 l 307 419 l 289 381 l 318 353 l 353 368 l 339 399 m 831 394 l 810 400 l 800 383 l 811 371 l 824 376 l 831 394 m 719 301 l 668 279 l 692 238 l 732 214 l 736 261 l 719 301 m 300 254 l 254 296 l 168 275 l 197 179 l 290 176 l 300 254 m 496 203 l 469 207 l 457 192 l 461 165 l 490 174 l 496 203 m 751 117 l 735 118 l 724 101 l 742 93 l 760 99 l 751 117 m 568 114 l 529 114 l 525 78 l 554 43 l 576 81 l 568 114 z "},"1":{"ha":774,"x_min":42,"x_max":722,"o":"m 376 71 l 331 110 l 376 147 l 349 192 l 376 236 l 326 281 l 376 325 l 346 374 l 376 424 l 328 468 l 376 513 l 346 540 l 376 567 l 347 608 l 315 608 l 288 556 l 229 542 l 228 482 l 171 500 l 103 511 l 106 581 l 47 610 l 42 675 l 65 735 l 129 743 l 153 797 l 211 808 l 218 871 l 282 863 l 301 924 l 364 926 l 404 967 l 456 944 l 483 983 l 511 944 l 546 988 l 582 944 l 632 975 l 668 929 l 717 876 l 668 824 l 717 776 l 668 729 l 706 692 l 668 653 l 722 619 l 668 586 l 706 539 l 668 492 l 715 444 l 668 397 l 715 356 l 668 314 l 717 257 l 668 199 l 703 157 l 668 115 l 676 63 l 636 28 l 581 -22 l 525 28 l 486 -21 l 447 28 l 417 -22 l 376 71 m 657 919 l 640 919 l 632 903 l 649 897 l 660 904 l 657 919 m 350 892 l 333 889 l 336 872 l 350 865 l 361 879 l 350 892 m 557 761 l 508 815 l 458 769 l 464 711 l 529 697 l 557 761 m 133 692 l 106 713 l 79 689 l 94 664 l 121 665 l 133 692 m 256 694 l 210 700 l 183 654 l 229 636 l 272 649 l 256 694 m 246 594 l 229 586 l 236 572 l 247 571 l 258 582 l 246 594 m 572 556 l 549 560 l 544 538 l 560 518 l 582 535 l 572 556 m 499 546 l 486 560 l 471 547 l 479 532 l 496 529 l 499 546 m 547 476 l 539 488 l 528 478 l 533 465 l 543 467 l 547 476 m 458 308 l 447 313 l 443 301 l 451 290 l 460 299 l 458 308 m 554 293 l 531 279 l 539 258 l 558 253 l 574 274 l 554 293 m 660 271 l 650 279 l 643 268 l 646 256 l 658 260 l 660 271 m 499 150 l 446 147 l 454 90 l 507 68 l 528 119 l 499 150 m 636 124 l 619 125 l 611 114 l 615 97 l 639 101 l 636 124 z "},"2":{"ha":978,"x_min":25,"x_max":942,"o":"m 76 71 l 25 115 l 76 160 l 46 211 l 100 235 l 113 300 l 179 292 l 182 356 l 242 338 l 242 390 l 292 374 l 294 432 l 350 417 l 383 471 l 443 490 l 453 542 l 504 547 l 518 604 l 564 640 l 496 672 l 528 739 l 479 697 l 418 717 l 406 665 l 357 643 l 304 610 l 251 643 l 193 592 l 135 643 l 100 669 l 101 713 l 88 760 l 129 785 l 118 846 l 179 853 l 172 910 l 228 892 l 263 942 l 322 939 l 354 996 l 410 958 l 440 999 l 476 964 l 528 1000 l 576 958 l 640 972 l 690 932 l 750 931 l 782 881 l 833 893 l 822 842 l 885 814 l 868 747 l 917 696 l 872 642 l 890 589 l 844 558 l 851 486 l 781 474 l 781 426 l 733 426 l 729 375 l 678 381 l 658 336 l 610 331 l 626 290 l 592 264 l 632 281 l 671 258 l 726 296 l 781 258 l 811 288 l 842 258 l 883 265 l 896 226 l 942 185 l 896 143 l 935 99 l 896 54 l 878 15 l 836 28 l 786 -15 l 736 28 l 692 -21 l 647 28 l 600 -12 l 553 28 l 497 -6 l 442 28 l 397 -21 l 353 28 l 308 -17 l 264 28 l 225 -7 l 186 28 l 136 -6 l 76 71 m 600 938 l 572 919 l 572 889 l 606 879 l 613 908 l 600 938 m 468 907 l 415 932 l 400 876 l 426 829 l 485 854 l 468 907 m 414 790 l 406 808 l 381 804 l 385 779 l 406 772 l 414 790 m 822 753 l 814 749 l 817 739 l 828 736 l 833 749 l 822 753 m 315 749 l 303 742 l 296 726 l 311 725 l 321 733 l 315 749 m 676 644 l 576 647 l 597 540 l 694 497 l 757 593 l 676 644 m 578 468 l 508 497 l 454 456 l 478 385 l 551 394 l 578 468 m 293 346 l 265 324 l 268 293 l 301 286 l 325 318 l 293 346 m 410 315 l 368 317 l 372 278 l 399 251 l 425 283 l 410 315 m 199 247 l 185 260 l 165 256 l 168 233 l 190 226 l 199 247 m 546 201 l 521 217 l 490 211 l 503 182 l 528 179 l 546 201 m 218 172 l 197 189 l 172 175 l 175 140 l 207 150 l 218 172 m 772 163 l 750 174 l 744 151 l 751 131 l 774 142 l 772 163 m 354 139 l 338 149 l 317 143 l 325 122 l 344 121 l 354 139 m 774 76 l 751 74 l 758 51 l 778 44 l 789 64 l 774 76 m 360 72 l 340 71 l 338 49 l 358 39 l 376 57 l 360 72 m 451 50 l 440 56 l 439 43 l 444 38 l 453 40 l 451 50 z "},"3":{"ha":985,"x_min":36,"x_max":958,"o":"m 467 14 l 419 -11 l 378 21 l 338 -22 l 318 33 l 260 1 l 233 63 l 190 39 l 183 88 l 125 96 l 108 153 l 54 160 l 74 210 l 36 236 l 60 275 l 107 313 l 156 278 l 192 324 l 226 278 l 282 331 l 336 278 l 383 281 l 407 240 l 449 267 l 479 228 l 519 261 l 571 254 l 546 311 l 604 335 l 568 358 l 567 400 l 522 376 l 496 418 l 461 389 l 425 418 l 374 389 l 322 418 l 268 439 l 301 486 l 263 546 l 325 578 l 356 635 l 421 629 l 446 686 l 456 685 l 439 729 l 383 696 l 328 729 l 296 690 l 263 729 l 235 683 l 207 729 l 174 692 l 140 729 l 97 758 l 119 804 l 69 835 l 119 864 l 121 915 l 163 944 l 199 988 l 235 944 l 290 978 l 346 944 l 376 996 l 407 944 l 438 976 l 468 944 l 496 983 l 524 944 l 554 972 l 585 944 l 638 990 l 690 944 l 740 985 l 790 944 l 839 949 l 850 901 l 882 847 l 850 792 l 867 738 l 817 714 l 808 647 l 743 665 l 717 613 l 660 596 l 707 604 l 707 557 l 751 563 l 781 528 l 849 524 l 865 457 l 928 444 l 899 388 l 936 363 l 910 326 l 958 288 l 904 254 l 925 204 l 876 182 l 882 126 l 826 122 l 829 57 l 768 81 l 754 38 l 713 53 l 669 3 l 606 24 l 547 -8 l 467 14 m 560 861 l 513 853 l 481 801 l 540 760 l 593 810 l 560 861 m 168 832 l 138 825 l 153 799 l 176 789 l 192 815 l 168 832 m 268 817 l 235 808 l 244 775 l 272 771 l 299 796 l 268 817 m 396 800 l 368 800 l 356 779 l 374 765 l 393 772 l 396 800 m 696 778 l 671 783 l 656 767 l 664 739 l 696 747 l 696 778 m 689 661 l 674 678 l 661 661 l 665 646 l 683 642 l 689 661 m 583 607 l 535 647 l 471 606 l 507 538 l 574 547 l 583 607 m 869 361 l 799 350 l 792 288 l 840 264 l 894 293 l 869 361 m 631 224 l 547 189 l 588 108 l 660 111 l 679 175 l 631 224 m 410 189 l 403 201 l 390 196 l 388 179 l 404 178 l 410 189 m 228 172 l 197 192 l 183 157 l 206 136 l 231 147 l 228 172 m 810 167 l 792 163 l 792 143 l 808 143 l 815 153 l 810 167 m 292 85 l 274 83 l 264 71 l 276 61 l 294 65 l 292 85 z "},"4":{"ha":1021,"x_min":15,"x_max":999,"o":"m 517 69 l 486 100 l 517 129 l 457 133 l 489 183 l 442 142 l 394 183 l 342 153 l 290 183 l 251 140 l 213 183 l 157 135 l 101 183 l 53 214 l 64 271 l 15 319 l 64 369 l 28 415 l 83 431 l 63 490 l 124 483 l 106 533 l 157 528 l 163 581 l 211 599 l 206 651 l 258 660 l 240 725 l 308 725 l 313 782 l 365 800 l 343 857 l 403 849 l 390 917 l 460 924 l 465 983 l 513 944 l 571 983 l 629 944 l 671 986 l 713 944 l 746 976 l 779 944 l 814 903 l 794 851 l 843 821 l 794 792 l 824 744 l 794 697 l 843 644 l 794 592 l 833 547 l 794 504 l 839 463 l 811 410 l 867 458 l 921 410 l 971 390 l 954 340 l 999 313 l 954 286 l 988 247 l 954 210 l 922 168 l 872 183 l 838 153 l 844 147 l 794 118 l 814 61 l 763 28 l 732 -22 l 703 28 l 656 -1 l 608 28 l 568 -11 l 517 69 m 536 810 l 489 853 l 454 792 l 485 729 l 549 758 l 536 810 m 753 761 l 672 789 l 604 731 l 665 674 l 751 664 l 753 761 m 410 750 l 339 721 l 344 653 l 410 619 l 458 685 l 410 750 m 338 394 l 365 414 l 393 394 l 421 411 l 449 394 l 476 421 l 504 394 l 499 422 l 526 428 l 508 456 l 526 483 l 507 511 l 526 539 l 507 567 l 526 594 l 501 604 l 501 631 l 486 608 l 460 617 l 461 582 l 428 572 l 424 542 l 396 528 l 393 496 l 364 483 l 363 450 l 331 439 l 336 401 l 338 394 m 318 499 l 293 483 l 303 460 l 325 457 l 335 478 l 318 499 m 150 446 l 139 461 l 118 450 l 126 429 l 146 431 l 150 446 m 711 410 l 675 400 l 663 364 l 697 353 l 738 371 l 711 410 m 818 365 l 808 378 l 794 369 l 796 356 l 813 347 l 818 365 m 185 347 l 158 369 l 121 343 l 150 308 l 183 317 l 185 347 m 571 296 l 532 335 l 469 311 l 501 256 l 560 233 l 571 296 m 829 292 l 799 301 l 779 279 l 792 249 l 826 257 l 829 292 m 888 236 l 865 226 l 851 207 l 875 192 l 889 211 l 888 236 m 685 222 l 631 214 l 617 175 l 644 140 l 694 161 l 685 222 m 636 85 l 611 88 l 599 67 l 617 54 l 638 60 l 636 85 z "},"5":{"ha":958,"x_min":18,"x_max":933,"o":"m 400 15 l 340 -1 l 290 36 l 222 18 l 189 81 l 143 69 l 140 117 l 65 132 l 78 207 l 18 235 l 60 283 l 86 328 l 129 297 l 181 332 l 233 297 l 288 328 l 343 297 l 392 300 l 401 253 l 457 267 l 501 228 l 515 276 l 564 263 l 532 322 l 590 357 l 560 375 l 569 410 l 506 400 l 468 453 l 418 404 l 351 419 l 315 396 l 279 419 l 244 392 l 208 419 l 167 396 l 125 419 l 93 433 l 115 460 l 67 501 l 124 531 l 79 594 l 136 647 l 111 683 l 143 713 l 96 746 l 150 768 l 106 813 l 158 844 l 149 904 l 193 944 l 251 982 l 310 944 l 363 994 l 415 944 l 449 979 l 482 944 l 525 978 l 569 944 l 600 996 l 631 944 l 667 994 l 703 944 l 758 975 l 814 944 l 861 925 l 824 892 l 858 839 l 824 788 l 821 738 l 769 729 l 725 699 l 682 729 l 638 704 l 593 729 l 538 696 l 483 729 l 447 697 l 411 729 l 413 692 l 378 679 l 403 626 l 367 581 l 393 611 l 426 589 l 472 629 l 533 621 l 569 642 l 606 621 l 638 646 l 661 613 l 722 611 l 764 567 l 815 586 l 807 531 l 879 525 l 864 454 l 922 431 l 890 375 l 928 350 l 894 319 l 933 279 l 885 253 l 913 199 l 854 181 l 867 117 l 801 115 l 774 56 l 707 56 l 696 7 l 656 36 l 607 -26 l 539 14 l 510 -18 l 400 15 m 663 907 l 608 918 l 596 868 l 628 838 l 656 864 l 663 907 m 542 811 l 507 822 l 478 801 l 496 768 l 531 776 l 542 811 m 432 774 l 419 786 l 404 771 l 414 750 l 432 758 l 432 774 m 628 547 l 611 558 l 601 543 l 606 525 l 625 529 l 628 547 m 229 524 l 185 493 l 197 438 l 254 440 l 267 489 l 229 524 m 625 436 l 614 436 l 611 424 l 622 419 l 632 428 l 625 436 m 642 333 l 625 351 l 606 339 l 607 315 l 629 318 l 642 333 m 846 296 l 797 304 l 756 281 l 781 228 l 826 250 l 846 296 m 719 250 l 700 250 l 688 235 l 704 219 l 719 232 l 719 250 m 200 211 l 165 174 l 175 132 l 226 122 l 243 176 l 200 211 m 719 135 l 700 126 l 699 99 l 731 89 l 736 119 l 719 135 m 560 108 l 533 132 l 515 103 l 526 79 l 558 76 l 560 108 z "},"6":{"ha":961,"x_min":21,"x_max":953,"o":"m 431 17 l 394 -26 l 369 24 l 321 -8 l 293 42 l 242 22 l 221 74 l 158 74 l 140 133 l 81 136 l 93 196 l 46 208 l 69 251 l 21 299 l 56 357 l 31 396 l 68 422 l 50 460 l 88 475 l 83 535 l 136 564 l 139 617 l 188 636 l 176 681 l 221 679 l 221 753 l 292 771 l 271 828 l 331 824 l 332 871 l 378 885 l 404 939 l 465 944 l 522 992 l 581 944 l 610 979 l 640 944 l 688 974 l 715 926 l 721 888 l 682 882 l 699 818 l 632 817 l 643 740 l 567 731 l 613 710 l 603 661 l 644 678 l 672 643 l 740 653 l 772 592 l 833 597 l 835 536 l 890 522 l 881 467 l 940 431 l 904 369 l 953 333 l 900 303 l 921 243 l 868 208 l 857 147 l 800 122 l 771 60 l 703 58 l 658 14 l 597 25 l 546 -29 l 431 17 m 575 932 l 508 892 l 513 814 l 593 800 l 621 871 l 575 932 m 471 786 l 447 832 l 406 801 l 413 764 l 456 739 l 471 786 m 425 589 l 383 633 l 332 614 l 329 557 l 385 543 l 425 589 m 681 579 l 658 603 l 638 583 l 636 556 l 671 543 l 681 579 m 482 568 l 467 574 l 456 568 l 460 556 l 476 550 l 482 568 m 258 521 l 161 504 l 118 435 l 179 351 l 271 411 l 258 521 m 515 233 l 535 258 l 565 257 l 565 292 l 597 303 l 576 335 l 606 358 l 575 378 l 588 411 l 550 413 l 547 450 l 514 435 l 493 465 l 468 439 l 438 458 l 426 422 l 390 429 l 390 397 l 363 381 l 385 351 l 360 325 l 392 308 l 382 274 l 417 272 l 426 240 l 457 249 l 515 233 m 347 325 l 333 339 l 319 329 l 314 308 l 338 308 l 347 325 m 190 324 l 151 315 l 149 278 l 179 264 l 199 289 l 190 324 m 774 261 l 754 281 l 731 271 l 733 246 l 757 244 l 774 261 m 653 226 l 636 221 l 635 206 l 649 199 l 661 210 l 653 226 m 411 143 l 393 147 l 385 133 l 396 121 l 408 128 l 411 143 m 307 125 l 289 118 l 286 92 l 311 94 l 326 113 l 307 125 m 568 118 l 519 94 l 540 44 l 592 36 l 610 89 l 568 118 z "},"7":{"ha":868,"x_min":26,"x_max":854,"o":"m 201 71 l 172 115 l 225 121 l 203 193 l 272 222 l 242 269 l 299 278 l 271 326 l 326 338 l 307 408 l 372 439 l 354 499 l 413 524 l 399 571 l 443 589 l 442 642 l 483 675 l 450 689 l 474 715 l 418 683 l 364 715 l 333 688 l 303 715 l 258 675 l 214 715 l 165 682 l 115 715 l 72 729 l 67 775 l 26 811 l 67 846 l 28 903 l 82 944 l 135 981 l 188 944 l 219 993 l 253 944 l 289 979 l 325 944 l 369 999 l 414 944 l 454 997 l 496 944 l 529 983 l 563 944 l 615 990 l 668 944 l 708 985 l 750 944 l 794 929 l 804 885 l 836 854 l 804 824 l 854 772 l 801 724 l 819 682 l 778 667 l 794 613 l 742 592 l 751 539 l 704 511 l 724 471 l 681 461 l 697 401 l 642 375 l 671 313 l 603 296 l 611 246 l 568 219 l 594 165 l 535 150 l 558 108 l 513 100 l 542 56 l 489 50 l 471 0 l 426 28 l 386 -8 l 344 28 l 307 -26 l 268 28 l 228 -12 l 201 71 m 440 913 l 397 883 l 401 833 l 458 817 l 490 875 l 440 913 m 235 865 l 167 851 l 171 790 l 218 754 l 265 803 l 235 865 m 671 836 l 638 853 l 606 824 l 635 793 l 663 808 l 671 836 m 576 810 l 538 825 l 494 804 l 524 765 l 572 758 l 576 810 m 632 608 l 564 653 l 492 610 l 524 531 l 608 525 l 632 608 m 525 393 l 474 471 l 381 438 l 399 350 l 468 339 l 525 393 m 589 457 l 565 449 l 575 424 l 601 419 l 611 447 l 589 457 m 576 336 l 564 343 l 550 340 l 554 325 l 569 319 l 576 336 m 432 231 l 400 238 l 390 207 l 411 194 l 433 201 l 432 231 m 338 142 l 306 179 l 264 151 l 265 99 l 325 89 l 338 142 z "},"8":{"ha":989,"x_min":29,"x_max":960,"o":"m 460 14 l 415 -15 l 376 22 l 338 -1 l 311 36 l 244 29 l 203 81 l 139 83 l 129 147 l 85 160 l 96 204 l 53 232 l 79 275 l 29 326 l 88 368 l 72 424 l 128 442 l 146 506 l 171 504 l 181 542 l 122 572 l 119 639 l 75 665 l 113 700 l 74 736 l 121 761 l 90 822 l 157 836 l 169 910 l 243 907 l 257 954 l 300 932 l 344 978 l 404 953 l 453 985 l 504 958 l 567 1000 l 621 947 l 672 988 l 697 928 l 742 951 l 753 901 l 813 893 l 828 835 l 878 829 l 854 785 l 907 749 l 869 697 l 914 640 l 851 603 l 864 539 l 799 531 l 851 521 l 818 481 l 889 474 l 888 403 l 929 361 l 911 306 l 960 260 l 901 229 l 918 167 l 858 144 l 839 76 l 768 72 l 758 11 l 707 46 l 664 0 l 604 21 l 551 -32 l 460 14 m 686 822 l 658 843 l 626 839 l 633 806 l 665 790 l 686 822 m 804 835 l 790 832 l 785 821 l 796 814 l 804 821 l 804 835 m 322 810 l 299 832 l 253 821 l 267 767 l 313 778 l 322 810 m 515 575 l 536 599 l 568 596 l 568 631 l 603 638 l 582 668 l 608 693 l 574 707 l 585 743 l 553 744 l 538 772 l 507 751 l 482 779 l 461 751 l 429 764 l 421 733 l 390 725 l 403 693 l 378 671 l 406 651 l 396 619 l 429 617 l 439 585 l 471 603 l 515 575 m 753 746 l 686 719 l 699 646 l 772 631 l 782 694 l 753 746 m 296 681 l 269 694 l 251 672 l 264 649 l 293 651 l 296 681 m 701 594 l 676 581 l 682 553 l 707 557 l 724 576 l 701 594 m 413 544 l 383 542 l 376 507 l 410 501 l 436 522 l 413 544 m 599 488 l 568 474 l 553 426 l 611 413 l 626 463 l 599 488 m 742 460 l 700 449 l 699 411 l 729 401 l 767 419 l 742 460 m 417 422 l 396 431 l 376 419 l 390 403 l 408 401 l 417 422 m 339 399 l 254 411 l 224 349 l 258 289 l 324 318 l 339 399 m 504 192 l 526 218 l 558 206 l 567 240 l 601 243 l 589 275 l 618 296 l 588 318 l 607 350 l 576 360 l 568 392 l 535 381 l 515 410 l 488 392 l 460 408 l 440 382 l 408 385 l 406 351 l 375 340 l 392 310 l 369 285 l 393 264 l 392 233 l 429 238 l 438 201 l 468 211 l 504 192 m 863 289 l 806 356 l 742 310 l 743 239 l 808 243 l 863 289 m 197 221 l 183 228 l 171 226 l 171 210 l 188 206 l 197 221 m 343 215 l 292 213 l 292 168 l 321 157 l 349 171 l 343 215 m 679 149 l 650 139 l 643 115 l 667 89 l 692 117 l 679 149 z "},"9":{"ha":949,"x_min":11,"x_max":921,"o":"m 226 46 l 224 100 l 276 113 l 256 169 l 315 165 l 304 222 l 363 226 l 335 276 l 383 304 l 350 289 l 340 325 l 274 301 l 233 360 l 169 369 l 138 426 l 67 435 l 82 504 l 29 536 l 58 590 l 11 639 l 63 685 l 50 753 l 106 793 l 107 853 l 165 861 l 197 915 l 260 919 l 300 963 l 357 949 l 382 992 l 418 957 l 479 1000 l 540 956 l 599 975 l 646 936 l 706 961 l 733 901 l 794 899 l 814 842 l 869 838 l 857 783 l 903 763 l 883 715 l 921 665 l 890 610 l 908 563 l 869 529 l 893 476 l 838 465 l 858 408 l 799 404 l 790 340 l 731 313 l 726 260 l 678 240 l 681 199 l 640 192 l 665 138 l 607 147 l 597 85 l 540 58 l 522 15 l 476 28 l 422 -22 l 367 28 l 326 -12 l 285 28 l 253 -12 l 226 46 m 401 922 l 306 876 l 299 793 l 374 760 l 440 819 l 401 922 m 657 872 l 644 879 l 639 864 l 650 860 l 664 861 l 657 872 m 531 836 l 510 829 l 500 811 l 519 793 l 540 813 l 531 836 m 760 826 l 743 835 l 735 821 l 740 808 l 757 807 l 760 826 m 619 788 l 608 800 l 593 790 l 599 775 l 617 769 l 619 788 m 483 507 l 504 535 l 538 524 l 540 560 l 575 564 l 568 596 l 589 619 l 567 644 l 581 675 l 543 682 l 547 719 l 514 714 l 494 742 l 467 725 l 439 739 l 422 710 l 389 713 l 390 679 l 361 664 l 385 635 l 357 608 l 379 586 l 375 554 l 404 547 l 417 518 l 450 539 l 483 507 m 861 711 l 835 722 l 819 700 l 831 671 l 858 686 l 861 711 m 293 610 l 183 646 l 157 532 l 229 458 l 307 518 l 293 610 m 738 581 l 711 585 l 704 567 l 714 553 l 736 554 l 738 581 m 813 471 l 806 471 l 800 464 l 807 456 l 815 463 l 813 471 m 694 467 l 635 467 l 603 414 l 656 371 l 721 400 l 694 467 m 478 458 l 432 433 l 424 378 l 476 382 l 494 413 l 478 458 m 368 385 l 360 372 l 363 361 l 375 360 l 379 372 l 368 385 m 496 340 l 463 310 l 474 279 l 507 264 l 515 300 l 496 340 m 429 213 l 396 201 l 408 165 l 439 172 l 453 196 l 429 213 z "},"A":{"ha":1049,"x_min":19,"x_max":1044,"o":"m 46 85 l 19 124 l 64 138 l 47 193 l 96 226 l 76 286 l 129 321 l 97 367 l 150 383 l 115 449 l 183 478 l 167 531 l 213 561 l 179 603 l 231 614 l 199 661 l 253 676 l 238 738 l 288 776 l 261 833 l 317 860 l 292 922 l 356 940 l 382 971 l 413 944 l 458 997 l 506 944 l 535 981 l 565 944 l 604 986 l 642 944 l 678 971 l 703 933 l 749 922 l 724 882 l 776 840 l 761 776 l 817 756 l 786 703 l 844 688 l 808 640 l 869 600 l 847 531 l 900 514 l 868 467 l 925 440 l 899 383 l 939 356 l 924 310 l 972 279 l 953 226 l 1010 185 l 992 115 l 1044 90 l 1019 38 l 1006 -7 l 975 28 l 917 -3 l 860 28 l 821 -18 l 783 28 l 731 22 l 722 75 l 661 96 l 688 154 l 643 104 l 599 154 l 557 110 l 517 154 l 461 126 l 406 154 l 396 94 l 336 100 l 372 51 l 313 39 l 279 -10 l 233 28 l 183 -7 l 135 28 l 82 -18 l 46 85 m 671 896 l 653 894 l 658 878 l 674 869 l 685 885 l 671 896 m 515 824 l 474 818 l 472 774 l 513 754 l 538 790 l 515 824 m 735 754 l 722 774 l 693 768 l 700 740 l 722 739 l 735 754 m 639 703 l 617 733 l 583 708 l 593 671 l 633 665 l 639 703 m 431 369 l 458 396 l 486 369 l 514 404 l 540 369 l 568 394 l 596 369 l 607 399 l 607 400 l 621 432 l 597 454 l 604 485 l 579 506 l 589 538 l 565 560 l 572 590 l 546 611 l 557 643 l 531 642 l 518 664 l 518 633 l 488 632 l 499 600 l 472 579 l 488 546 l 456 528 l 468 494 l 440 475 l 449 443 l 424 422 l 438 389 l 431 369 m 472 638 l 463 650 l 440 649 l 436 618 l 468 610 l 472 638 m 340 619 l 306 611 l 292 586 l 317 557 l 350 581 l 340 619 m 801 514 l 722 472 l 733 403 l 790 388 l 844 433 l 801 514 m 224 442 l 207 443 l 201 426 l 215 415 l 228 426 l 224 442 m 842 332 l 828 331 l 818 319 l 831 314 l 840 318 l 842 332 m 343 310 l 303 319 l 281 286 l 303 243 l 356 260 l 343 310 m 604 269 l 572 292 l 554 257 l 568 221 l 604 238 l 604 269 m 786 272 l 719 264 l 672 189 l 758 157 l 826 204 l 786 272 m 429 196 l 411 190 l 419 171 l 439 169 l 447 189 l 429 196 m 199 196 l 164 183 l 176 151 l 203 146 l 222 171 l 199 196 m 306 179 l 290 176 l 282 165 l 293 153 l 308 161 l 306 179 m 946 129 l 901 106 l 917 60 l 957 61 l 985 97 l 946 129 z "},"Á":{"ha":1049,"x_min":19,"x_max":1044,"o":"m 46 85 l 19 124 l 64 138 l 47 193 l 96 226 l 76 286 l 129 321 l 97 367 l 150 383 l 115 449 l 183 478 l 167 531 l 213 561 l 179 603 l 231 614 l 199 661 l 253 676 l 238 738 l 288 776 l 261 833 l 317 860 l 292 922 l 356 940 l 382 971 l 413 944 l 458 997 l 506 944 l 535 981 l 565 944 l 604 986 l 642 944 l 678 971 l 703 933 l 749 922 l 724 882 l 776 840 l 761 776 l 817 756 l 786 703 l 844 688 l 808 640 l 869 600 l 847 531 l 900 514 l 868 467 l 925 440 l 899 383 l 939 356 l 924 310 l 972 279 l 953 226 l 1010 185 l 992 115 l 1044 90 l 1019 38 l 1006 -7 l 975 28 l 917 -3 l 860 28 l 821 -18 l 783 28 l 731 22 l 722 75 l 661 96 l 688 154 l 643 104 l 599 154 l 557 110 l 517 154 l 461 126 l 406 154 l 396 94 l 336 100 l 372 51 l 313 39 l 279 -10 l 233 28 l 183 -7 l 135 28 l 82 -18 l 46 85 m 671 896 l 653 894 l 658 878 l 674 869 l 685 885 l 671 896 m 515 824 l 474 818 l 472 774 l 513 754 l 538 790 l 515 824 m 735 754 l 722 774 l 693 768 l 700 740 l 722 739 l 735 754 m 639 703 l 617 733 l 583 708 l 593 671 l 633 665 l 639 703 m 431 369 l 458 396 l 486 369 l 514 404 l 540 369 l 568 394 l 596 369 l 607 399 l 607 400 l 621 432 l 597 454 l 604 485 l 579 506 l 589 538 l 565 560 l 572 590 l 546 611 l 557 643 l 531 642 l 518 664 l 518 633 l 488 632 l 499 600 l 472 579 l 488 546 l 456 528 l 468 494 l 440 475 l 449 443 l 424 422 l 438 389 l 431 369 m 472 638 l 463 650 l 440 649 l 436 618 l 468 610 l 472 638 m 340 619 l 306 611 l 292 586 l 317 557 l 350 581 l 340 619 m 801 514 l 722 472 l 733 403 l 790 388 l 844 433 l 801 514 m 224 442 l 207 443 l 201 426 l 215 415 l 228 426 l 224 442 m 842 332 l 828 331 l 818 319 l 831 314 l 840 318 l 842 332 m 343 310 l 303 319 l 281 286 l 303 243 l 356 260 l 343 310 m 604 269 l 572 292 l 554 257 l 568 221 l 604 238 l 604 269 m 786 272 l 719 264 l 672 189 l 758 157 l 826 204 l 786 272 m 429 196 l 411 190 l 419 171 l 439 169 l 447 189 l 429 196 m 199 196 l 164 183 l 176 151 l 203 146 l 222 171 l 199 196 m 306 179 l 290 176 l 282 165 l 293 153 l 308 161 l 306 179 m 946 129 l 901 106 l 917 60 l 957 61 l 985 97 l 946 129 m 397 1090 l 408 1138 l 453 1158 l 464 1194 l 497 1214 l 503 1250 l 538 1260 l 594 1283 l 654 1271 l 682 1288 l 710 1271 l 743 1297 l 776 1271 l 810 1286 l 843 1271 l 851 1239 l 829 1214 l 804 1169 l 757 1156 l 738 1108 l 689 1099 l 668 1053 l 618 1050 l 585 1036 l 550 1049 l 519 1035 l 490 1049 l 443 1024 l 397 1090 m 779 1213 l 763 1236 l 731 1231 l 733 1196 l 764 1190 l 779 1213 m 557 1210 l 543 1217 l 532 1207 l 538 1193 l 558 1188 l 557 1210 m 592 1129 l 546 1143 l 514 1114 l 533 1074 l 576 1083 l 592 1129 z "},"Ă":{"ha":1049,"x_min":19,"x_max":1044,"o":"m 46 85 l 19 124 l 64 138 l 47 193 l 96 226 l 76 286 l 129 321 l 97 367 l 150 383 l 115 449 l 183 478 l 167 531 l 213 561 l 179 603 l 231 614 l 199 661 l 253 676 l 238 738 l 288 776 l 261 833 l 317 860 l 292 922 l 356 940 l 382 971 l 413 944 l 458 997 l 506 944 l 535 981 l 565 944 l 604 986 l 642 944 l 678 971 l 703 933 l 749 922 l 724 882 l 776 840 l 761 776 l 817 756 l 786 703 l 844 688 l 808 640 l 869 600 l 847 531 l 900 514 l 868 467 l 925 440 l 899 383 l 939 356 l 924 310 l 972 279 l 953 226 l 1010 185 l 992 115 l 1044 90 l 1019 38 l 1006 -7 l 975 28 l 917 -3 l 860 28 l 821 -18 l 783 28 l 731 22 l 722 75 l 661 96 l 688 154 l 643 104 l 599 154 l 557 110 l 517 154 l 461 126 l 406 154 l 396 94 l 336 100 l 372 51 l 313 39 l 279 -10 l 233 28 l 183 -7 l 135 28 l 82 -18 l 46 85 m 671 896 l 653 894 l 658 878 l 674 869 l 685 885 l 671 896 m 515 824 l 474 818 l 472 774 l 513 754 l 538 790 l 515 824 m 735 754 l 722 774 l 693 768 l 700 740 l 722 739 l 735 754 m 639 703 l 617 733 l 583 708 l 593 671 l 633 665 l 639 703 m 431 369 l 458 396 l 486 369 l 514 404 l 540 369 l 568 394 l 596 369 l 607 399 l 607 400 l 621 432 l 597 454 l 604 485 l 579 506 l 589 538 l 565 560 l 572 590 l 546 611 l 557 643 l 531 642 l 518 664 l 518 633 l 488 632 l 499 600 l 472 579 l 488 546 l 456 528 l 468 494 l 440 475 l 449 443 l 424 422 l 438 389 l 431 369 m 472 638 l 463 650 l 440 649 l 436 618 l 468 610 l 472 638 m 340 619 l 306 611 l 292 586 l 317 557 l 350 581 l 340 619 m 801 514 l 722 472 l 733 403 l 790 388 l 844 433 l 801 514 m 224 442 l 207 443 l 201 426 l 215 415 l 228 426 l 224 442 m 842 332 l 828 331 l 818 319 l 831 314 l 840 318 l 842 332 m 343 310 l 303 319 l 281 286 l 303 243 l 356 260 l 343 310 m 604 269 l 572 292 l 554 257 l 568 221 l 604 238 l 604 269 m 786 272 l 719 264 l 672 189 l 758 157 l 826 204 l 786 272 m 429 196 l 411 190 l 419 171 l 439 169 l 447 189 l 429 196 m 199 196 l 164 183 l 176 151 l 203 146 l 222 171 l 199 196 m 306 179 l 290 176 l 282 165 l 293 153 l 308 161 l 306 179 m 946 129 l 901 106 l 917 60 l 957 61 l 985 97 l 946 129 m 436 1053 l 397 1049 l 374 1079 l 333 1079 l 328 1119 l 293 1140 l 296 1179 l 282 1222 l 294 1267 l 351 1288 l 410 1271 l 442 1265 l 463 1240 l 503 1214 l 519 1168 l 540 1203 l 581 1207 l 588 1246 l 618 1271 l 676 1285 l 733 1271 l 763 1244 l 760 1207 l 758 1156 l 722 1119 l 685 1076 l 631 1057 l 581 1028 l 436 1053 m 404 1263 l 394 1260 l 393 1251 l 403 1242 l 413 1254 l 404 1263 m 667 1211 l 660 1228 l 644 1217 l 647 1201 l 664 1193 l 667 1211 m 374 1138 l 358 1158 l 338 1144 l 335 1114 l 365 1118 l 374 1138 z "},"Â":{"ha":1049,"x_min":19,"x_max":1044,"o":"m 46 85 l 19 124 l 64 138 l 47 193 l 96 226 l 76 286 l 129 321 l 97 367 l 150 383 l 115 449 l 183 478 l 167 531 l 213 561 l 179 603 l 231 614 l 199 661 l 253 676 l 238 738 l 288 776 l 261 833 l 317 860 l 292 922 l 356 940 l 382 971 l 413 944 l 458 997 l 506 944 l 535 981 l 565 944 l 604 986 l 642 944 l 678 971 l 703 933 l 749 922 l 724 882 l 776 840 l 761 776 l 817 756 l 786 703 l 844 688 l 808 640 l 869 600 l 847 531 l 900 514 l 868 467 l 925 440 l 899 383 l 939 356 l 924 310 l 972 279 l 953 226 l 1010 185 l 992 115 l 1044 90 l 1019 38 l 1006 -7 l 975 28 l 917 -3 l 860 28 l 821 -18 l 783 28 l 731 22 l 722 75 l 661 96 l 688 154 l 643 104 l 599 154 l 557 110 l 517 154 l 461 126 l 406 154 l 396 94 l 336 100 l 372 51 l 313 39 l 279 -10 l 233 28 l 183 -7 l 135 28 l 82 -18 l 46 85 m 671 896 l 653 894 l 658 878 l 674 869 l 685 885 l 671 896 m 515 824 l 474 818 l 472 774 l 513 754 l 538 790 l 515 824 m 735 754 l 722 774 l 693 768 l 700 740 l 722 739 l 735 754 m 639 703 l 617 733 l 583 708 l 593 671 l 633 665 l 639 703 m 431 369 l 458 396 l 486 369 l 514 404 l 540 369 l 568 394 l 596 369 l 607 399 l 607 400 l 621 432 l 597 454 l 604 485 l 579 506 l 589 538 l 565 560 l 572 590 l 546 611 l 557 643 l 531 642 l 518 664 l 518 633 l 488 632 l 499 600 l 472 579 l 488 546 l 456 528 l 468 494 l 440 475 l 449 443 l 424 422 l 438 389 l 431 369 m 472 638 l 463 650 l 440 649 l 436 618 l 468 610 l 472 638 m 340 619 l 306 611 l 292 586 l 317 557 l 350 581 l 340 619 m 801 514 l 722 472 l 733 403 l 790 388 l 844 433 l 801 514 m 224 442 l 207 443 l 201 426 l 215 415 l 228 426 l 224 442 m 842 332 l 828 331 l 818 319 l 831 314 l 840 318 l 842 332 m 343 310 l 303 319 l 281 286 l 303 243 l 356 260 l 343 310 m 604 269 l 572 292 l 554 257 l 568 221 l 604 238 l 604 269 m 786 272 l 719 264 l 672 189 l 758 157 l 826 204 l 786 272 m 429 196 l 411 190 l 419 171 l 439 169 l 447 189 l 429 196 m 199 196 l 164 183 l 176 151 l 203 146 l 222 171 l 199 196 m 306 179 l 290 176 l 282 165 l 293 153 l 308 161 l 306 179 m 946 129 l 901 106 l 917 60 l 957 61 l 985 97 l 946 129 m 263 1110 l 283 1158 l 329 1183 l 351 1239 l 407 1263 l 451 1288 l 500 1271 l 550 1289 l 599 1271 l 650 1257 l 688 1219 l 733 1199 l 750 1150 l 797 1126 l 817 1078 l 782 1046 l 736 1049 l 676 1043 l 625 1072 l 593 1068 l 575 1094 l 536 1086 l 500 1106 l 465 1075 l 419 1069 l 386 1036 l 342 1049 l 293 1024 l 263 1110 m 542 1222 l 532 1221 l 522 1213 l 533 1204 l 542 1211 l 542 1222 m 715 1088 l 710 1096 l 699 1093 l 701 1083 l 711 1075 l 715 1088 z "},"Ä":{"ha":1049,"x_min":19,"x_max":1044,"o":"m 46 85 l 19 124 l 64 138 l 47 193 l 96 226 l 76 286 l 129 321 l 97 367 l 150 383 l 115 449 l 183 478 l 167 531 l 213 561 l 179 603 l 231 614 l 199 661 l 253 676 l 238 738 l 288 776 l 261 833 l 317 860 l 292 922 l 356 940 l 382 971 l 413 944 l 458 997 l 506 944 l 535 981 l 565 944 l 604 986 l 642 944 l 678 971 l 703 933 l 749 922 l 724 882 l 776 840 l 761 776 l 817 756 l 786 703 l 844 688 l 808 640 l 869 600 l 847 531 l 900 514 l 868 467 l 925 440 l 899 383 l 939 356 l 924 310 l 972 279 l 953 226 l 1010 185 l 992 115 l 1044 90 l 1019 38 l 1006 -7 l 975 28 l 917 -3 l 860 28 l 821 -18 l 783 28 l 731 22 l 722 75 l 661 96 l 688 154 l 643 104 l 599 154 l 557 110 l 517 154 l 461 126 l 406 154 l 396 94 l 336 100 l 372 51 l 313 39 l 279 -10 l 233 28 l 183 -7 l 135 28 l 82 -18 l 46 85 m 671 896 l 653 894 l 658 878 l 674 869 l 685 885 l 671 896 m 515 824 l 474 818 l 472 774 l 513 754 l 538 790 l 515 824 m 735 754 l 722 774 l 693 768 l 700 740 l 722 739 l 735 754 m 639 703 l 617 733 l 583 708 l 593 671 l 633 665 l 639 703 m 431 369 l 458 396 l 486 369 l 514 404 l 540 369 l 568 394 l 596 369 l 607 399 l 607 400 l 621 432 l 597 454 l 604 485 l 579 506 l 589 538 l 565 560 l 572 590 l 546 611 l 557 643 l 531 642 l 518 664 l 518 633 l 488 632 l 499 600 l 472 579 l 488 546 l 456 528 l 468 494 l 440 475 l 449 443 l 424 422 l 438 389 l 431 369 m 472 638 l 463 650 l 440 649 l 436 618 l 468 610 l 472 638 m 340 619 l 306 611 l 292 586 l 317 557 l 350 581 l 340 619 m 801 514 l 722 472 l 733 403 l 790 388 l 844 433 l 801 514 m 224 442 l 207 443 l 201 426 l 215 415 l 228 426 l 224 442 m 842 332 l 828 331 l 818 319 l 831 314 l 840 318 l 842 332 m 343 310 l 303 319 l 281 286 l 303 243 l 356 260 l 343 310 m 604 269 l 572 292 l 554 257 l 568 221 l 604 238 l 604 269 m 786 272 l 719 264 l 672 189 l 758 157 l 826 204 l 786 272 m 429 196 l 411 190 l 419 171 l 439 169 l 447 189 l 429 196 m 199 196 l 164 183 l 176 151 l 203 146 l 222 171 l 199 196 m 306 179 l 290 176 l 282 165 l 293 153 l 308 161 l 306 179 m 946 129 l 901 106 l 917 60 l 957 61 l 985 97 l 946 129 m 610 1054 l 586 1078 l 600 1107 l 582 1149 l 600 1190 l 582 1218 l 600 1246 l 625 1278 l 664 1271 l 717 1293 l 769 1271 l 808 1257 l 822 1218 l 843 1171 l 822 1124 l 849 1096 l 822 1068 l 776 1043 l 725 1049 l 675 1024 l 610 1054 m 226 1079 l 207 1129 l 226 1179 l 203 1222 l 232 1261 l 282 1282 l 335 1271 l 368 1288 l 401 1271 l 438 1256 l 449 1218 l 463 1176 l 449 1135 l 460 1093 l 439 1054 l 394 1025 l 346 1049 l 299 1026 l 226 1079 m 383 1251 l 371 1247 l 369 1235 l 382 1224 l 394 1239 l 383 1251 m 763 1129 l 749 1118 l 749 1104 l 764 1101 l 775 1114 l 763 1129 m 321 1108 l 301 1110 l 293 1093 l 308 1081 l 326 1089 l 321 1108 z "},"À":{"ha":1049,"x_min":19,"x_max":1044,"o":"m 46 85 l 19 124 l 64 138 l 47 193 l 96 226 l 76 286 l 129 321 l 97 367 l 150 383 l 115 449 l 183 478 l 167 531 l 213 561 l 179 603 l 231 614 l 199 661 l 253 676 l 238 738 l 288 776 l 261 833 l 317 860 l 292 922 l 356 940 l 382 971 l 413 944 l 458 997 l 506 944 l 535 981 l 565 944 l 604 986 l 642 944 l 678 971 l 703 933 l 749 922 l 724 882 l 776 840 l 761 776 l 817 756 l 786 703 l 844 688 l 808 640 l 869 600 l 847 531 l 900 514 l 868 467 l 925 440 l 899 383 l 939 356 l 924 310 l 972 279 l 953 226 l 1010 185 l 992 115 l 1044 90 l 1019 38 l 1006 -7 l 975 28 l 917 -3 l 860 28 l 821 -18 l 783 28 l 731 22 l 722 75 l 661 96 l 688 154 l 643 104 l 599 154 l 557 110 l 517 154 l 461 126 l 406 154 l 396 94 l 336 100 l 372 51 l 313 39 l 279 -10 l 233 28 l 183 -7 l 135 28 l 82 -18 l 46 85 m 671 896 l 653 894 l 658 878 l 674 869 l 685 885 l 671 896 m 515 824 l 474 818 l 472 774 l 513 754 l 538 790 l 515 824 m 735 754 l 722 774 l 693 768 l 700 740 l 722 739 l 735 754 m 639 703 l 617 733 l 583 708 l 593 671 l 633 665 l 639 703 m 431 369 l 458 396 l 486 369 l 514 404 l 540 369 l 568 394 l 596 369 l 607 399 l 607 400 l 621 432 l 597 454 l 604 485 l 579 506 l 589 538 l 565 560 l 572 590 l 546 611 l 557 643 l 531 642 l 518 664 l 518 633 l 488 632 l 499 600 l 472 579 l 488 546 l 456 528 l 468 494 l 440 475 l 449 443 l 424 422 l 438 389 l 431 369 m 472 638 l 463 650 l 440 649 l 436 618 l 468 610 l 472 638 m 340 619 l 306 611 l 292 586 l 317 557 l 350 581 l 340 619 m 801 514 l 722 472 l 733 403 l 790 388 l 844 433 l 801 514 m 224 442 l 207 443 l 201 426 l 215 415 l 228 426 l 224 442 m 842 332 l 828 331 l 818 319 l 831 314 l 840 318 l 842 332 m 343 310 l 303 319 l 281 286 l 303 243 l 356 260 l 343 310 m 604 269 l 572 292 l 554 257 l 568 221 l 604 238 l 604 269 m 786 272 l 719 264 l 672 189 l 758 157 l 826 204 l 786 272 m 429 196 l 411 190 l 419 171 l 439 169 l 447 189 l 429 196 m 199 196 l 164 183 l 176 151 l 203 146 l 222 171 l 199 196 m 306 179 l 290 176 l 282 165 l 293 153 l 308 161 l 306 179 m 946 129 l 901 106 l 917 60 l 957 61 l 985 97 l 946 129 m 394 1071 l 350 1078 l 335 1119 l 286 1131 l 267 1176 l 232 1186 l 215 1218 l 213 1251 l 239 1271 l 281 1288 l 322 1271 l 364 1285 l 406 1271 l 457 1286 l 507 1264 l 558 1242 l 572 1188 l 618 1169 l 628 1121 l 663 1113 l 663 1078 l 650 1050 l 619 1049 l 561 1035 l 504 1049 l 476 1035 l 394 1071 m 447 1250 l 394 1226 l 403 1181 l 443 1158 l 467 1200 l 447 1250 z "},"Ā":{"ha":1049,"x_min":19,"x_max":1044,"o":"m 46 85 l 19 124 l 64 138 l 47 193 l 96 226 l 76 286 l 129 321 l 97 367 l 150 383 l 115 449 l 183 478 l 167 531 l 213 561 l 179 603 l 231 614 l 199 661 l 253 676 l 238 738 l 288 776 l 261 833 l 317 860 l 292 922 l 356 940 l 382 971 l 413 944 l 458 997 l 506 944 l 535 981 l 565 944 l 604 986 l 642 944 l 678 971 l 703 933 l 749 922 l 724 882 l 776 840 l 761 776 l 817 756 l 786 703 l 844 688 l 808 640 l 869 600 l 847 531 l 900 514 l 868 467 l 925 440 l 899 383 l 939 356 l 924 310 l 972 279 l 953 226 l 1010 185 l 992 115 l 1044 90 l 1019 38 l 1006 -7 l 975 28 l 917 -3 l 860 28 l 821 -18 l 783 28 l 731 22 l 722 75 l 661 96 l 688 154 l 643 104 l 599 154 l 557 110 l 517 154 l 461 126 l 406 154 l 396 94 l 336 100 l 372 51 l 313 39 l 279 -10 l 233 28 l 183 -7 l 135 28 l 82 -18 l 46 85 m 671 896 l 653 894 l 658 878 l 674 869 l 685 885 l 671 896 m 515 824 l 474 818 l 472 774 l 513 754 l 538 790 l 515 824 m 735 754 l 722 774 l 693 768 l 700 740 l 722 739 l 735 754 m 639 703 l 617 733 l 583 708 l 593 671 l 633 665 l 639 703 m 431 369 l 458 396 l 486 369 l 514 404 l 540 369 l 568 394 l 596 369 l 607 399 l 607 400 l 621 432 l 597 454 l 604 485 l 579 506 l 589 538 l 565 560 l 572 590 l 546 611 l 557 643 l 531 642 l 518 664 l 518 633 l 488 632 l 499 600 l 472 579 l 488 546 l 456 528 l 468 494 l 440 475 l 449 443 l 424 422 l 438 389 l 431 369 m 472 638 l 463 650 l 440 649 l 436 618 l 468 610 l 472 638 m 340 619 l 306 611 l 292 586 l 317 557 l 350 581 l 340 619 m 801 514 l 722 472 l 733 403 l 790 388 l 844 433 l 801 514 m 224 442 l 207 443 l 201 426 l 215 415 l 228 426 l 224 442 m 842 332 l 828 331 l 818 319 l 831 314 l 840 318 l 842 332 m 343 310 l 303 319 l 281 286 l 303 243 l 356 260 l 343 310 m 604 269 l 572 292 l 554 257 l 568 221 l 604 238 l 604 269 m 786 272 l 719 264 l 672 189 l 758 157 l 826 204 l 786 272 m 429 196 l 411 190 l 419 171 l 439 169 l 447 189 l 429 196 m 199 196 l 164 183 l 176 151 l 203 146 l 222 171 l 199 196 m 306 179 l 290 176 l 282 165 l 293 153 l 308 161 l 306 179 m 946 129 l 901 106 l 917 60 l 957 61 l 985 97 l 946 129 m 238 1129 l 214 1179 l 240 1229 l 264 1261 l 301 1243 l 340 1264 l 378 1243 l 431 1269 l 483 1243 l 519 1260 l 554 1243 l 582 1257 l 610 1243 l 651 1263 l 693 1243 l 725 1264 l 758 1243 l 797 1229 l 811 1190 l 832 1154 l 811 1118 l 801 1076 l 769 1049 l 739 1025 l 708 1049 l 679 1033 l 649 1049 l 599 1024 l 549 1049 l 506 1025 l 461 1049 l 433 1035 l 406 1049 l 375 1024 l 346 1049 l 304 1029 l 238 1129 m 417 1093 l 403 1092 l 401 1075 l 418 1075 l 429 1086 l 417 1093 z "},"Ą":{"ha":1049,"x_min":14,"x_max":1028,"o":"m 906 -269 l 850 -299 l 836 -236 l 778 -221 l 782 -161 l 731 -128 l 767 -79 l 729 -42 l 772 -11 l 718 21 l 718 83 l 660 94 l 660 154 l 601 114 l 543 154 l 492 104 l 439 154 l 399 117 l 354 149 l 394 103 l 333 94 l 369 46 l 310 35 l 275 -14 l 233 28 l 186 0 l 140 28 l 107 -21 l 74 28 l 39 42 l 44 79 l 14 122 l 64 138 l 36 197 l 96 226 l 69 271 l 118 289 l 97 358 l 156 399 l 125 463 l 189 493 l 167 539 l 213 561 l 196 597 l 231 614 l 199 667 l 257 688 l 235 725 l 275 740 l 243 781 l 293 792 l 283 851 l 328 892 l 343 949 l 401 944 l 428 992 l 456 944 l 494 981 l 532 944 l 568 976 l 604 944 l 643 982 l 681 944 l 747 919 l 735 850 l 794 832 l 758 782 l 818 771 l 779 724 l 846 692 l 814 625 l 860 585 l 849 525 l 892 490 l 879 436 l 933 401 l 913 342 l 960 322 l 935 278 l 997 265 l 957 215 l 1010 186 l 986 132 l 1028 111 l 1008 68 l 1015 28 l 974 28 l 961 -37 l 896 -24 l 946 -65 l 892 -101 l 940 -111 l 950 -160 l 1000 -124 l 1007 -185 l 1013 -237 l 906 -269 m 668 883 l 568 890 l 560 801 l 614 733 l 692 792 l 668 883 m 476 707 l 447 719 l 440 689 l 457 667 l 489 678 l 476 707 m 686 669 l 676 685 l 663 674 l 664 658 l 681 653 l 686 669 m 431 369 l 458 396 l 486 369 l 514 399 l 540 369 l 568 394 l 596 369 l 611 396 l 606 399 l 621 432 l 596 453 l 604 485 l 583 507 l 589 538 l 560 557 l 572 590 l 544 610 l 557 643 l 528 635 l 518 664 l 515 636 l 488 632 l 503 599 l 472 579 l 485 547 l 456 528 l 468 494 l 440 475 l 449 443 l 424 422 l 435 390 l 431 369 m 638 574 l 619 565 l 617 539 l 650 526 l 651 560 l 638 574 m 813 517 l 751 514 l 751 458 l 789 442 l 829 464 l 813 517 m 385 400 l 338 457 l 279 413 l 282 335 l 364 332 l 385 400 m 807 381 l 789 382 l 781 363 l 799 349 l 814 365 l 807 381 m 807 306 l 758 269 l 768 224 l 821 194 l 828 253 l 807 306 m 222 274 l 193 300 l 156 288 l 160 246 l 199 243 l 222 274 m 385 267 l 363 288 l 336 261 l 354 228 l 393 233 l 385 267 z "},"Å":{"ha":1049,"x_min":19,"x_max":1044,"o":"m 46 85 l 19 124 l 64 138 l 47 193 l 96 226 l 76 286 l 129 321 l 97 367 l 150 383 l 115 449 l 183 478 l 167 531 l 213 561 l 179 603 l 231 614 l 199 661 l 253 676 l 238 738 l 288 776 l 261 833 l 317 860 l 292 922 l 356 940 l 382 971 l 413 944 l 458 997 l 506 944 l 535 981 l 565 944 l 604 986 l 642 944 l 678 971 l 703 933 l 749 922 l 724 882 l 776 840 l 761 776 l 817 756 l 786 703 l 844 688 l 808 640 l 869 600 l 847 531 l 900 514 l 868 467 l 925 440 l 899 383 l 939 356 l 924 310 l 972 279 l 953 226 l 1010 185 l 992 115 l 1044 90 l 1019 38 l 1006 -7 l 975 28 l 917 -3 l 860 28 l 821 -18 l 783 28 l 731 22 l 722 75 l 661 96 l 688 154 l 643 104 l 599 154 l 557 110 l 517 154 l 461 126 l 406 154 l 396 94 l 336 100 l 372 51 l 313 39 l 279 -10 l 233 28 l 183 -7 l 135 28 l 82 -18 l 46 85 m 671 896 l 653 894 l 658 878 l 674 869 l 685 885 l 671 896 m 515 824 l 474 818 l 472 774 l 513 754 l 538 790 l 515 824 m 735 754 l 722 774 l 693 768 l 700 740 l 722 739 l 735 754 m 639 703 l 617 733 l 583 708 l 593 671 l 633 665 l 639 703 m 431 369 l 458 396 l 486 369 l 514 404 l 540 369 l 568 394 l 596 369 l 607 399 l 607 400 l 621 432 l 597 454 l 604 485 l 579 506 l 589 538 l 565 560 l 572 590 l 546 611 l 557 643 l 531 642 l 518 664 l 518 633 l 488 632 l 499 600 l 472 579 l 488 546 l 456 528 l 468 494 l 440 475 l 449 443 l 424 422 l 438 389 l 431 369 m 472 638 l 463 650 l 440 649 l 436 618 l 468 610 l 472 638 m 340 619 l 306 611 l 292 586 l 317 557 l 350 581 l 340 619 m 801 514 l 722 472 l 733 403 l 790 388 l 844 433 l 801 514 m 224 442 l 207 443 l 201 426 l 215 415 l 228 426 l 224 442 m 842 332 l 828 331 l 818 319 l 831 314 l 840 318 l 842 332 m 343 310 l 303 319 l 281 286 l 303 243 l 356 260 l 343 310 m 604 269 l 572 292 l 554 257 l 568 221 l 604 238 l 604 269 m 786 272 l 719 264 l 672 189 l 758 157 l 826 204 l 786 272 m 429 196 l 411 190 l 419 171 l 439 169 l 447 189 l 429 196 m 199 196 l 164 183 l 176 151 l 203 146 l 222 171 l 199 196 m 306 179 l 290 176 l 282 165 l 293 153 l 308 161 l 306 179 m 946 129 l 901 106 l 917 60 l 957 61 l 985 97 l 946 129 m 465 1047 l 417 1063 l 403 1110 l 388 1154 l 399 1199 l 406 1239 l 440 1257 l 467 1283 l 503 1283 l 544 1301 l 581 1274 l 633 1250 l 653 1193 l 663 1133 l 629 1082 l 583 1043 l 465 1047 m 536 1113 l 549 1139 l 574 1154 l 551 1174 l 547 1203 l 521 1190 l 493 1196 l 499 1167 l 479 1142 l 506 1132 l 536 1113 m 618 1110 l 589 1122 l 565 1101 l 585 1082 l 608 1081 l 618 1110 z "},"Ã":{"ha":1049,"x_min":19,"x_max":1044,"o":"m 46 85 l 19 124 l 64 138 l 47 193 l 96 226 l 76 286 l 129 321 l 97 367 l 150 383 l 115 449 l 183 478 l 167 531 l 213 561 l 179 603 l 231 614 l 199 661 l 253 676 l 238 738 l 288 776 l 261 833 l 317 860 l 292 922 l 356 940 l 382 971 l 413 944 l 458 997 l 506 944 l 535 981 l 565 944 l 604 986 l 642 944 l 678 971 l 703 933 l 749 922 l 724 882 l 776 840 l 761 776 l 817 756 l 786 703 l 844 688 l 808 640 l 869 600 l 847 531 l 900 514 l 868 467 l 925 440 l 899 383 l 939 356 l 924 310 l 972 279 l 953 226 l 1010 185 l 992 115 l 1044 90 l 1019 38 l 1006 -7 l 975 28 l 917 -3 l 860 28 l 821 -18 l 783 28 l 731 22 l 722 75 l 661 96 l 688 154 l 643 104 l 599 154 l 557 110 l 517 154 l 461 126 l 406 154 l 396 94 l 336 100 l 372 51 l 313 39 l 279 -10 l 233 28 l 183 -7 l 135 28 l 82 -18 l 46 85 m 671 896 l 653 894 l 658 878 l 674 869 l 685 885 l 671 896 m 515 824 l 474 818 l 472 774 l 513 754 l 538 790 l 515 824 m 735 754 l 722 774 l 693 768 l 700 740 l 722 739 l 735 754 m 639 703 l 617 733 l 583 708 l 593 671 l 633 665 l 639 703 m 431 369 l 458 396 l 486 369 l 514 404 l 540 369 l 568 394 l 596 369 l 607 399 l 607 400 l 621 432 l 597 454 l 604 485 l 579 506 l 589 538 l 565 560 l 572 590 l 546 611 l 557 643 l 531 642 l 518 664 l 518 633 l 488 632 l 499 600 l 472 579 l 488 546 l 456 528 l 468 494 l 440 475 l 449 443 l 424 422 l 438 389 l 431 369 m 472 638 l 463 650 l 440 649 l 436 618 l 468 610 l 472 638 m 340 619 l 306 611 l 292 586 l 317 557 l 350 581 l 340 619 m 801 514 l 722 472 l 733 403 l 790 388 l 844 433 l 801 514 m 224 442 l 207 443 l 201 426 l 215 415 l 228 426 l 224 442 m 842 332 l 828 331 l 818 319 l 831 314 l 840 318 l 842 332 m 343 310 l 303 319 l 281 286 l 303 243 l 356 260 l 343 310 m 604 269 l 572 292 l 554 257 l 568 221 l 604 238 l 604 269 m 786 272 l 719 264 l 672 189 l 758 157 l 826 204 l 786 272 m 429 196 l 411 190 l 419 171 l 439 169 l 447 189 l 429 196 m 199 196 l 164 183 l 176 151 l 203 146 l 222 171 l 199 196 m 306 179 l 290 176 l 282 165 l 293 153 l 308 161 l 306 179 m 946 129 l 901 106 l 917 60 l 957 61 l 985 97 l 946 129 m 563 1050 l 522 1053 l 494 1083 l 457 1060 l 414 1074 l 400 1044 l 368 1049 l 318 1026 l 268 1049 l 257 1101 l 265 1154 l 264 1189 l 293 1208 l 310 1251 l 356 1261 l 394 1294 l 442 1278 l 485 1283 l 518 1256 l 565 1258 l 600 1228 l 642 1265 l 697 1271 l 739 1292 l 781 1271 l 793 1221 l 785 1168 l 782 1122 l 743 1096 l 722 1057 l 679 1051 l 651 1026 l 563 1050 m 386 1225 l 360 1218 l 340 1190 l 375 1172 l 390 1199 l 386 1225 m 514 1160 l 479 1196 l 428 1172 l 440 1115 l 493 1118 l 514 1160 z "},"Æ":{"ha":1396,"x_min":39,"x_max":1363,"o":"m 50 79 l 39 139 l 85 179 l 68 238 l 118 274 l 96 322 l 143 347 l 129 414 l 182 458 l 144 501 l 200 511 l 179 563 l 229 590 l 194 643 l 254 664 l 236 733 l 293 775 l 282 839 l 331 881 l 313 928 l 361 940 l 407 996 l 457 944 l 499 972 l 540 944 l 576 997 l 613 944 l 671 976 l 729 944 l 763 983 l 796 944 l 843 976 l 890 944 l 938 996 l 985 944 l 1013 988 l 1040 944 l 1096 985 l 1151 944 l 1199 989 l 1246 944 l 1301 936 l 1306 881 l 1360 835 l 1306 788 l 1314 749 l 1279 729 l 1226 708 l 1175 729 l 1125 708 l 1075 729 l 1025 708 l 976 729 l 938 694 l 899 729 l 925 675 l 893 625 l 938 631 l 938 586 l 974 611 l 1010 586 l 1038 611 l 1065 586 l 1118 624 l 1171 586 l 1210 617 l 1249 586 l 1289 576 l 1275 538 l 1319 506 l 1275 472 l 1281 418 l 1238 386 l 1207 365 l 1176 386 l 1146 357 l 1115 386 l 1057 364 l 999 386 l 950 346 l 893 375 l 938 325 l 893 276 l 929 276 l 915 243 l 968 267 l 1019 243 l 1050 279 l 1081 243 l 1136 268 l 1192 243 l 1246 272 l 1301 243 l 1361 203 l 1317 146 l 1363 103 l 1317 60 l 1303 19 l 1263 28 l 1221 -18 l 1179 28 l 1140 -25 l 1101 28 l 1049 -14 l 996 28 l 953 -22 l 908 28 l 878 -22 l 847 28 l 800 -25 l 753 28 l 694 -19 l 636 28 l 599 75 l 615 132 l 564 100 l 538 154 l 490 104 l 444 154 l 404 111 l 360 149 l 385 94 l 331 71 l 342 24 l 293 28 l 250 -3 l 206 28 l 167 -21 l 129 28 l 82 -17 l 50 79 m 690 881 l 633 935 l 590 868 l 611 801 l 688 811 l 690 881 m 464 926 l 442 915 l 435 886 l 469 878 l 486 907 l 464 926 m 854 861 l 836 857 l 836 840 l 849 833 l 858 844 l 854 861 m 424 796 l 392 840 l 346 811 l 360 767 l 396 764 l 424 796 m 1046 833 l 1004 840 l 988 799 l 1021 776 l 1063 790 l 1046 833 m 840 763 l 810 775 l 797 743 l 819 724 l 843 735 l 840 763 m 451 369 l 479 385 l 507 369 l 533 394 l 561 369 l 588 401 l 615 369 l 596 397 l 615 425 l 601 453 l 615 481 l 589 508 l 615 536 l 593 563 l 615 590 l 594 618 l 615 646 l 594 674 l 615 701 l 585 699 l 588 729 l 561 704 l 533 729 l 538 699 l 510 688 l 525 653 l 493 633 l 510 600 l 478 581 l 492 549 l 461 528 l 474 496 l 446 475 l 456 443 l 429 422 l 447 389 l 451 369 m 693 672 l 681 682 l 665 669 l 676 654 l 699 650 l 693 672 m 788 631 l 754 650 l 726 638 l 735 611 l 763 600 l 788 631 m 272 633 l 249 617 l 253 589 l 279 590 l 288 610 l 272 633 m 451 599 l 422 608 l 394 592 l 415 565 l 449 564 l 451 599 m 858 553 l 818 567 l 779 554 l 793 510 l 839 508 l 858 553 m 1183 535 l 1142 554 l 1122 521 l 1131 485 l 1174 490 l 1183 535 m 654 483 l 638 493 l 635 474 l 643 461 l 663 465 l 654 483 m 981 486 l 943 458 l 953 410 l 997 419 l 1011 456 l 981 486 m 340 472 l 324 485 l 310 474 l 314 456 l 332 456 l 340 472 m 744 469 l 717 479 l 700 446 l 732 421 l 754 449 l 744 469 m 256 358 l 214 339 l 228 290 l 271 300 l 293 335 l 256 358 m 606 306 l 585 329 l 556 313 l 561 278 l 594 278 l 606 306 m 153 224 l 124 219 l 114 197 l 129 164 l 153 193 l 153 224 m 238 222 l 225 218 l 229 204 l 239 207 l 249 215 l 238 222 m 1006 219 l 943 211 l 946 154 l 989 132 l 1025 165 l 1006 219 m 896 215 l 876 211 l 876 194 l 890 185 l 899 199 l 896 215 m 886 121 l 869 128 l 858 121 l 856 101 l 875 106 l 886 121 m 1139 96 l 1104 125 l 1050 128 l 1061 71 l 1106 63 l 1139 96 m 1274 69 l 1264 68 l 1265 56 l 1278 51 l 1283 64 l 1274 69 m 685 54 l 674 68 l 660 60 l 661 44 l 675 43 l 685 54 z "},"Ǽ":{"ha":1396,"x_min":39,"x_max":1363,"o":"m 50 79 l 39 139 l 85 179 l 68 238 l 118 274 l 96 322 l 143 347 l 129 414 l 182 458 l 144 501 l 200 511 l 179 563 l 229 590 l 194 643 l 254 664 l 236 733 l 293 775 l 282 839 l 331 881 l 313 928 l 361 940 l 407 996 l 457 944 l 499 972 l 540 944 l 576 997 l 613 944 l 671 976 l 729 944 l 763 983 l 796 944 l 843 976 l 890 944 l 938 996 l 985 944 l 1013 988 l 1040 944 l 1096 985 l 1151 944 l 1199 989 l 1246 944 l 1301 936 l 1306 881 l 1360 835 l 1306 788 l 1314 749 l 1279 729 l 1226 708 l 1175 729 l 1125 708 l 1075 729 l 1025 708 l 976 729 l 938 694 l 899 729 l 925 675 l 893 625 l 938 631 l 938 586 l 974 611 l 1010 586 l 1038 611 l 1065 586 l 1118 624 l 1171 586 l 1210 617 l 1249 586 l 1289 576 l 1275 538 l 1319 506 l 1275 472 l 1281 418 l 1238 386 l 1207 365 l 1176 386 l 1146 357 l 1115 386 l 1057 364 l 999 386 l 950 346 l 893 375 l 938 325 l 893 276 l 929 276 l 915 243 l 968 267 l 1019 243 l 1050 279 l 1081 243 l 1136 268 l 1192 243 l 1246 272 l 1301 243 l 1361 203 l 1317 146 l 1363 103 l 1317 60 l 1303 19 l 1263 28 l 1221 -18 l 1179 28 l 1140 -25 l 1101 28 l 1049 -14 l 996 28 l 953 -22 l 908 28 l 878 -22 l 847 28 l 800 -25 l 753 28 l 694 -19 l 636 28 l 599 75 l 615 132 l 564 100 l 538 154 l 490 104 l 444 154 l 404 111 l 360 149 l 385 94 l 331 71 l 342 24 l 293 28 l 250 -3 l 206 28 l 167 -21 l 129 28 l 82 -17 l 50 79 m 690 881 l 633 935 l 590 868 l 611 801 l 688 811 l 690 881 m 464 926 l 442 915 l 435 886 l 469 878 l 486 907 l 464 926 m 854 861 l 836 857 l 836 840 l 849 833 l 858 844 l 854 861 m 424 796 l 392 840 l 346 811 l 360 767 l 396 764 l 424 796 m 1046 833 l 1004 840 l 988 799 l 1021 776 l 1063 790 l 1046 833 m 840 763 l 810 775 l 797 743 l 819 724 l 843 735 l 840 763 m 451 369 l 479 385 l 507 369 l 533 394 l 561 369 l 588 401 l 615 369 l 596 397 l 615 425 l 601 453 l 615 481 l 589 508 l 615 536 l 593 563 l 615 590 l 594 618 l 615 646 l 594 674 l 615 701 l 585 699 l 588 729 l 561 704 l 533 729 l 538 699 l 510 688 l 525 653 l 493 633 l 510 600 l 478 581 l 492 549 l 461 528 l 474 496 l 446 475 l 456 443 l 429 422 l 447 389 l 451 369 m 693 672 l 681 682 l 665 669 l 676 654 l 699 650 l 693 672 m 788 631 l 754 650 l 726 638 l 735 611 l 763 600 l 788 631 m 272 633 l 249 617 l 253 589 l 279 590 l 288 610 l 272 633 m 451 599 l 422 608 l 394 592 l 415 565 l 449 564 l 451 599 m 858 553 l 818 567 l 779 554 l 793 510 l 839 508 l 858 553 m 1183 535 l 1142 554 l 1122 521 l 1131 485 l 1174 490 l 1183 535 m 654 483 l 638 493 l 635 474 l 643 461 l 663 465 l 654 483 m 981 486 l 943 458 l 953 410 l 997 419 l 1011 456 l 981 486 m 340 472 l 324 485 l 310 474 l 314 456 l 332 456 l 340 472 m 744 469 l 717 479 l 700 446 l 732 421 l 754 449 l 744 469 m 256 358 l 214 339 l 228 290 l 271 300 l 293 335 l 256 358 m 606 306 l 585 329 l 556 313 l 561 278 l 594 278 l 606 306 m 153 224 l 124 219 l 114 197 l 129 164 l 153 193 l 153 224 m 238 222 l 225 218 l 229 204 l 239 207 l 249 215 l 238 222 m 1006 219 l 943 211 l 946 154 l 989 132 l 1025 165 l 1006 219 m 896 215 l 876 211 l 876 194 l 890 185 l 899 199 l 896 215 m 886 121 l 869 128 l 858 121 l 856 101 l 875 106 l 886 121 m 1139 96 l 1104 125 l 1050 128 l 1061 71 l 1106 63 l 1139 96 m 1274 69 l 1264 68 l 1265 56 l 1278 51 l 1283 64 l 1274 69 m 685 54 l 674 68 l 660 60 l 661 44 l 675 43 l 685 54 m 571 1090 l 582 1138 l 626 1158 l 638 1194 l 671 1214 l 676 1250 l 711 1260 l 768 1283 l 828 1271 l 856 1288 l 883 1271 l 917 1297 l 950 1271 l 983 1286 l 1017 1271 l 1025 1239 l 1003 1214 l 978 1169 l 931 1156 l 911 1108 l 863 1099 l 842 1053 l 792 1050 l 758 1036 l 724 1049 l 693 1035 l 664 1049 l 617 1024 l 571 1090 m 953 1213 l 936 1236 l 904 1231 l 907 1196 l 938 1190 l 953 1213 m 731 1210 l 717 1217 l 706 1207 l 711 1193 l 732 1188 l 731 1210 m 765 1129 l 719 1143 l 688 1114 l 707 1074 l 750 1083 l 765 1129 z "},"B":{"ha":1019,"x_min":54,"x_max":990,"o":"m 104 110 l 68 140 l 104 171 l 65 224 l 104 275 l 63 333 l 104 392 l 72 439 l 104 486 l 54 519 l 104 553 l 72 611 l 104 669 l 67 703 l 104 735 l 68 785 l 104 835 l 64 863 l 104 890 l 106 933 l 147 944 l 194 990 l 242 944 l 292 976 l 342 944 l 389 976 l 436 944 l 494 983 l 553 944 l 604 993 l 653 942 l 692 978 l 719 932 l 756 957 l 774 917 l 821 925 l 843 882 l 897 899 l 883 843 l 950 808 l 928 736 l 957 685 l 925 636 l 926 571 l 864 550 l 890 508 l 857 472 l 907 465 l 918 415 l 964 386 l 950 333 l 990 275 l 943 222 l 972 182 l 924 171 l 932 111 l 874 106 l 850 38 l 781 54 l 757 11 l 717 38 l 683 -15 l 639 29 l 578 -10 l 517 28 l 471 -25 l 424 28 l 376 -14 l 329 28 l 296 -25 l 263 28 l 225 -10 l 186 28 l 150 -11 l 104 110 m 504 929 l 489 935 l 478 929 l 479 913 l 494 915 l 504 929 m 251 926 l 231 931 l 232 910 l 246 897 l 260 913 l 251 926 m 674 906 l 660 910 l 647 903 l 654 888 l 665 894 l 674 906 m 390 885 l 336 869 l 339 797 l 401 815 l 435 854 l 390 885 m 864 839 l 849 832 l 846 810 l 868 806 l 879 825 l 864 839 m 319 764 l 225 782 l 167 719 l 222 661 l 299 671 l 319 764 m 714 760 l 686 778 l 663 764 l 660 732 l 700 719 l 714 760 m 418 579 l 446 604 l 474 579 l 501 606 l 529 579 l 551 608 l 585 592 l 585 628 l 619 636 l 604 664 l 622 692 l 594 707 l 596 740 l 563 728 l 546 761 l 518 743 l 490 761 l 463 742 l 435 761 l 424 732 l 396 744 l 418 717 l 396 689 l 422 663 l 396 635 l 418 607 l 418 579 m 371 665 l 358 667 l 351 661 l 356 651 l 364 654 l 371 665 m 821 601 l 736 657 l 674 586 l 697 497 l 793 508 l 821 601 m 663 642 l 650 649 l 636 647 l 640 633 l 653 631 l 663 642 m 354 625 l 329 622 l 324 599 l 344 592 l 365 601 l 354 625 m 510 572 l 499 564 l 499 551 l 511 549 l 521 560 l 510 572 m 579 490 l 542 510 l 524 475 l 538 439 l 582 447 l 579 490 m 443 507 l 413 499 l 414 461 l 457 446 l 475 488 l 443 507 m 274 490 l 263 501 l 247 493 l 254 481 l 268 476 l 274 490 m 718 451 l 692 453 l 696 425 l 718 417 l 742 435 l 718 451 m 292 422 l 258 422 l 251 390 l 275 371 l 300 390 l 292 422 m 867 392 l 842 415 l 797 406 l 808 356 l 854 354 l 867 392 m 768 403 l 756 407 l 750 399 l 753 389 l 763 392 l 768 403 m 422 211 l 450 232 l 476 211 l 504 233 l 531 211 l 556 240 l 586 217 l 599 246 l 629 253 l 618 285 l 644 307 l 621 329 l 629 361 l 592 360 l 586 397 l 556 376 l 531 403 l 504 378 l 476 403 l 450 383 l 422 403 l 422 376 l 396 375 l 410 349 l 396 321 l 417 293 l 396 265 l 415 239 l 422 211 m 933 301 l 917 315 l 907 294 l 919 282 l 933 288 l 933 301 m 842 285 l 804 263 l 814 222 l 854 218 l 871 254 l 842 285 m 181 243 l 140 238 l 118 183 l 176 181 l 210 211 l 181 243 m 674 175 l 624 200 l 588 169 l 596 117 l 642 136 l 674 175 m 535 110 l 492 156 l 443 126 l 440 68 l 497 68 l 535 110 m 751 117 l 728 118 l 710 103 l 728 90 l 751 88 l 751 117 z "},"C":{"ha":1018,"x_min":32,"x_max":996,"o":"m 428 18 l 369 -6 l 325 39 l 267 8 l 247 69 l 179 63 l 168 131 l 104 147 l 113 213 l 60 224 l 94 265 l 42 286 l 82 325 l 35 364 l 78 408 l 42 444 l 78 481 l 32 536 l 79 592 l 47 643 l 89 686 l 78 753 l 133 793 l 124 840 l 172 842 l 176 889 l 224 883 l 240 943 l 297 922 l 336 961 l 389 947 l 410 999 l 444 956 l 485 1004 l 528 958 l 564 992 l 594 954 l 636 986 l 667 943 l 729 963 l 768 911 l 813 933 l 817 883 l 878 896 l 878 835 l 924 824 l 921 775 l 978 760 l 947 708 l 969 657 l 921 628 l 876 596 l 832 628 l 796 581 l 760 628 l 713 592 l 664 628 l 615 653 l 613 707 l 556 676 l 549 740 l 501 696 l 446 728 l 450 672 l 394 664 l 439 607 l 383 560 l 417 500 l 383 442 l 424 392 l 388 340 l 438 315 l 424 261 l 474 281 l 493 231 l 519 281 l 549 232 l 564 276 l 608 263 l 594 315 l 647 329 l 690 369 l 743 344 l 782 392 l 821 344 l 868 389 l 915 344 l 953 351 l 956 314 l 996 251 l 931 217 l 942 147 l 874 133 l 851 74 l 788 71 l 756 17 l 694 36 l 671 -21 l 628 22 l 575 -19 l 428 18 m 721 886 l 676 893 l 649 857 l 679 815 l 726 838 l 721 886 m 529 871 l 496 856 l 492 814 l 538 804 l 576 844 l 529 871 m 813 844 l 797 851 l 779 840 l 793 826 l 810 826 l 813 844 m 342 782 l 231 804 l 200 689 l 290 613 l 346 699 l 342 782 m 796 738 l 767 743 l 750 726 l 757 699 l 786 707 l 796 738 m 886 742 l 864 740 l 851 726 l 864 706 l 882 719 l 886 742 m 175 515 l 146 504 l 144 471 l 178 467 l 185 492 l 175 515 m 344 492 l 335 488 l 328 478 l 339 475 l 347 479 l 344 492 m 275 440 l 249 435 l 242 408 l 268 397 l 299 414 l 275 440 m 811 290 l 775 299 l 757 257 l 796 229 l 832 258 l 811 290 m 376 218 l 332 244 l 293 231 l 294 185 l 346 167 l 376 218 m 856 218 l 835 214 l 828 199 l 843 188 l 854 199 l 856 218 m 211 218 l 193 210 l 199 189 l 226 178 l 228 207 l 211 218 m 657 164 l 588 189 l 547 132 l 585 78 l 660 83 l 657 164 z "},"Ć":{"ha":1018,"x_min":32,"x_max":996,"o":"m 428 18 l 369 -6 l 325 39 l 267 8 l 247 69 l 179 63 l 168 131 l 104 147 l 113 213 l 60 224 l 94 265 l 42 286 l 82 325 l 35 364 l 78 408 l 42 444 l 78 481 l 32 536 l 79 592 l 47 643 l 89 686 l 78 753 l 133 793 l 124 840 l 172 842 l 176 889 l 224 883 l 240 943 l 297 922 l 336 961 l 389 947 l 410 999 l 444 956 l 485 1004 l 528 958 l 564 992 l 594 954 l 636 986 l 667 943 l 729 963 l 768 911 l 813 933 l 817 883 l 878 896 l 878 835 l 924 824 l 921 775 l 978 760 l 947 708 l 969 657 l 921 628 l 876 596 l 832 628 l 796 581 l 760 628 l 713 592 l 664 628 l 615 653 l 613 707 l 556 676 l 549 740 l 501 696 l 446 728 l 450 672 l 394 664 l 439 607 l 383 560 l 417 500 l 383 442 l 424 392 l 388 340 l 438 315 l 424 261 l 474 281 l 493 231 l 519 281 l 549 232 l 564 276 l 608 263 l 594 315 l 647 329 l 690 369 l 743 344 l 782 392 l 821 344 l 868 389 l 915 344 l 953 351 l 956 314 l 996 251 l 931 217 l 942 147 l 874 133 l 851 74 l 788 71 l 756 17 l 694 36 l 671 -21 l 628 22 l 575 -19 l 428 18 m 721 886 l 676 893 l 649 857 l 679 815 l 726 838 l 721 886 m 529 871 l 496 856 l 492 814 l 538 804 l 576 844 l 529 871 m 813 844 l 797 851 l 779 840 l 793 826 l 810 826 l 813 844 m 342 782 l 231 804 l 200 689 l 290 613 l 346 699 l 342 782 m 796 738 l 767 743 l 750 726 l 757 699 l 786 707 l 796 738 m 886 742 l 864 740 l 851 726 l 864 706 l 882 719 l 886 742 m 175 515 l 146 504 l 144 471 l 178 467 l 185 492 l 175 515 m 344 492 l 335 488 l 328 478 l 339 475 l 347 479 l 344 492 m 275 440 l 249 435 l 242 408 l 268 397 l 299 414 l 275 440 m 811 290 l 775 299 l 757 257 l 796 229 l 832 258 l 811 290 m 376 218 l 332 244 l 293 231 l 294 185 l 346 167 l 376 218 m 856 218 l 835 214 l 828 199 l 843 188 l 854 199 l 856 218 m 211 218 l 193 210 l 199 189 l 226 178 l 228 207 l 211 218 m 657 164 l 588 189 l 547 132 l 585 78 l 660 83 l 657 164 m 382 1090 l 393 1138 l 438 1158 l 449 1194 l 482 1214 l 488 1250 l 522 1260 l 579 1283 l 639 1271 l 667 1288 l 694 1271 l 728 1297 l 761 1271 l 794 1286 l 828 1271 l 836 1239 l 814 1214 l 789 1169 l 742 1156 l 722 1108 l 674 1099 l 653 1053 l 603 1050 l 569 1036 l 535 1049 l 504 1035 l 475 1049 l 428 1024 l 382 1090 m 764 1213 l 747 1236 l 715 1231 l 718 1196 l 749 1190 l 764 1213 m 542 1210 l 528 1217 l 517 1207 l 522 1193 l 543 1188 l 542 1210 m 576 1129 l 531 1143 l 499 1114 l 518 1074 l 561 1083 l 576 1129 z "},"Č":{"ha":1018,"x_min":32,"x_max":996,"o":"m 428 18 l 369 -6 l 325 39 l 267 8 l 247 69 l 179 63 l 168 131 l 104 147 l 113 213 l 60 224 l 94 265 l 42 286 l 82 325 l 35 364 l 78 408 l 42 444 l 78 481 l 32 536 l 79 592 l 47 643 l 89 686 l 78 753 l 133 793 l 124 840 l 172 842 l 176 889 l 224 883 l 240 943 l 297 922 l 336 961 l 389 947 l 410 999 l 444 956 l 485 1004 l 528 958 l 564 992 l 594 954 l 636 986 l 667 943 l 729 963 l 768 911 l 813 933 l 817 883 l 878 896 l 878 835 l 924 824 l 921 775 l 978 760 l 947 708 l 969 657 l 921 628 l 876 596 l 832 628 l 796 581 l 760 628 l 713 592 l 664 628 l 615 653 l 613 707 l 556 676 l 549 740 l 501 696 l 446 728 l 450 672 l 394 664 l 439 607 l 383 560 l 417 500 l 383 442 l 424 392 l 388 340 l 438 315 l 424 261 l 474 281 l 493 231 l 519 281 l 549 232 l 564 276 l 608 263 l 594 315 l 647 329 l 690 369 l 743 344 l 782 392 l 821 344 l 868 389 l 915 344 l 953 351 l 956 314 l 996 251 l 931 217 l 942 147 l 874 133 l 851 74 l 788 71 l 756 17 l 694 36 l 671 -21 l 628 22 l 575 -19 l 428 18 m 721 886 l 676 893 l 649 857 l 679 815 l 726 838 l 721 886 m 529 871 l 496 856 l 492 814 l 538 804 l 576 844 l 529 871 m 813 844 l 797 851 l 779 840 l 793 826 l 810 826 l 813 844 m 342 782 l 231 804 l 200 689 l 290 613 l 346 699 l 342 782 m 796 738 l 767 743 l 750 726 l 757 699 l 786 707 l 796 738 m 886 742 l 864 740 l 851 726 l 864 706 l 882 719 l 886 742 m 175 515 l 146 504 l 144 471 l 178 467 l 185 492 l 175 515 m 344 492 l 335 488 l 328 478 l 339 475 l 347 479 l 344 492 m 275 440 l 249 435 l 242 408 l 268 397 l 299 414 l 275 440 m 811 290 l 775 299 l 757 257 l 796 229 l 832 258 l 811 290 m 376 218 l 332 244 l 293 231 l 294 185 l 346 167 l 376 218 m 856 218 l 835 214 l 828 199 l 843 188 l 854 199 l 856 218 m 211 218 l 193 210 l 199 189 l 226 178 l 228 207 l 211 218 m 657 164 l 588 189 l 547 132 l 585 78 l 660 83 l 657 164 m 378 1068 l 332 1082 l 322 1129 l 289 1136 l 285 1169 l 233 1189 l 218 1242 l 253 1271 l 299 1271 l 338 1285 l 374 1264 l 419 1269 l 444 1232 l 478 1239 l 494 1210 l 536 1236 l 585 1236 l 625 1276 l 681 1271 l 728 1289 l 775 1271 l 785 1233 l 764 1201 l 738 1147 l 686 1117 l 682 1083 l 650 1076 l 617 1038 l 567 1049 l 521 1022 l 474 1049 l 447 1031 l 378 1068 m 503 1175 l 450 1188 l 439 1142 l 460 1110 l 506 1122 l 503 1175 z "},"Ç":{"ha":1018,"x_min":32,"x_max":976,"o":"m 453 -267 l 454 -228 l 490 -240 l 518 -201 l 563 -217 l 526 -179 l 551 -132 l 506 -160 l 465 -126 l 425 -124 l 426 -83 l 394 -33 l 397 -32 l 399 24 l 344 3 l 306 46 l 246 21 l 225 83 l 149 88 l 140 163 l 81 200 l 92 269 l 32 307 l 79 358 l 42 407 l 78 458 l 42 511 l 78 564 l 43 601 l 81 636 l 60 681 l 96 713 l 88 776 l 143 807 l 132 867 l 192 860 l 225 914 l 288 918 l 315 978 l 372 944 l 410 981 l 456 956 l 511 999 l 567 957 l 625 989 l 672 942 l 736 965 l 772 908 l 833 915 l 853 857 l 896 861 l 892 817 l 936 799 l 932 750 l 971 731 l 950 692 l 956 640 l 904 628 l 851 592 l 799 628 l 754 597 l 710 628 l 663 593 l 646 650 l 600 661 l 613 707 l 547 686 l 510 743 l 482 685 l 424 711 l 450 660 l 392 654 l 419 619 l 385 593 l 428 564 l 383 536 l 435 492 l 383 447 l 438 417 l 385 385 l 440 347 l 401 293 l 475 303 l 493 231 l 539 281 l 604 258 l 592 331 l 665 344 l 701 389 l 738 344 l 774 376 l 810 344 l 863 374 l 915 344 l 958 335 l 953 292 l 976 247 l 932 222 l 946 172 l 896 160 l 885 110 l 836 101 l 810 38 l 742 51 l 721 4 l 678 31 l 658 -18 l 622 21 l 586 -1 l 544 14 l 519 -31 l 469 -44 l 524 -32 l 544 -83 l 607 -96 l 617 -158 l 664 -189 l 613 -214 l 624 -257 l 579 -258 l 554 -310 l 453 -267 m 518 908 l 507 918 l 486 918 l 490 896 l 508 897 l 518 908 m 408 819 l 389 822 l 390 801 l 406 790 l 424 806 l 408 819 m 796 786 l 782 789 l 781 774 l 794 767 l 808 776 l 796 786 m 881 788 l 836 785 l 833 735 l 876 735 l 915 757 l 881 788 m 731 742 l 678 774 l 664 711 l 692 656 l 732 701 l 731 742 m 301 690 l 254 731 l 197 713 l 186 636 l 269 622 l 301 690 m 892 693 l 879 686 l 872 671 l 889 664 l 897 678 l 892 693 m 192 522 l 151 519 l 122 475 l 174 439 l 207 483 l 192 522 m 371 300 l 299 396 l 219 331 l 203 243 l 290 239 l 371 300 m 701 301 l 676 304 l 665 283 l 682 256 l 706 276 l 701 301 m 590 147 l 517 136 l 519 69 l 572 33 l 603 86 l 590 147 z "},"Ĉ":{"ha":1018,"x_min":32,"x_max":996,"o":"m 428 18 l 369 -6 l 325 39 l 267 8 l 247 69 l 179 63 l 168 131 l 104 147 l 113 213 l 60 224 l 94 265 l 42 286 l 82 325 l 35 364 l 78 408 l 42 444 l 78 481 l 32 536 l 79 592 l 47 643 l 89 686 l 78 753 l 133 793 l 124 840 l 172 842 l 176 889 l 224 883 l 240 943 l 297 922 l 336 961 l 389 947 l 410 999 l 444 956 l 485 1004 l 528 958 l 564 992 l 594 954 l 636 986 l 667 943 l 729 963 l 768 911 l 813 933 l 817 883 l 878 896 l 878 835 l 924 824 l 921 775 l 978 760 l 947 708 l 969 657 l 921 628 l 876 596 l 832 628 l 796 581 l 760 628 l 713 592 l 664 628 l 615 653 l 613 707 l 556 676 l 549 740 l 501 696 l 446 728 l 450 672 l 394 664 l 439 607 l 383 560 l 417 500 l 383 442 l 424 392 l 388 340 l 438 315 l 424 261 l 474 281 l 493 231 l 519 281 l 549 232 l 564 276 l 608 263 l 594 315 l 647 329 l 690 369 l 743 344 l 782 392 l 821 344 l 868 389 l 915 344 l 953 351 l 956 314 l 996 251 l 931 217 l 942 147 l 874 133 l 851 74 l 788 71 l 756 17 l 694 36 l 671 -21 l 628 22 l 575 -19 l 428 18 m 721 886 l 676 893 l 649 857 l 679 815 l 726 838 l 721 886 m 529 871 l 496 856 l 492 814 l 538 804 l 576 844 l 529 871 m 813 844 l 797 851 l 779 840 l 793 826 l 810 826 l 813 844 m 342 782 l 231 804 l 200 689 l 290 613 l 346 699 l 342 782 m 796 738 l 767 743 l 750 726 l 757 699 l 786 707 l 796 738 m 886 742 l 864 740 l 851 726 l 864 706 l 882 719 l 886 742 m 175 515 l 146 504 l 144 471 l 178 467 l 185 492 l 175 515 m 344 492 l 335 488 l 328 478 l 339 475 l 347 479 l 344 492 m 275 440 l 249 435 l 242 408 l 268 397 l 299 414 l 275 440 m 811 290 l 775 299 l 757 257 l 796 229 l 832 258 l 811 290 m 376 218 l 332 244 l 293 231 l 294 185 l 346 167 l 376 218 m 856 218 l 835 214 l 828 199 l 843 188 l 854 199 l 856 218 m 211 218 l 193 210 l 199 189 l 226 178 l 228 207 l 211 218 m 657 164 l 588 189 l 547 132 l 585 78 l 660 83 l 657 164 m 247 1110 l 268 1158 l 314 1183 l 336 1239 l 392 1263 l 436 1288 l 485 1271 l 535 1289 l 583 1271 l 635 1257 l 672 1219 l 718 1199 l 735 1150 l 782 1126 l 801 1078 l 767 1046 l 721 1049 l 661 1043 l 610 1072 l 578 1068 l 560 1094 l 521 1086 l 485 1106 l 450 1075 l 404 1069 l 371 1036 l 326 1049 l 278 1024 l 247 1110 m 526 1222 l 517 1221 l 507 1213 l 518 1204 l 526 1211 l 526 1222 m 700 1088 l 694 1096 l 683 1093 l 686 1083 l 696 1075 l 700 1088 z "},"Ċ":{"ha":1018,"x_min":32,"x_max":996,"o":"m 428 18 l 369 -6 l 325 39 l 267 8 l 247 69 l 179 63 l 168 131 l 104 147 l 113 213 l 60 224 l 94 265 l 42 286 l 82 325 l 35 364 l 78 408 l 42 444 l 78 481 l 32 536 l 79 592 l 47 643 l 89 686 l 78 753 l 133 793 l 124 840 l 172 842 l 176 889 l 224 883 l 240 943 l 297 922 l 336 961 l 389 947 l 410 999 l 444 956 l 485 1004 l 528 958 l 564 992 l 594 954 l 636 986 l 667 943 l 729 963 l 768 911 l 813 933 l 817 883 l 878 896 l 878 835 l 924 824 l 921 775 l 978 760 l 947 708 l 969 657 l 921 628 l 876 596 l 832 628 l 796 581 l 760 628 l 713 592 l 664 628 l 615 653 l 613 707 l 556 676 l 549 740 l 501 696 l 446 728 l 450 672 l 394 664 l 439 607 l 383 560 l 417 500 l 383 442 l 424 392 l 388 340 l 438 315 l 424 261 l 474 281 l 493 231 l 519 281 l 549 232 l 564 276 l 608 263 l 594 315 l 647 329 l 690 369 l 743 344 l 782 392 l 821 344 l 868 389 l 915 344 l 953 351 l 956 314 l 996 251 l 931 217 l 942 147 l 874 133 l 851 74 l 788 71 l 756 17 l 694 36 l 671 -21 l 628 22 l 575 -19 l 428 18 m 721 886 l 676 893 l 649 857 l 679 815 l 726 838 l 721 886 m 529 871 l 496 856 l 492 814 l 538 804 l 576 844 l 529 871 m 813 844 l 797 851 l 779 840 l 793 826 l 810 826 l 813 844 m 342 782 l 231 804 l 200 689 l 290 613 l 346 699 l 342 782 m 796 738 l 767 743 l 750 726 l 757 699 l 786 707 l 796 738 m 886 742 l 864 740 l 851 726 l 864 706 l 882 719 l 886 742 m 175 515 l 146 504 l 144 471 l 178 467 l 185 492 l 175 515 m 344 492 l 335 488 l 328 478 l 339 475 l 347 479 l 344 492 m 275 440 l 249 435 l 242 408 l 268 397 l 299 414 l 275 440 m 811 290 l 775 299 l 757 257 l 796 229 l 832 258 l 811 290 m 376 218 l 332 244 l 293 231 l 294 185 l 346 167 l 376 218 m 856 218 l 835 214 l 828 199 l 843 188 l 854 199 l 856 218 m 211 218 l 193 210 l 199 189 l 226 178 l 228 207 l 211 218 m 657 164 l 588 189 l 547 132 l 585 78 l 660 83 l 657 164 m 396 1058 l 369 1103 l 390 1151 l 364 1204 l 390 1257 l 396 1288 l 426 1288 l 476 1313 l 526 1288 l 554 1303 l 582 1288 l 599 1274 l 572 1264 l 574 1231 l 610 1224 l 617 1254 l 603 1272 l 599 1274 l 600 1275 l 603 1272 l 617 1261 l 629 1218 l 650 1185 l 629 1151 l 654 1121 l 629 1090 l 610 1061 l 576 1049 l 538 1028 l 499 1049 l 457 1029 l 396 1058 m 556 1181 l 538 1172 l 533 1156 l 551 1142 l 574 1158 l 556 1181 z "},"D":{"ha":1028,"x_min":51,"x_max":997,"o":"m 104 43 l 74 96 l 104 149 l 75 188 l 104 226 l 75 254 l 104 281 l 65 333 l 104 386 l 68 425 l 104 464 l 51 497 l 104 531 l 76 569 l 104 608 l 64 647 l 104 686 l 72 721 l 104 757 l 76 799 l 104 840 l 67 882 l 104 924 l 129 983 l 181 944 l 214 986 l 247 944 l 281 993 l 314 944 l 364 990 l 414 944 l 450 975 l 486 944 l 529 988 l 569 942 l 628 983 l 668 926 l 725 951 l 753 896 l 800 917 l 806 865 l 864 872 l 864 814 l 910 808 l 900 764 l 950 754 l 926 708 l 975 663 l 950 600 l 996 571 l 951 538 l 988 499 l 951 458 l 997 418 l 950 379 l 988 322 l 935 281 l 936 218 l 888 179 l 908 125 l 851 136 l 856 83 l 804 99 l 767 38 l 697 50 l 649 -8 l 582 31 l 533 -17 l 482 28 l 447 -4 l 411 28 l 367 -10 l 322 28 l 282 -4 l 240 28 l 213 0 l 185 28 l 150 -25 l 104 43 m 414 917 l 376 876 l 382 824 l 444 815 l 464 878 l 414 917 m 272 810 l 185 797 l 164 713 l 240 675 l 328 722 l 272 810 m 743 768 l 688 803 l 615 767 l 656 689 l 732 700 l 743 768 m 428 243 l 456 265 l 482 243 l 508 276 l 536 244 l 556 275 l 589 263 l 583 308 l 629 301 l 622 335 l 650 354 l 631 383 l 654 410 l 642 439 l 656 467 l 639 496 l 656 524 l 628 551 l 653 581 l 625 604 l 644 636 l 615 650 l 618 685 l 574 671 l 572 717 l 542 704 l 518 729 l 490 701 l 463 729 l 435 710 l 407 729 l 415 704 l 396 685 l 415 657 l 396 629 l 422 603 l 396 575 l 411 547 l 396 519 l 413 492 l 396 464 l 417 436 l 396 408 l 421 381 l 396 354 l 414 326 l 396 299 l 419 271 l 428 243 m 825 688 l 811 679 l 808 667 l 821 656 l 835 671 l 825 688 m 392 663 l 378 665 l 374 656 l 375 644 l 386 651 l 392 663 m 735 617 l 700 633 l 682 607 l 692 583 l 725 578 l 735 617 m 288 574 l 269 581 l 258 563 l 272 547 l 288 557 l 288 574 m 785 526 l 763 519 l 776 500 l 794 497 l 801 515 l 785 526 m 246 419 l 143 386 l 186 296 l 272 247 l 292 344 l 246 419 m 753 404 l 696 390 l 704 339 l 747 306 l 776 356 l 753 404 m 857 276 l 819 249 l 803 196 l 858 200 l 888 235 l 857 276 m 715 222 l 700 224 l 699 210 l 708 201 l 725 207 l 715 222 m 582 192 l 567 196 l 553 192 l 558 175 l 576 172 l 582 192 m 272 132 l 254 153 l 229 143 l 231 115 l 257 110 l 272 132 m 467 108 l 440 89 l 436 57 l 468 58 l 501 82 l 467 108 m 564 94 l 551 101 l 542 92 l 546 79 l 557 82 l 564 94 z "},"Ð":{"ha":1064,"x_min":13,"x_max":1038,"o":"m 138 43 l 106 71 l 138 99 l 90 143 l 138 188 l 89 221 l 138 253 l 101 283 l 138 314 l 96 361 l 138 408 l 83 376 l 47 429 l 13 481 l 47 532 l 64 582 l 117 568 l 82 614 l 138 629 l 83 665 l 138 701 l 100 754 l 138 807 l 92 865 l 138 924 l 176 982 l 236 944 l 272 982 l 308 944 l 353 989 l 397 944 l 439 986 l 481 944 l 519 997 l 558 944 l 597 976 l 631 940 l 676 971 l 707 925 l 749 946 l 769 904 l 838 910 l 865 849 l 931 836 l 936 769 l 986 765 l 961 721 l 1014 675 l 985 613 l 1032 557 l 985 501 l 1013 461 l 985 422 l 1038 379 l 982 339 l 1004 300 l 969 272 l 985 231 l 944 211 l 943 140 l 875 125 l 860 71 l 804 79 l 788 38 l 747 56 l 708 -4 l 649 35 l 599 -22 l 543 28 l 515 -26 l 488 28 l 444 -7 l 400 28 l 356 -14 l 313 28 l 268 -14 l 224 28 l 186 -21 l 138 43 m 199 936 l 164 928 l 167 893 l 197 882 l 211 908 l 199 936 m 635 925 l 593 921 l 597 881 l 629 865 l 657 893 l 635 925 m 447 860 l 433 858 l 435 846 l 446 838 l 456 849 l 447 860 m 283 825 l 238 839 l 213 797 l 240 753 l 288 778 l 283 825 m 601 801 l 579 822 l 542 811 l 551 768 l 590 774 l 601 801 m 842 786 l 836 792 l 822 790 l 826 776 l 839 776 l 842 786 m 367 735 l 339 754 l 315 722 l 338 686 l 378 701 l 367 735 m 461 243 l 489 265 l 515 243 l 542 264 l 569 244 l 590 271 l 622 263 l 631 292 l 660 303 l 651 335 l 678 356 l 664 383 l 679 411 l 656 439 l 679 467 l 658 496 l 679 524 l 664 551 l 679 579 l 651 604 l 675 635 l 643 651 l 651 685 l 617 686 l 607 718 l 575 701 l 553 729 l 526 715 l 499 729 l 472 714 l 446 729 l 454 703 l 429 690 l 456 663 l 429 635 l 451 607 l 429 579 l 457 596 l 474 568 l 501 585 l 529 568 l 557 551 l 544 521 l 568 493 l 544 467 l 563 438 l 542 411 l 514 385 l 485 408 l 457 386 l 429 408 l 454 381 l 429 353 l 449 326 l 429 299 l 450 271 l 461 243 m 858 669 l 814 704 l 785 657 l 807 618 l 858 618 l 858 669 m 194 654 l 161 646 l 169 604 l 215 594 l 232 642 l 194 654 m 340 615 l 306 617 l 286 594 l 303 565 l 336 578 l 340 615 m 172 526 l 151 524 l 146 503 l 165 497 l 175 510 l 172 526 m 853 471 l 744 453 l 760 329 l 868 332 l 926 408 l 853 471 m 232 458 l 193 446 l 200 404 l 235 403 l 272 431 l 232 458 m 406 378 l 336 376 l 304 333 l 342 299 l 407 297 l 406 378 m 233 342 l 204 319 l 217 294 l 239 292 l 251 313 l 233 342 m 801 207 l 788 214 l 778 199 l 789 186 l 803 194 l 801 207 m 622 194 l 614 201 l 603 194 l 611 185 l 622 185 l 622 194 m 608 147 l 575 156 l 561 126 l 576 99 l 608 113 l 608 147 m 375 146 l 331 143 l 324 108 l 346 83 l 371 107 l 375 146 m 506 71 l 485 75 l 468 61 l 482 42 l 507 46 l 506 71 z "},"Ď":{"ha":1028,"x_min":51,"x_max":997,"o":"m 104 43 l 74 96 l 104 149 l 75 188 l 104 226 l 75 254 l 104 281 l 65 333 l 104 386 l 68 425 l 104 464 l 51 497 l 104 531 l 76 569 l 104 608 l 64 647 l 104 686 l 72 721 l 104 757 l 76 799 l 104 840 l 67 882 l 104 924 l 129 983 l 181 944 l 214 986 l 247 944 l 281 993 l 314 944 l 364 990 l 414 944 l 450 975 l 486 944 l 529 988 l 569 942 l 628 983 l 668 926 l 725 951 l 753 896 l 800 917 l 806 865 l 864 872 l 864 814 l 910 808 l 900 764 l 950 754 l 926 708 l 975 663 l 950 600 l 996 571 l 951 538 l 988 499 l 951 458 l 997 418 l 950 379 l 988 322 l 935 281 l 936 218 l 888 179 l 908 125 l 851 136 l 856 83 l 804 99 l 767 38 l 697 50 l 649 -8 l 582 31 l 533 -17 l 482 28 l 447 -4 l 411 28 l 367 -10 l 322 28 l 282 -4 l 240 28 l 213 0 l 185 28 l 150 -25 l 104 43 m 414 917 l 376 876 l 382 824 l 444 815 l 464 878 l 414 917 m 272 810 l 185 797 l 164 713 l 240 675 l 328 722 l 272 810 m 743 768 l 688 803 l 615 767 l 656 689 l 732 700 l 743 768 m 428 243 l 456 265 l 482 243 l 508 276 l 536 244 l 556 275 l 589 263 l 583 308 l 629 301 l 622 335 l 650 354 l 631 383 l 654 410 l 642 439 l 656 467 l 639 496 l 656 524 l 628 551 l 653 581 l 625 604 l 644 636 l 615 650 l 618 685 l 574 671 l 572 717 l 542 704 l 518 729 l 490 701 l 463 729 l 435 710 l 407 729 l 415 704 l 396 685 l 415 657 l 396 629 l 422 603 l 396 575 l 411 547 l 396 519 l 413 492 l 396 464 l 417 436 l 396 408 l 421 381 l 396 354 l 414 326 l 396 299 l 419 271 l 428 243 m 825 688 l 811 679 l 808 667 l 821 656 l 835 671 l 825 688 m 392 663 l 378 665 l 374 656 l 375 644 l 386 651 l 392 663 m 735 617 l 700 633 l 682 607 l 692 583 l 725 578 l 735 617 m 288 574 l 269 581 l 258 563 l 272 547 l 288 557 l 288 574 m 785 526 l 763 519 l 776 500 l 794 497 l 801 515 l 785 526 m 246 419 l 143 386 l 186 296 l 272 247 l 292 344 l 246 419 m 753 404 l 696 390 l 704 339 l 747 306 l 776 356 l 753 404 m 857 276 l 819 249 l 803 196 l 858 200 l 888 235 l 857 276 m 715 222 l 700 224 l 699 210 l 708 201 l 725 207 l 715 222 m 582 192 l 567 196 l 553 192 l 558 175 l 576 172 l 582 192 m 272 132 l 254 153 l 229 143 l 231 115 l 257 110 l 272 132 m 467 108 l 440 89 l 436 57 l 468 58 l 501 82 l 467 108 m 564 94 l 551 101 l 542 92 l 546 79 l 557 82 l 564 94 m 374 1068 l 328 1082 l 318 1129 l 285 1136 l 281 1169 l 229 1189 l 214 1242 l 249 1271 l 294 1271 l 333 1285 l 369 1264 l 415 1269 l 440 1232 l 474 1239 l 490 1210 l 532 1236 l 581 1236 l 621 1276 l 676 1271 l 724 1289 l 771 1271 l 781 1233 l 760 1201 l 733 1147 l 682 1117 l 678 1083 l 646 1076 l 613 1038 l 563 1049 l 517 1022 l 469 1049 l 443 1031 l 374 1068 m 499 1175 l 446 1188 l 435 1142 l 456 1110 l 501 1122 l 499 1175 z "},"Đ":{"ha":1061,"x_min":-3,"x_max":1039,"o":"m 138 99 l 85 154 l 138 210 l 88 246 l 138 282 l 103 332 l 138 382 l 99 369 l 106 410 l 65 404 l 47 442 l -3 479 l 47 517 l 46 557 l 83 569 l 90 615 l 138 619 l 110 669 l 138 719 l 86 754 l 138 790 l 99 832 l 138 874 l 129 924 l 175 944 l 208 992 l 242 944 l 278 985 l 314 944 l 367 978 l 419 944 l 472 981 l 525 944 l 576 976 l 625 940 l 669 986 l 697 928 l 757 947 l 792 893 l 844 917 l 849 858 l 903 875 l 894 818 l 953 821 l 933 764 l 997 739 l 971 678 l 1029 650 l 982 606 l 1028 574 l 985 538 l 1039 490 l 985 442 l 1011 401 l 982 363 l 1013 299 l 958 254 l 975 199 l 919 181 l 933 115 l 868 122 l 851 76 l 803 81 l 785 26 l 736 53 l 704 17 l 660 36 l 622 -17 l 576 28 l 546 -19 l 515 28 l 461 -22 l 406 28 l 367 -3 l 329 28 l 279 -15 l 229 28 l 189 -3 l 138 99 m 629 911 l 592 913 l 579 878 l 608 847 l 635 878 l 629 911 m 544 886 l 529 901 l 508 896 l 500 868 l 529 869 l 544 886 m 358 767 l 318 826 l 239 803 l 232 703 l 335 683 l 358 767 m 510 793 l 483 788 l 476 764 l 499 756 l 528 765 l 510 793 m 708 753 l 694 761 l 686 754 l 688 744 l 699 740 l 708 753 m 461 243 l 489 260 l 515 243 l 542 264 l 569 244 l 589 274 l 622 263 l 625 300 l 663 301 l 657 333 l 683 354 l 661 385 l 688 410 l 675 439 l 689 467 l 669 496 l 689 524 l 669 551 l 686 581 l 668 606 l 679 636 l 644 650 l 653 686 l 619 688 l 608 718 l 576 701 l 553 729 l 526 704 l 499 729 l 472 710 l 446 729 l 456 701 l 429 690 l 443 663 l 429 636 l 451 608 l 429 581 l 457 599 l 474 569 l 501 594 l 529 569 l 550 550 l 544 522 l 564 494 l 544 468 l 558 439 l 542 413 l 514 389 l 485 410 l 457 394 l 429 410 l 454 382 l 429 354 l 450 326 l 429 299 l 444 271 l 461 243 m 904 653 l 851 721 l 790 674 l 792 613 l 860 581 l 904 653 m 182 669 l 172 679 l 157 675 l 158 657 l 178 654 l 182 669 m 404 579 l 381 614 l 342 600 l 336 554 l 381 546 l 404 579 m 256 544 l 210 515 l 210 463 l 265 446 l 296 500 l 256 544 m 435 535 l 424 533 l 425 524 l 432 518 l 443 525 l 435 535 m 799 501 l 767 518 l 757 485 l 776 467 l 796 476 l 799 501 m 918 451 l 893 490 l 860 463 l 851 422 l 893 422 l 918 451 m 917 368 l 896 375 l 882 360 l 889 331 l 914 347 l 917 368 m 347 361 l 321 353 l 311 336 l 326 311 l 353 331 l 347 361 m 347 288 l 300 267 l 297 213 l 346 218 l 386 249 l 347 288 m 219 240 l 182 201 l 196 161 l 249 138 l 263 200 l 219 240 m 825 231 l 804 235 l 800 211 l 818 199 l 831 214 l 825 231 m 726 224 l 715 231 l 707 226 l 708 218 l 719 213 l 726 224 m 640 190 l 608 200 l 582 185 l 599 158 l 629 154 l 640 190 m 468 189 l 403 175 l 392 114 l 446 76 l 486 126 l 468 189 z "},"E":{"ha":926,"x_min":50,"x_max":892,"o":"m 104 43 l 57 90 l 104 138 l 65 174 l 104 210 l 51 263 l 104 314 l 51 353 l 104 392 l 53 439 l 104 486 l 53 519 l 104 553 l 65 611 l 104 669 l 50 708 l 104 746 l 58 796 l 104 846 l 68 874 l 104 901 l 135 942 l 186 944 l 231 996 l 274 944 l 310 986 l 346 944 l 376 990 l 407 944 l 454 993 l 500 944 l 533 978 l 567 944 l 603 989 l 639 944 l 689 974 l 738 944 l 779 996 l 821 944 l 874 900 l 836 842 l 889 799 l 836 756 l 804 704 l 749 729 l 696 696 l 643 729 l 604 692 l 565 729 l 507 699 l 449 729 l 435 678 l 382 679 l 429 640 l 399 586 l 451 624 l 503 586 l 550 606 l 597 586 l 647 615 l 696 586 l 746 606 l 796 586 l 828 546 l 806 500 l 836 456 l 806 413 l 783 372 l 740 386 l 713 360 l 686 386 l 650 360 l 614 386 l 586 349 l 558 386 l 514 350 l 471 386 l 431 349 l 382 375 l 432 342 l 382 310 l 417 278 l 421 281 l 460 243 l 501 267 l 543 243 l 596 264 l 649 243 l 688 278 l 726 243 l 779 271 l 832 243 l 886 222 l 847 179 l 892 140 l 847 103 l 883 65 l 844 31 l 789 0 l 732 28 l 686 -1 l 639 28 l 600 -3 l 561 28 l 517 -24 l 474 28 l 429 -25 l 385 28 l 338 -19 l 290 28 l 246 -14 l 203 28 l 158 -1 l 104 43 m 657 915 l 650 929 l 638 921 l 639 910 l 650 901 l 657 915 m 269 899 l 235 908 l 214 882 l 228 844 l 274 854 l 269 899 m 736 896 l 711 892 l 704 864 l 735 840 l 763 872 l 736 896 m 428 889 l 414 894 l 401 892 l 407 878 l 418 879 l 428 889 m 399 825 l 363 825 l 350 790 l 381 774 l 417 788 l 399 825 m 276 783 l 221 785 l 208 728 l 257 696 l 289 736 l 276 783 m 186 644 l 150 636 l 146 600 l 176 596 l 193 613 l 186 644 m 376 539 l 317 622 l 236 561 l 247 476 l 325 475 l 376 539 m 526 511 l 503 532 l 475 514 l 493 490 l 518 482 l 526 511 m 610 468 l 590 456 l 588 436 l 608 431 l 619 447 l 610 468 m 690 428 l 679 428 l 671 418 l 682 408 l 694 415 l 690 428 m 335 378 l 299 392 l 275 364 l 297 343 l 319 349 l 335 378 m 326 260 l 290 288 l 242 283 l 253 233 l 296 221 l 326 260 m 456 218 l 440 229 l 428 224 l 424 207 l 443 204 l 456 218 m 238 201 l 200 208 l 165 189 l 194 164 l 221 168 l 238 201 m 651 117 l 632 101 l 636 83 l 658 72 l 665 97 l 651 117 m 333 101 l 318 92 l 314 69 l 336 72 l 347 88 l 333 101 z "},"É":{"ha":926,"x_min":50,"x_max":892,"o":"m 104 43 l 57 90 l 104 138 l 65 174 l 104 210 l 51 263 l 104 314 l 51 353 l 104 392 l 53 439 l 104 486 l 53 519 l 104 553 l 65 611 l 104 669 l 50 708 l 104 746 l 58 796 l 104 846 l 68 874 l 104 901 l 135 942 l 186 944 l 231 996 l 274 944 l 310 986 l 346 944 l 376 990 l 407 944 l 454 993 l 500 944 l 533 978 l 567 944 l 603 989 l 639 944 l 689 974 l 738 944 l 779 996 l 821 944 l 874 900 l 836 842 l 889 799 l 836 756 l 804 704 l 749 729 l 696 696 l 643 729 l 604 692 l 565 729 l 507 699 l 449 729 l 435 678 l 382 679 l 429 640 l 399 586 l 451 624 l 503 586 l 550 606 l 597 586 l 647 615 l 696 586 l 746 606 l 796 586 l 828 546 l 806 500 l 836 456 l 806 413 l 783 372 l 740 386 l 713 360 l 686 386 l 650 360 l 614 386 l 586 349 l 558 386 l 514 350 l 471 386 l 431 349 l 382 375 l 432 342 l 382 310 l 417 278 l 421 281 l 460 243 l 501 267 l 543 243 l 596 264 l 649 243 l 688 278 l 726 243 l 779 271 l 832 243 l 886 222 l 847 179 l 892 140 l 847 103 l 883 65 l 844 31 l 789 0 l 732 28 l 686 -1 l 639 28 l 600 -3 l 561 28 l 517 -24 l 474 28 l 429 -25 l 385 28 l 338 -19 l 290 28 l 246 -14 l 203 28 l 158 -1 l 104 43 m 657 915 l 650 929 l 638 921 l 639 910 l 650 901 l 657 915 m 269 899 l 235 908 l 214 882 l 228 844 l 274 854 l 269 899 m 736 896 l 711 892 l 704 864 l 735 840 l 763 872 l 736 896 m 428 889 l 414 894 l 401 892 l 407 878 l 418 879 l 428 889 m 399 825 l 363 825 l 350 790 l 381 774 l 417 788 l 399 825 m 276 783 l 221 785 l 208 728 l 257 696 l 289 736 l 276 783 m 186 644 l 150 636 l 146 600 l 176 596 l 193 613 l 186 644 m 376 539 l 317 622 l 236 561 l 247 476 l 325 475 l 376 539 m 526 511 l 503 532 l 475 514 l 493 490 l 518 482 l 526 511 m 610 468 l 590 456 l 588 436 l 608 431 l 619 447 l 610 468 m 690 428 l 679 428 l 671 418 l 682 408 l 694 415 l 690 428 m 335 378 l 299 392 l 275 364 l 297 343 l 319 349 l 335 378 m 326 260 l 290 288 l 242 283 l 253 233 l 296 221 l 326 260 m 456 218 l 440 229 l 428 224 l 424 207 l 443 204 l 456 218 m 238 201 l 200 208 l 165 189 l 194 164 l 221 168 l 238 201 m 651 117 l 632 101 l 636 83 l 658 72 l 665 97 l 651 117 m 333 101 l 318 92 l 314 69 l 336 72 l 347 88 l 333 101 m 336 1090 l 347 1138 l 392 1158 l 403 1194 l 436 1214 l 442 1250 l 476 1260 l 533 1283 l 593 1271 l 621 1288 l 649 1271 l 682 1297 l 715 1271 l 749 1286 l 782 1271 l 790 1239 l 768 1214 l 743 1169 l 696 1156 l 676 1108 l 628 1099 l 607 1053 l 557 1050 l 524 1036 l 489 1049 l 458 1035 l 429 1049 l 382 1024 l 336 1090 m 718 1213 l 701 1236 l 669 1231 l 672 1196 l 703 1190 l 718 1213 m 496 1210 l 482 1217 l 471 1207 l 476 1193 l 497 1188 l 496 1210 m 531 1129 l 485 1143 l 453 1114 l 472 1074 l 515 1083 l 531 1129 z "},"Ĕ":{"ha":926,"x_min":50,"x_max":892,"o":"m 104 43 l 57 90 l 104 138 l 65 174 l 104 210 l 51 263 l 104 314 l 51 353 l 104 392 l 53 439 l 104 486 l 53 519 l 104 553 l 65 611 l 104 669 l 50 708 l 104 746 l 58 796 l 104 846 l 68 874 l 104 901 l 135 942 l 186 944 l 231 996 l 274 944 l 310 986 l 346 944 l 376 990 l 407 944 l 454 993 l 500 944 l 533 978 l 567 944 l 603 989 l 639 944 l 689 974 l 738 944 l 779 996 l 821 944 l 874 900 l 836 842 l 889 799 l 836 756 l 804 704 l 749 729 l 696 696 l 643 729 l 604 692 l 565 729 l 507 699 l 449 729 l 435 678 l 382 679 l 429 640 l 399 586 l 451 624 l 503 586 l 550 606 l 597 586 l 647 615 l 696 586 l 746 606 l 796 586 l 828 546 l 806 500 l 836 456 l 806 413 l 783 372 l 740 386 l 713 360 l 686 386 l 650 360 l 614 386 l 586 349 l 558 386 l 514 350 l 471 386 l 431 349 l 382 375 l 432 342 l 382 310 l 417 278 l 421 281 l 460 243 l 501 267 l 543 243 l 596 264 l 649 243 l 688 278 l 726 243 l 779 271 l 832 243 l 886 222 l 847 179 l 892 140 l 847 103 l 883 65 l 844 31 l 789 0 l 732 28 l 686 -1 l 639 28 l 600 -3 l 561 28 l 517 -24 l 474 28 l 429 -25 l 385 28 l 338 -19 l 290 28 l 246 -14 l 203 28 l 158 -1 l 104 43 m 657 915 l 650 929 l 638 921 l 639 910 l 650 901 l 657 915 m 269 899 l 235 908 l 214 882 l 228 844 l 274 854 l 269 899 m 736 896 l 711 892 l 704 864 l 735 840 l 763 872 l 736 896 m 428 889 l 414 894 l 401 892 l 407 878 l 418 879 l 428 889 m 399 825 l 363 825 l 350 790 l 381 774 l 417 788 l 399 825 m 276 783 l 221 785 l 208 728 l 257 696 l 289 736 l 276 783 m 186 644 l 150 636 l 146 600 l 176 596 l 193 613 l 186 644 m 376 539 l 317 622 l 236 561 l 247 476 l 325 475 l 376 539 m 526 511 l 503 532 l 475 514 l 493 490 l 518 482 l 526 511 m 610 468 l 590 456 l 588 436 l 608 431 l 619 447 l 610 468 m 690 428 l 679 428 l 671 418 l 682 408 l 694 415 l 690 428 m 335 378 l 299 392 l 275 364 l 297 343 l 319 349 l 335 378 m 326 260 l 290 288 l 242 283 l 253 233 l 296 221 l 326 260 m 456 218 l 440 229 l 428 224 l 424 207 l 443 204 l 456 218 m 238 201 l 200 208 l 165 189 l 194 164 l 221 168 l 238 201 m 651 117 l 632 101 l 636 83 l 658 72 l 665 97 l 651 117 m 333 101 l 318 92 l 314 69 l 336 72 l 347 88 l 333 101 m 375 1053 l 336 1049 l 313 1079 l 272 1079 l 267 1119 l 232 1140 l 235 1179 l 221 1222 l 233 1267 l 290 1288 l 349 1271 l 381 1265 l 401 1240 l 442 1214 l 458 1168 l 479 1203 l 519 1207 l 526 1246 l 557 1271 l 615 1285 l 672 1271 l 701 1244 l 699 1207 l 697 1156 l 661 1119 l 624 1076 l 569 1057 l 519 1028 l 375 1053 m 343 1263 l 333 1260 l 332 1251 l 342 1242 l 351 1254 l 343 1263 m 606 1211 l 599 1228 l 583 1217 l 586 1201 l 603 1193 l 606 1211 m 313 1138 l 297 1158 l 276 1144 l 274 1114 l 304 1118 l 313 1138 z "},"Ě":{"ha":926,"x_min":50,"x_max":892,"o":"m 104 43 l 57 90 l 104 138 l 65 174 l 104 210 l 51 263 l 104 314 l 51 353 l 104 392 l 53 439 l 104 486 l 53 519 l 104 553 l 65 611 l 104 669 l 50 708 l 104 746 l 58 796 l 104 846 l 68 874 l 104 901 l 135 942 l 186 944 l 231 996 l 274 944 l 310 986 l 346 944 l 376 990 l 407 944 l 454 993 l 500 944 l 533 978 l 567 944 l 603 989 l 639 944 l 689 974 l 738 944 l 779 996 l 821 944 l 874 900 l 836 842 l 889 799 l 836 756 l 804 704 l 749 729 l 696 696 l 643 729 l 604 692 l 565 729 l 507 699 l 449 729 l 435 678 l 382 679 l 429 640 l 399 586 l 451 624 l 503 586 l 550 606 l 597 586 l 647 615 l 696 586 l 746 606 l 796 586 l 828 546 l 806 500 l 836 456 l 806 413 l 783 372 l 740 386 l 713 360 l 686 386 l 650 360 l 614 386 l 586 349 l 558 386 l 514 350 l 471 386 l 431 349 l 382 375 l 432 342 l 382 310 l 417 278 l 421 281 l 460 243 l 501 267 l 543 243 l 596 264 l 649 243 l 688 278 l 726 243 l 779 271 l 832 243 l 886 222 l 847 179 l 892 140 l 847 103 l 883 65 l 844 31 l 789 0 l 732 28 l 686 -1 l 639 28 l 600 -3 l 561 28 l 517 -24 l 474 28 l 429 -25 l 385 28 l 338 -19 l 290 28 l 246 -14 l 203 28 l 158 -1 l 104 43 m 657 915 l 650 929 l 638 921 l 639 910 l 650 901 l 657 915 m 269 899 l 235 908 l 214 882 l 228 844 l 274 854 l 269 899 m 736 896 l 711 892 l 704 864 l 735 840 l 763 872 l 736 896 m 428 889 l 414 894 l 401 892 l 407 878 l 418 879 l 428 889 m 399 825 l 363 825 l 350 790 l 381 774 l 417 788 l 399 825 m 276 783 l 221 785 l 208 728 l 257 696 l 289 736 l 276 783 m 186 644 l 150 636 l 146 600 l 176 596 l 193 613 l 186 644 m 376 539 l 317 622 l 236 561 l 247 476 l 325 475 l 376 539 m 526 511 l 503 532 l 475 514 l 493 490 l 518 482 l 526 511 m 610 468 l 590 456 l 588 436 l 608 431 l 619 447 l 610 468 m 690 428 l 679 428 l 671 418 l 682 408 l 694 415 l 690 428 m 335 378 l 299 392 l 275 364 l 297 343 l 319 349 l 335 378 m 326 260 l 290 288 l 242 283 l 253 233 l 296 221 l 326 260 m 456 218 l 440 229 l 428 224 l 424 207 l 443 204 l 456 218 m 238 201 l 200 208 l 165 189 l 194 164 l 221 168 l 238 201 m 651 117 l 632 101 l 636 83 l 658 72 l 665 97 l 651 117 m 333 101 l 318 92 l 314 69 l 336 72 l 347 88 l 333 101 m 332 1068 l 286 1082 l 276 1129 l 243 1136 l 239 1169 l 188 1189 l 172 1242 l 207 1271 l 253 1271 l 292 1285 l 328 1264 l 374 1269 l 399 1232 l 432 1239 l 449 1210 l 490 1236 l 539 1236 l 579 1276 l 635 1271 l 682 1289 l 729 1271 l 739 1233 l 718 1201 l 692 1147 l 640 1117 l 636 1083 l 604 1076 l 571 1038 l 521 1049 l 475 1022 l 428 1049 l 401 1031 l 332 1068 m 457 1175 l 404 1188 l 393 1142 l 414 1110 l 460 1122 l 457 1175 z "},"Ê":{"ha":926,"x_min":50,"x_max":892,"o":"m 104 43 l 57 90 l 104 138 l 65 174 l 104 210 l 51 263 l 104 314 l 51 353 l 104 392 l 53 439 l 104 486 l 53 519 l 104 553 l 65 611 l 104 669 l 50 708 l 104 746 l 58 796 l 104 846 l 68 874 l 104 901 l 135 942 l 186 944 l 231 996 l 274 944 l 310 986 l 346 944 l 376 990 l 407 944 l 454 993 l 500 944 l 533 978 l 567 944 l 603 989 l 639 944 l 689 974 l 738 944 l 779 996 l 821 944 l 874 900 l 836 842 l 889 799 l 836 756 l 804 704 l 749 729 l 696 696 l 643 729 l 604 692 l 565 729 l 507 699 l 449 729 l 435 678 l 382 679 l 429 640 l 399 586 l 451 624 l 503 586 l 550 606 l 597 586 l 647 615 l 696 586 l 746 606 l 796 586 l 828 546 l 806 500 l 836 456 l 806 413 l 783 372 l 740 386 l 713 360 l 686 386 l 650 360 l 614 386 l 586 349 l 558 386 l 514 350 l 471 386 l 431 349 l 382 375 l 432 342 l 382 310 l 417 278 l 421 281 l 460 243 l 501 267 l 543 243 l 596 264 l 649 243 l 688 278 l 726 243 l 779 271 l 832 243 l 886 222 l 847 179 l 892 140 l 847 103 l 883 65 l 844 31 l 789 0 l 732 28 l 686 -1 l 639 28 l 600 -3 l 561 28 l 517 -24 l 474 28 l 429 -25 l 385 28 l 338 -19 l 290 28 l 246 -14 l 203 28 l 158 -1 l 104 43 m 657 915 l 650 929 l 638 921 l 639 910 l 650 901 l 657 915 m 269 899 l 235 908 l 214 882 l 228 844 l 274 854 l 269 899 m 736 896 l 711 892 l 704 864 l 735 840 l 763 872 l 736 896 m 428 889 l 414 894 l 401 892 l 407 878 l 418 879 l 428 889 m 399 825 l 363 825 l 350 790 l 381 774 l 417 788 l 399 825 m 276 783 l 221 785 l 208 728 l 257 696 l 289 736 l 276 783 m 186 644 l 150 636 l 146 600 l 176 596 l 193 613 l 186 644 m 376 539 l 317 622 l 236 561 l 247 476 l 325 475 l 376 539 m 526 511 l 503 532 l 475 514 l 493 490 l 518 482 l 526 511 m 610 468 l 590 456 l 588 436 l 608 431 l 619 447 l 610 468 m 690 428 l 679 428 l 671 418 l 682 408 l 694 415 l 690 428 m 335 378 l 299 392 l 275 364 l 297 343 l 319 349 l 335 378 m 326 260 l 290 288 l 242 283 l 253 233 l 296 221 l 326 260 m 456 218 l 440 229 l 428 224 l 424 207 l 443 204 l 456 218 m 238 201 l 200 208 l 165 189 l 194 164 l 221 168 l 238 201 m 651 117 l 632 101 l 636 83 l 658 72 l 665 97 l 651 117 m 333 101 l 318 92 l 314 69 l 336 72 l 347 88 l 333 101 m 201 1110 l 222 1158 l 268 1183 l 290 1239 l 346 1263 l 390 1288 l 439 1271 l 489 1289 l 538 1271 l 589 1257 l 626 1219 l 672 1199 l 689 1150 l 736 1126 l 756 1078 l 721 1046 l 675 1049 l 615 1043 l 564 1072 l 532 1068 l 514 1094 l 475 1086 l 439 1106 l 404 1075 l 358 1069 l 325 1036 l 281 1049 l 232 1024 l 201 1110 m 481 1222 l 471 1221 l 461 1213 l 472 1204 l 481 1211 l 481 1222 m 654 1088 l 649 1096 l 638 1093 l 640 1083 l 650 1075 l 654 1088 z "},"Ë":{"ha":926,"x_min":50,"x_max":892,"o":"m 104 43 l 57 90 l 104 138 l 65 174 l 104 210 l 51 263 l 104 314 l 51 353 l 104 392 l 53 439 l 104 486 l 53 519 l 104 553 l 65 611 l 104 669 l 50 708 l 104 746 l 58 796 l 104 846 l 68 874 l 104 901 l 135 942 l 186 944 l 231 996 l 274 944 l 310 986 l 346 944 l 376 990 l 407 944 l 454 993 l 500 944 l 533 978 l 567 944 l 603 989 l 639 944 l 689 974 l 738 944 l 779 996 l 821 944 l 874 900 l 836 842 l 889 799 l 836 756 l 804 704 l 749 729 l 696 696 l 643 729 l 604 692 l 565 729 l 507 699 l 449 729 l 435 678 l 382 679 l 429 640 l 399 586 l 451 624 l 503 586 l 550 606 l 597 586 l 647 615 l 696 586 l 746 606 l 796 586 l 828 546 l 806 500 l 836 456 l 806 413 l 783 372 l 740 386 l 713 360 l 686 386 l 650 360 l 614 386 l 586 349 l 558 386 l 514 350 l 471 386 l 431 349 l 382 375 l 432 342 l 382 310 l 417 278 l 421 281 l 460 243 l 501 267 l 543 243 l 596 264 l 649 243 l 688 278 l 726 243 l 779 271 l 832 243 l 886 222 l 847 179 l 892 140 l 847 103 l 883 65 l 844 31 l 789 0 l 732 28 l 686 -1 l 639 28 l 600 -3 l 561 28 l 517 -24 l 474 28 l 429 -25 l 385 28 l 338 -19 l 290 28 l 246 -14 l 203 28 l 158 -1 l 104 43 m 657 915 l 650 929 l 638 921 l 639 910 l 650 901 l 657 915 m 269 899 l 235 908 l 214 882 l 228 844 l 274 854 l 269 899 m 736 896 l 711 892 l 704 864 l 735 840 l 763 872 l 736 896 m 428 889 l 414 894 l 401 892 l 407 878 l 418 879 l 428 889 m 399 825 l 363 825 l 350 790 l 381 774 l 417 788 l 399 825 m 276 783 l 221 785 l 208 728 l 257 696 l 289 736 l 276 783 m 186 644 l 150 636 l 146 600 l 176 596 l 193 613 l 186 644 m 376 539 l 317 622 l 236 561 l 247 476 l 325 475 l 376 539 m 526 511 l 503 532 l 475 514 l 493 490 l 518 482 l 526 511 m 610 468 l 590 456 l 588 436 l 608 431 l 619 447 l 610 468 m 690 428 l 679 428 l 671 418 l 682 408 l 694 415 l 690 428 m 335 378 l 299 392 l 275 364 l 297 343 l 319 349 l 335 378 m 326 260 l 290 288 l 242 283 l 253 233 l 296 221 l 326 260 m 456 218 l 440 229 l 428 224 l 424 207 l 443 204 l 456 218 m 238 201 l 200 208 l 165 189 l 194 164 l 221 168 l 238 201 m 651 117 l 632 101 l 636 83 l 658 72 l 665 97 l 651 117 m 333 101 l 318 92 l 314 69 l 336 72 l 347 88 l 333 101 m 549 1054 l 525 1078 l 539 1107 l 521 1149 l 539 1190 l 521 1218 l 539 1246 l 564 1278 l 603 1271 l 656 1293 l 708 1271 l 747 1257 l 761 1218 l 782 1171 l 761 1124 l 788 1096 l 761 1068 l 715 1043 l 664 1049 l 614 1024 l 549 1054 m 165 1079 l 146 1129 l 165 1179 l 142 1222 l 171 1261 l 221 1282 l 274 1271 l 307 1288 l 340 1271 l 376 1256 l 388 1218 l 401 1176 l 388 1135 l 399 1093 l 378 1054 l 333 1025 l 285 1049 l 238 1026 l 165 1079 m 322 1251 l 310 1247 l 308 1235 l 321 1224 l 333 1239 l 322 1251 m 701 1129 l 688 1118 l 688 1104 l 703 1101 l 714 1114 l 701 1129 m 260 1108 l 240 1110 l 232 1093 l 247 1081 l 265 1089 l 260 1108 z "},"Ė":{"ha":926,"x_min":50,"x_max":892,"o":"m 104 43 l 57 90 l 104 138 l 65 174 l 104 210 l 51 263 l 104 314 l 51 353 l 104 392 l 53 439 l 104 486 l 53 519 l 104 553 l 65 611 l 104 669 l 50 708 l 104 746 l 58 796 l 104 846 l 68 874 l 104 901 l 135 942 l 186 944 l 231 996 l 274 944 l 310 986 l 346 944 l 376 990 l 407 944 l 454 993 l 500 944 l 533 978 l 567 944 l 603 989 l 639 944 l 689 974 l 738 944 l 779 996 l 821 944 l 874 900 l 836 842 l 889 799 l 836 756 l 804 704 l 749 729 l 696 696 l 643 729 l 604 692 l 565 729 l 507 699 l 449 729 l 435 678 l 382 679 l 429 640 l 399 586 l 451 624 l 503 586 l 550 606 l 597 586 l 647 615 l 696 586 l 746 606 l 796 586 l 828 546 l 806 500 l 836 456 l 806 413 l 783 372 l 740 386 l 713 360 l 686 386 l 650 360 l 614 386 l 586 349 l 558 386 l 514 350 l 471 386 l 431 349 l 382 375 l 432 342 l 382 310 l 417 278 l 421 281 l 460 243 l 501 267 l 543 243 l 596 264 l 649 243 l 688 278 l 726 243 l 779 271 l 832 243 l 886 222 l 847 179 l 892 140 l 847 103 l 883 65 l 844 31 l 789 0 l 732 28 l 686 -1 l 639 28 l 600 -3 l 561 28 l 517 -24 l 474 28 l 429 -25 l 385 28 l 338 -19 l 290 28 l 246 -14 l 203 28 l 158 -1 l 104 43 m 657 915 l 650 929 l 638 921 l 639 910 l 650 901 l 657 915 m 269 899 l 235 908 l 214 882 l 228 844 l 274 854 l 269 899 m 736 896 l 711 892 l 704 864 l 735 840 l 763 872 l 736 896 m 428 889 l 414 894 l 401 892 l 407 878 l 418 879 l 428 889 m 399 825 l 363 825 l 350 790 l 381 774 l 417 788 l 399 825 m 276 783 l 221 785 l 208 728 l 257 696 l 289 736 l 276 783 m 186 644 l 150 636 l 146 600 l 176 596 l 193 613 l 186 644 m 376 539 l 317 622 l 236 561 l 247 476 l 325 475 l 376 539 m 526 511 l 503 532 l 475 514 l 493 490 l 518 482 l 526 511 m 610 468 l 590 456 l 588 436 l 608 431 l 619 447 l 610 468 m 690 428 l 679 428 l 671 418 l 682 408 l 694 415 l 690 428 m 335 378 l 299 392 l 275 364 l 297 343 l 319 349 l 335 378 m 326 260 l 290 288 l 242 283 l 253 233 l 296 221 l 326 260 m 456 218 l 440 229 l 428 224 l 424 207 l 443 204 l 456 218 m 238 201 l 200 208 l 165 189 l 194 164 l 221 168 l 238 201 m 651 117 l 632 101 l 636 83 l 658 72 l 665 97 l 651 117 m 333 101 l 318 92 l 314 69 l 336 72 l 347 88 l 333 101 m 350 1058 l 324 1103 l 344 1151 l 318 1204 l 344 1257 l 350 1288 l 381 1288 l 431 1313 l 481 1288 l 508 1303 l 536 1288 l 553 1274 l 526 1264 l 528 1231 l 564 1224 l 571 1254 l 557 1272 l 553 1274 l 554 1275 l 557 1272 l 571 1261 l 583 1218 l 604 1185 l 583 1151 l 608 1121 l 583 1090 l 564 1061 l 531 1049 l 492 1028 l 453 1049 l 411 1029 l 350 1058 m 510 1181 l 492 1172 l 488 1156 l 506 1142 l 528 1158 l 510 1181 z "},"È":{"ha":926,"x_min":50,"x_max":892,"o":"m 104 43 l 57 90 l 104 138 l 65 174 l 104 210 l 51 263 l 104 314 l 51 353 l 104 392 l 53 439 l 104 486 l 53 519 l 104 553 l 65 611 l 104 669 l 50 708 l 104 746 l 58 796 l 104 846 l 68 874 l 104 901 l 135 942 l 186 944 l 231 996 l 274 944 l 310 986 l 346 944 l 376 990 l 407 944 l 454 993 l 500 944 l 533 978 l 567 944 l 603 989 l 639 944 l 689 974 l 738 944 l 779 996 l 821 944 l 874 900 l 836 842 l 889 799 l 836 756 l 804 704 l 749 729 l 696 696 l 643 729 l 604 692 l 565 729 l 507 699 l 449 729 l 435 678 l 382 679 l 429 640 l 399 586 l 451 624 l 503 586 l 550 606 l 597 586 l 647 615 l 696 586 l 746 606 l 796 586 l 828 546 l 806 500 l 836 456 l 806 413 l 783 372 l 740 386 l 713 360 l 686 386 l 650 360 l 614 386 l 586 349 l 558 386 l 514 350 l 471 386 l 431 349 l 382 375 l 432 342 l 382 310 l 417 278 l 421 281 l 460 243 l 501 267 l 543 243 l 596 264 l 649 243 l 688 278 l 726 243 l 779 271 l 832 243 l 886 222 l 847 179 l 892 140 l 847 103 l 883 65 l 844 31 l 789 0 l 732 28 l 686 -1 l 639 28 l 600 -3 l 561 28 l 517 -24 l 474 28 l 429 -25 l 385 28 l 338 -19 l 290 28 l 246 -14 l 203 28 l 158 -1 l 104 43 m 657 915 l 650 929 l 638 921 l 639 910 l 650 901 l 657 915 m 269 899 l 235 908 l 214 882 l 228 844 l 274 854 l 269 899 m 736 896 l 711 892 l 704 864 l 735 840 l 763 872 l 736 896 m 428 889 l 414 894 l 401 892 l 407 878 l 418 879 l 428 889 m 399 825 l 363 825 l 350 790 l 381 774 l 417 788 l 399 825 m 276 783 l 221 785 l 208 728 l 257 696 l 289 736 l 276 783 m 186 644 l 150 636 l 146 600 l 176 596 l 193 613 l 186 644 m 376 539 l 317 622 l 236 561 l 247 476 l 325 475 l 376 539 m 526 511 l 503 532 l 475 514 l 493 490 l 518 482 l 526 511 m 610 468 l 590 456 l 588 436 l 608 431 l 619 447 l 610 468 m 690 428 l 679 428 l 671 418 l 682 408 l 694 415 l 690 428 m 335 378 l 299 392 l 275 364 l 297 343 l 319 349 l 335 378 m 326 260 l 290 288 l 242 283 l 253 233 l 296 221 l 326 260 m 456 218 l 440 229 l 428 224 l 424 207 l 443 204 l 456 218 m 238 201 l 200 208 l 165 189 l 194 164 l 221 168 l 238 201 m 651 117 l 632 101 l 636 83 l 658 72 l 665 97 l 651 117 m 333 101 l 318 92 l 314 69 l 336 72 l 347 88 l 333 101 m 333 1071 l 289 1078 l 274 1119 l 225 1131 l 206 1176 l 171 1186 l 154 1218 l 151 1251 l 178 1271 l 219 1288 l 261 1271 l 303 1285 l 344 1271 l 396 1286 l 446 1264 l 497 1242 l 511 1188 l 557 1169 l 567 1121 l 601 1113 l 601 1078 l 589 1050 l 558 1049 l 500 1035 l 443 1049 l 415 1035 l 333 1071 m 386 1250 l 333 1226 l 342 1181 l 382 1158 l 406 1200 l 386 1250 z "},"Ē":{"ha":926,"x_min":50,"x_max":892,"o":"m 104 43 l 57 90 l 104 138 l 65 174 l 104 210 l 51 263 l 104 314 l 51 353 l 104 392 l 53 439 l 104 486 l 53 519 l 104 553 l 65 611 l 104 669 l 50 708 l 104 746 l 58 796 l 104 846 l 68 874 l 104 901 l 135 942 l 186 944 l 231 996 l 274 944 l 310 986 l 346 944 l 376 990 l 407 944 l 454 993 l 500 944 l 533 978 l 567 944 l 603 989 l 639 944 l 689 974 l 738 944 l 779 996 l 821 944 l 874 900 l 836 842 l 889 799 l 836 756 l 804 704 l 749 729 l 696 696 l 643 729 l 604 692 l 565 729 l 507 699 l 449 729 l 435 678 l 382 679 l 429 640 l 399 586 l 451 624 l 503 586 l 550 606 l 597 586 l 647 615 l 696 586 l 746 606 l 796 586 l 828 546 l 806 500 l 836 456 l 806 413 l 783 372 l 740 386 l 713 360 l 686 386 l 650 360 l 614 386 l 586 349 l 558 386 l 514 350 l 471 386 l 431 349 l 382 375 l 432 342 l 382 310 l 417 278 l 421 281 l 460 243 l 501 267 l 543 243 l 596 264 l 649 243 l 688 278 l 726 243 l 779 271 l 832 243 l 886 222 l 847 179 l 892 140 l 847 103 l 883 65 l 844 31 l 789 0 l 732 28 l 686 -1 l 639 28 l 600 -3 l 561 28 l 517 -24 l 474 28 l 429 -25 l 385 28 l 338 -19 l 290 28 l 246 -14 l 203 28 l 158 -1 l 104 43 m 657 915 l 650 929 l 638 921 l 639 910 l 650 901 l 657 915 m 269 899 l 235 908 l 214 882 l 228 844 l 274 854 l 269 899 m 736 896 l 711 892 l 704 864 l 735 840 l 763 872 l 736 896 m 428 889 l 414 894 l 401 892 l 407 878 l 418 879 l 428 889 m 399 825 l 363 825 l 350 790 l 381 774 l 417 788 l 399 825 m 276 783 l 221 785 l 208 728 l 257 696 l 289 736 l 276 783 m 186 644 l 150 636 l 146 600 l 176 596 l 193 613 l 186 644 m 376 539 l 317 622 l 236 561 l 247 476 l 325 475 l 376 539 m 526 511 l 503 532 l 475 514 l 493 490 l 518 482 l 526 511 m 610 468 l 590 456 l 588 436 l 608 431 l 619 447 l 610 468 m 690 428 l 679 428 l 671 418 l 682 408 l 694 415 l 690 428 m 335 378 l 299 392 l 275 364 l 297 343 l 319 349 l 335 378 m 326 260 l 290 288 l 242 283 l 253 233 l 296 221 l 326 260 m 456 218 l 440 229 l 428 224 l 424 207 l 443 204 l 456 218 m 238 201 l 200 208 l 165 189 l 194 164 l 221 168 l 238 201 m 651 117 l 632 101 l 636 83 l 658 72 l 665 97 l 651 117 m 333 101 l 318 92 l 314 69 l 336 72 l 347 88 l 333 101 m 176 1129 l 153 1179 l 179 1229 l 203 1261 l 240 1243 l 279 1264 l 317 1243 l 369 1269 l 422 1243 l 458 1260 l 493 1243 l 521 1257 l 549 1243 l 590 1263 l 632 1243 l 664 1264 l 697 1243 l 736 1229 l 750 1190 l 771 1154 l 750 1118 l 740 1076 l 708 1049 l 678 1025 l 647 1049 l 618 1033 l 588 1049 l 538 1024 l 488 1049 l 444 1025 l 400 1049 l 372 1035 l 344 1049 l 314 1024 l 285 1049 l 243 1029 l 176 1129 m 356 1093 l 342 1092 l 340 1075 l 357 1075 l 368 1086 l 356 1093 z "},"Ę":{"ha":926,"x_min":50,"x_max":883,"o":"m 790 -276 l 743 -322 l 719 -261 l 663 -260 l 646 -206 l 601 -162 l 608 -101 l 560 -57 l 611 -17 l 561 -18 l 582 28 l 554 -15 l 528 28 l 472 -3 l 417 28 l 368 -7 l 318 28 l 263 -22 l 207 28 l 175 -6 l 142 28 l 97 60 l 104 115 l 63 160 l 104 204 l 50 254 l 104 303 l 57 353 l 104 403 l 71 444 l 104 486 l 60 519 l 104 553 l 76 586 l 104 619 l 71 664 l 104 708 l 54 740 l 104 774 l 53 813 l 104 851 l 56 882 l 104 913 l 140 958 l 197 944 l 251 999 l 307 944 l 354 988 l 401 944 l 438 983 l 472 944 l 528 976 l 583 944 l 636 976 l 689 944 l 729 988 l 771 944 l 817 956 l 836 913 l 865 883 l 836 853 l 876 807 l 836 761 l 818 724 l 776 729 l 721 700 l 665 729 l 618 706 l 571 729 l 515 710 l 460 729 l 431 686 l 382 701 l 429 660 l 382 619 l 425 631 l 421 586 l 457 614 l 492 586 l 522 621 l 553 586 l 583 607 l 614 586 l 650 613 l 686 586 l 718 617 l 751 586 l 792 578 l 806 538 l 854 506 l 806 472 l 853 429 l 803 389 l 768 351 l 729 386 l 689 356 l 647 386 l 597 353 l 547 386 l 519 357 l 492 386 l 460 356 l 426 386 l 421 342 l 382 319 l 433 296 l 410 243 l 457 271 l 504 243 l 546 278 l 588 243 l 632 278 l 676 243 l 715 281 l 754 243 l 808 267 l 847 222 l 883 188 l 847 151 l 875 97 l 847 43 l 842 -14 l 801 25 l 800 -43 l 733 -29 l 763 -62 l 729 -90 l 797 -94 l 807 -162 l 846 -185 l 847 -229 l 865 -274 l 790 -276 m 550 925 l 538 922 l 535 908 l 549 901 l 557 914 l 550 925 m 300 888 l 283 915 l 251 904 l 250 869 l 286 854 l 300 888 m 781 857 l 761 849 l 754 831 l 774 818 l 793 835 l 781 857 m 171 825 l 147 814 l 135 796 l 156 786 l 176 796 l 171 825 m 563 754 l 553 761 l 542 754 l 544 740 l 563 738 l 563 754 m 254 667 l 200 654 l 168 592 l 240 553 l 293 611 l 254 667 m 743 517 l 708 531 l 692 492 l 724 468 l 746 490 l 743 517 m 308 367 l 253 403 l 210 350 l 240 296 l 294 314 l 308 367 m 428 190 l 346 204 l 304 114 l 389 49 l 474 111 l 428 190 m 569 185 l 558 196 l 544 188 l 549 172 l 564 171 l 569 185 m 685 172 l 672 190 l 658 172 l 665 157 l 686 151 l 685 172 z "},"F":{"ha":897,"x_min":50,"x_max":875,"o":"m 104 82 l 50 121 l 104 160 l 50 201 l 104 243 l 69 294 l 104 347 l 69 378 l 104 408 l 57 450 l 104 492 l 75 544 l 104 597 l 69 636 l 104 675 l 56 715 l 104 757 l 75 801 l 104 846 l 68 888 l 104 929 l 140 964 l 186 944 l 231 989 l 275 944 l 314 972 l 353 944 l 392 975 l 431 944 l 461 996 l 492 944 l 547 985 l 603 944 l 642 994 l 681 944 l 714 990 l 747 944 l 797 957 l 824 913 l 875 885 l 824 857 l 861 801 l 824 746 l 819 707 l 781 714 l 728 692 l 676 714 l 640 686 l 604 714 l 551 676 l 499 714 l 469 679 l 439 714 l 439 663 l 389 654 l 419 604 l 389 556 l 439 589 l 489 556 l 543 590 l 599 556 l 649 589 l 697 556 l 753 574 l 796 535 l 831 507 l 796 479 l 833 436 l 796 392 l 799 346 l 758 326 l 708 289 l 660 326 l 601 275 l 543 326 l 504 276 l 467 326 l 432 288 l 389 315 l 439 257 l 389 199 l 431 149 l 389 99 l 401 50 l 357 28 l 318 -19 l 279 28 l 244 -22 l 208 28 l 161 -1 l 104 82 m 267 915 l 257 925 l 244 922 l 247 910 l 258 903 l 267 915 m 393 901 l 381 922 l 358 910 l 363 889 l 385 874 l 393 901 m 614 908 l 597 900 l 600 882 l 618 876 l 626 893 l 614 908 m 200 894 l 165 856 l 163 803 l 222 800 l 244 856 l 200 894 m 528 835 l 482 876 l 424 833 l 460 776 l 522 775 l 528 835 m 744 767 l 719 775 l 710 750 l 726 728 l 751 742 l 744 767 m 293 725 l 249 718 l 225 686 l 257 650 l 286 682 l 293 725 m 214 608 l 188 644 l 153 617 l 157 575 l 201 568 l 214 608 m 757 513 l 746 504 l 747 490 l 760 494 l 764 501 l 757 513 m 535 499 l 463 500 l 443 417 l 522 379 l 588 439 l 535 499 m 265 433 l 210 383 l 199 314 l 269 317 l 322 367 l 265 433 m 403 382 l 390 397 l 365 396 l 374 372 l 393 361 l 403 382 m 232 186 l 197 206 l 157 208 l 172 169 l 203 153 l 232 186 m 322 181 l 265 138 l 268 76 l 332 60 l 354 117 l 322 181 z "},"G":{"ha":1046,"x_min":35,"x_max":1015,"o":"m 453 17 l 406 -19 l 369 28 l 328 -11 l 311 44 l 243 25 l 217 90 l 142 90 l 142 165 l 74 197 l 93 271 l 35 297 l 81 342 l 39 376 l 78 414 l 47 463 l 78 510 l 39 544 l 78 578 l 50 633 l 88 683 l 69 740 l 118 772 l 114 840 l 179 853 l 208 906 l 268 911 l 293 975 l 353 940 l 378 990 l 419 953 l 479 988 l 542 958 l 571 985 l 597 954 l 649 997 l 685 940 l 740 978 l 765 915 l 815 931 l 835 882 l 876 893 l 881 849 l 931 850 l 926 800 l 976 797 l 953 753 l 968 711 l 944 674 l 913 654 l 879 674 l 849 649 l 818 674 l 781 649 l 742 674 l 690 657 l 640 679 l 581 686 l 554 740 l 515 704 l 475 738 l 456 697 l 411 696 l 439 635 l 385 596 l 418 538 l 383 479 l 418 440 l 383 401 l 408 369 l 389 335 l 440 307 l 444 249 l 501 278 l 542 229 l 574 290 l 639 268 l 614 326 l 671 356 l 635 347 l 632 385 l 581 393 l 568 444 l 539 493 l 568 543 l 592 576 l 628 558 l 669 583 l 711 558 l 764 590 l 815 558 l 874 578 l 932 558 l 978 526 l 969 472 l 1015 419 l 969 368 l 1015 311 l 957 269 l 974 229 l 935 211 l 936 136 l 864 119 l 840 53 l 769 60 l 728 18 l 669 28 l 646 -24 l 608 18 l 567 -25 l 453 17 m 336 871 l 244 829 l 258 743 l 339 708 l 382 788 l 336 871 m 496 861 l 489 865 l 482 860 l 488 853 l 499 850 l 496 861 m 857 815 l 835 826 l 810 819 l 819 794 l 840 797 l 857 815 m 164 703 l 125 703 l 125 663 l 157 642 l 172 674 l 164 703 m 214 556 l 175 574 l 156 536 l 179 513 l 219 514 l 214 556 m 754 501 l 729 519 l 700 503 l 711 468 l 742 475 l 754 501 m 874 497 l 850 501 l 839 482 l 849 451 l 885 467 l 874 497 m 264 385 l 243 401 l 222 389 l 221 361 l 251 360 l 264 385 m 896 322 l 857 400 l 778 354 l 783 274 l 858 264 l 896 322 m 136 331 l 119 338 l 106 332 l 107 313 l 125 315 l 136 331 m 278 306 l 257 296 l 258 271 l 282 274 l 289 290 l 278 306 m 224 294 l 206 300 l 190 286 l 203 274 l 217 278 l 224 294 m 367 276 l 358 283 l 349 279 l 350 268 l 364 264 l 367 276 m 175 231 l 144 225 l 138 196 l 163 190 l 183 203 l 175 231 m 619 174 l 582 157 l 588 118 l 625 113 l 658 146 l 619 174 m 340 63 l 329 76 l 313 67 l 318 51 l 332 50 l 340 63 z "},"Ğ":{"ha":1046,"x_min":35,"x_max":1015,"o":"m 453 17 l 406 -19 l 369 28 l 328 -11 l 311 44 l 243 25 l 217 90 l 142 90 l 142 165 l 74 197 l 93 271 l 35 297 l 81 342 l 39 376 l 78 414 l 47 463 l 78 510 l 39 544 l 78 578 l 50 633 l 88 683 l 69 740 l 118 772 l 114 840 l 179 853 l 208 906 l 268 911 l 293 975 l 353 940 l 378 990 l 419 953 l 479 988 l 542 958 l 571 985 l 597 954 l 649 997 l 685 940 l 740 978 l 765 915 l 815 931 l 835 882 l 876 893 l 881 849 l 931 850 l 926 800 l 976 797 l 953 753 l 968 711 l 944 674 l 913 654 l 879 674 l 849 649 l 818 674 l 781 649 l 742 674 l 690 657 l 640 679 l 581 686 l 554 740 l 515 704 l 475 738 l 456 697 l 411 696 l 439 635 l 385 596 l 418 538 l 383 479 l 418 440 l 383 401 l 408 369 l 389 335 l 440 307 l 444 249 l 501 278 l 542 229 l 574 290 l 639 268 l 614 326 l 671 356 l 635 347 l 632 385 l 581 393 l 568 444 l 539 493 l 568 543 l 592 576 l 628 558 l 669 583 l 711 558 l 764 590 l 815 558 l 874 578 l 932 558 l 978 526 l 969 472 l 1015 419 l 969 368 l 1015 311 l 957 269 l 974 229 l 935 211 l 936 136 l 864 119 l 840 53 l 769 60 l 728 18 l 669 28 l 646 -24 l 608 18 l 567 -25 l 453 17 m 336 871 l 244 829 l 258 743 l 339 708 l 382 788 l 336 871 m 496 861 l 489 865 l 482 860 l 488 853 l 499 850 l 496 861 m 857 815 l 835 826 l 810 819 l 819 794 l 840 797 l 857 815 m 164 703 l 125 703 l 125 663 l 157 642 l 172 674 l 164 703 m 214 556 l 175 574 l 156 536 l 179 513 l 219 514 l 214 556 m 754 501 l 729 519 l 700 503 l 711 468 l 742 475 l 754 501 m 874 497 l 850 501 l 839 482 l 849 451 l 885 467 l 874 497 m 264 385 l 243 401 l 222 389 l 221 361 l 251 360 l 264 385 m 896 322 l 857 400 l 778 354 l 783 274 l 858 264 l 896 322 m 136 331 l 119 338 l 106 332 l 107 313 l 125 315 l 136 331 m 278 306 l 257 296 l 258 271 l 282 274 l 289 290 l 278 306 m 224 294 l 206 300 l 190 286 l 203 274 l 217 278 l 224 294 m 367 276 l 358 283 l 349 279 l 350 268 l 364 264 l 367 276 m 175 231 l 144 225 l 138 196 l 163 190 l 183 203 l 175 231 m 619 174 l 582 157 l 588 118 l 625 113 l 658 146 l 619 174 m 340 63 l 329 76 l 313 67 l 318 51 l 332 50 l 340 63 m 435 1053 l 396 1049 l 372 1079 l 332 1079 l 326 1119 l 292 1140 l 294 1179 l 281 1222 l 293 1267 l 350 1288 l 408 1271 l 440 1265 l 461 1240 l 501 1214 l 518 1168 l 539 1203 l 579 1207 l 586 1246 l 617 1271 l 675 1285 l 732 1271 l 761 1244 l 758 1207 l 757 1156 l 721 1119 l 683 1076 l 629 1057 l 579 1028 l 435 1053 m 403 1263 l 393 1260 l 392 1251 l 401 1242 l 411 1254 l 403 1263 m 665 1211 l 658 1228 l 643 1217 l 646 1201 l 663 1193 l 665 1211 m 372 1138 l 357 1158 l 336 1144 l 333 1114 l 364 1118 l 372 1138 z "},"Ĝ":{"ha":1046,"x_min":35,"x_max":1015,"o":"m 453 17 l 406 -19 l 369 28 l 328 -11 l 311 44 l 243 25 l 217 90 l 142 90 l 142 165 l 74 197 l 93 271 l 35 297 l 81 342 l 39 376 l 78 414 l 47 463 l 78 510 l 39 544 l 78 578 l 50 633 l 88 683 l 69 740 l 118 772 l 114 840 l 179 853 l 208 906 l 268 911 l 293 975 l 353 940 l 378 990 l 419 953 l 479 988 l 542 958 l 571 985 l 597 954 l 649 997 l 685 940 l 740 978 l 765 915 l 815 931 l 835 882 l 876 893 l 881 849 l 931 850 l 926 800 l 976 797 l 953 753 l 968 711 l 944 674 l 913 654 l 879 674 l 849 649 l 818 674 l 781 649 l 742 674 l 690 657 l 640 679 l 581 686 l 554 740 l 515 704 l 475 738 l 456 697 l 411 696 l 439 635 l 385 596 l 418 538 l 383 479 l 418 440 l 383 401 l 408 369 l 389 335 l 440 307 l 444 249 l 501 278 l 542 229 l 574 290 l 639 268 l 614 326 l 671 356 l 635 347 l 632 385 l 581 393 l 568 444 l 539 493 l 568 543 l 592 576 l 628 558 l 669 583 l 711 558 l 764 590 l 815 558 l 874 578 l 932 558 l 978 526 l 969 472 l 1015 419 l 969 368 l 1015 311 l 957 269 l 974 229 l 935 211 l 936 136 l 864 119 l 840 53 l 769 60 l 728 18 l 669 28 l 646 -24 l 608 18 l 567 -25 l 453 17 m 336 871 l 244 829 l 258 743 l 339 708 l 382 788 l 336 871 m 496 861 l 489 865 l 482 860 l 488 853 l 499 850 l 496 861 m 857 815 l 835 826 l 810 819 l 819 794 l 840 797 l 857 815 m 164 703 l 125 703 l 125 663 l 157 642 l 172 674 l 164 703 m 214 556 l 175 574 l 156 536 l 179 513 l 219 514 l 214 556 m 754 501 l 729 519 l 700 503 l 711 468 l 742 475 l 754 501 m 874 497 l 850 501 l 839 482 l 849 451 l 885 467 l 874 497 m 264 385 l 243 401 l 222 389 l 221 361 l 251 360 l 264 385 m 896 322 l 857 400 l 778 354 l 783 274 l 858 264 l 896 322 m 136 331 l 119 338 l 106 332 l 107 313 l 125 315 l 136 331 m 278 306 l 257 296 l 258 271 l 282 274 l 289 290 l 278 306 m 224 294 l 206 300 l 190 286 l 203 274 l 217 278 l 224 294 m 367 276 l 358 283 l 349 279 l 350 268 l 364 264 l 367 276 m 175 231 l 144 225 l 138 196 l 163 190 l 183 203 l 175 231 m 619 174 l 582 157 l 588 118 l 625 113 l 658 146 l 619 174 m 340 63 l 329 76 l 313 67 l 318 51 l 332 50 l 340 63 m 261 1110 l 282 1158 l 328 1183 l 350 1239 l 406 1263 l 450 1288 l 499 1271 l 549 1289 l 597 1271 l 649 1257 l 686 1219 l 732 1199 l 749 1150 l 796 1126 l 815 1078 l 781 1046 l 735 1049 l 675 1043 l 624 1072 l 592 1068 l 574 1094 l 535 1086 l 499 1106 l 464 1075 l 418 1069 l 385 1036 l 340 1049 l 292 1024 l 261 1110 m 540 1222 l 531 1221 l 521 1213 l 532 1204 l 540 1211 l 540 1222 m 714 1088 l 708 1096 l 697 1093 l 700 1083 l 710 1075 l 714 1088 z "},"Ģ":{"ha":1046,"x_min":35,"x_max":1015,"o":"m 453 17 l 406 -19 l 369 28 l 328 -11 l 311 44 l 243 25 l 217 90 l 142 90 l 142 165 l 74 197 l 93 271 l 35 297 l 81 342 l 39 376 l 78 414 l 47 463 l 78 510 l 39 544 l 78 578 l 50 633 l 88 683 l 69 740 l 118 772 l 114 840 l 179 853 l 208 906 l 268 911 l 293 975 l 353 940 l 378 990 l 419 953 l 479 988 l 542 958 l 571 985 l 597 954 l 649 997 l 685 940 l 740 978 l 765 915 l 815 931 l 835 882 l 876 893 l 881 849 l 931 850 l 926 800 l 976 797 l 953 753 l 968 711 l 944 674 l 913 654 l 879 674 l 849 649 l 818 674 l 781 649 l 742 674 l 690 657 l 640 679 l 581 686 l 554 740 l 515 704 l 475 738 l 456 697 l 411 696 l 439 635 l 385 596 l 418 538 l 383 479 l 418 440 l 383 401 l 408 369 l 389 335 l 440 307 l 444 249 l 501 278 l 542 229 l 574 290 l 639 268 l 614 326 l 671 356 l 635 347 l 632 385 l 581 393 l 568 444 l 539 493 l 568 543 l 592 576 l 628 558 l 669 583 l 711 558 l 764 590 l 815 558 l 874 578 l 932 558 l 978 526 l 969 472 l 1015 419 l 969 368 l 1015 311 l 957 269 l 974 229 l 935 211 l 936 136 l 864 119 l 840 53 l 769 60 l 728 18 l 669 28 l 646 -24 l 608 18 l 567 -25 l 453 17 m 336 871 l 244 829 l 258 743 l 339 708 l 382 788 l 336 871 m 496 861 l 489 865 l 482 860 l 488 853 l 499 850 l 496 861 m 857 815 l 835 826 l 810 819 l 819 794 l 840 797 l 857 815 m 164 703 l 125 703 l 125 663 l 157 642 l 172 674 l 164 703 m 214 556 l 175 574 l 156 536 l 179 513 l 219 514 l 214 556 m 754 501 l 729 519 l 700 503 l 711 468 l 742 475 l 754 501 m 874 497 l 850 501 l 839 482 l 849 451 l 885 467 l 874 497 m 264 385 l 243 401 l 222 389 l 221 361 l 251 360 l 264 385 m 896 322 l 857 400 l 778 354 l 783 274 l 858 264 l 896 322 m 136 331 l 119 338 l 106 332 l 107 313 l 125 315 l 136 331 m 278 306 l 257 296 l 258 271 l 282 274 l 289 290 l 278 306 m 224 294 l 206 300 l 190 286 l 203 274 l 217 278 l 224 294 m 367 276 l 358 283 l 349 279 l 350 268 l 364 264 l 367 276 m 175 231 l 144 225 l 138 196 l 163 190 l 183 203 l 175 231 m 619 174 l 582 157 l 588 118 l 625 113 l 658 146 l 619 174 m 340 63 l 329 76 l 313 67 l 318 51 l 332 50 l 340 63 m 354 -262 l 343 -224 l 365 -190 l 357 -135 l 392 -90 l 440 -62 l 494 -76 l 551 -50 l 610 -76 l 643 -62 l 660 -94 l 663 -142 l 632 -178 l 638 -233 l 596 -269 l 569 -314 l 525 -340 l 497 -357 l 469 -340 l 419 -357 l 354 -262 m 500 -136 l 443 -167 l 450 -225 l 501 -232 l 532 -192 l 500 -136 z "},"Ġ":{"ha":1046,"x_min":35,"x_max":1015,"o":"m 453 17 l 406 -19 l 369 28 l 328 -11 l 311 44 l 243 25 l 217 90 l 142 90 l 142 165 l 74 197 l 93 271 l 35 297 l 81 342 l 39 376 l 78 414 l 47 463 l 78 510 l 39 544 l 78 578 l 50 633 l 88 683 l 69 740 l 118 772 l 114 840 l 179 853 l 208 906 l 268 911 l 293 975 l 353 940 l 378 990 l 419 953 l 479 988 l 542 958 l 571 985 l 597 954 l 649 997 l 685 940 l 740 978 l 765 915 l 815 931 l 835 882 l 876 893 l 881 849 l 931 850 l 926 800 l 976 797 l 953 753 l 968 711 l 944 674 l 913 654 l 879 674 l 849 649 l 818 674 l 781 649 l 742 674 l 690 657 l 640 679 l 581 686 l 554 740 l 515 704 l 475 738 l 456 697 l 411 696 l 439 635 l 385 596 l 418 538 l 383 479 l 418 440 l 383 401 l 408 369 l 389 335 l 440 307 l 444 249 l 501 278 l 542 229 l 574 290 l 639 268 l 614 326 l 671 356 l 635 347 l 632 385 l 581 393 l 568 444 l 539 493 l 568 543 l 592 576 l 628 558 l 669 583 l 711 558 l 764 590 l 815 558 l 874 578 l 932 558 l 978 526 l 969 472 l 1015 419 l 969 368 l 1015 311 l 957 269 l 974 229 l 935 211 l 936 136 l 864 119 l 840 53 l 769 60 l 728 18 l 669 28 l 646 -24 l 608 18 l 567 -25 l 453 17 m 336 871 l 244 829 l 258 743 l 339 708 l 382 788 l 336 871 m 496 861 l 489 865 l 482 860 l 488 853 l 499 850 l 496 861 m 857 815 l 835 826 l 810 819 l 819 794 l 840 797 l 857 815 m 164 703 l 125 703 l 125 663 l 157 642 l 172 674 l 164 703 m 214 556 l 175 574 l 156 536 l 179 513 l 219 514 l 214 556 m 754 501 l 729 519 l 700 503 l 711 468 l 742 475 l 754 501 m 874 497 l 850 501 l 839 482 l 849 451 l 885 467 l 874 497 m 264 385 l 243 401 l 222 389 l 221 361 l 251 360 l 264 385 m 896 322 l 857 400 l 778 354 l 783 274 l 858 264 l 896 322 m 136 331 l 119 338 l 106 332 l 107 313 l 125 315 l 136 331 m 278 306 l 257 296 l 258 271 l 282 274 l 289 290 l 278 306 m 224 294 l 206 300 l 190 286 l 203 274 l 217 278 l 224 294 m 367 276 l 358 283 l 349 279 l 350 268 l 364 264 l 367 276 m 175 231 l 144 225 l 138 196 l 163 190 l 183 203 l 175 231 m 619 174 l 582 157 l 588 118 l 625 113 l 658 146 l 619 174 m 340 63 l 329 76 l 313 67 l 318 51 l 332 50 l 340 63 m 410 1058 l 383 1103 l 404 1151 l 378 1204 l 404 1257 l 410 1288 l 440 1288 l 490 1313 l 540 1288 l 568 1303 l 596 1288 l 613 1274 l 586 1264 l 588 1231 l 624 1224 l 631 1254 l 617 1272 l 613 1274 l 614 1275 l 617 1272 l 631 1261 l 643 1218 l 664 1185 l 643 1151 l 668 1121 l 643 1090 l 624 1061 l 590 1049 l 551 1028 l 513 1049 l 471 1029 l 410 1058 m 569 1181 l 551 1172 l 547 1156 l 565 1142 l 588 1158 l 569 1181 z "},"H":{"ha":1072,"x_min":50,"x_max":1022,"o":"m 104 99 l 50 157 l 104 215 l 74 272 l 104 331 l 63 367 l 104 403 l 69 439 l 104 475 l 53 531 l 104 586 l 72 636 l 104 686 l 64 718 l 104 751 l 67 804 l 104 857 l 68 885 l 104 913 l 110 944 l 142 944 l 197 997 l 253 944 l 303 994 l 353 944 l 399 921 l 396 868 l 426 833 l 396 797 l 449 767 l 396 736 l 435 706 l 396 676 l 440 663 l 435 615 l 492 657 l 550 615 l 597 657 l 643 615 l 631 660 l 676 660 l 644 708 l 676 758 l 638 817 l 676 874 l 624 901 l 676 929 l 701 969 l 742 944 l 789 988 l 836 944 l 872 972 l 908 944 l 954 944 l 968 901 l 1017 868 l 968 835 l 1017 801 l 968 768 l 1006 713 l 968 658 l 1022 625 l 968 592 l 1019 539 l 968 486 l 1010 450 l 968 414 l 1001 364 l 968 314 l 999 257 l 968 199 l 1001 171 l 968 143 l 1017 104 l 968 65 l 932 28 l 881 28 l 822 -18 l 764 28 l 713 4 l 676 49 l 633 85 l 676 121 l 629 149 l 676 176 l 622 210 l 676 243 l 629 276 l 676 310 l 621 310 l 621 365 l 575 314 l 528 365 l 483 336 l 440 365 l 446 315 l 396 315 l 432 257 l 396 199 l 429 163 l 396 126 l 426 82 l 396 38 l 354 -14 l 303 28 l 247 0 l 192 28 l 153 -25 l 104 99 m 182 833 l 171 847 l 151 839 l 156 818 l 175 818 l 182 833 m 800 838 l 779 811 l 774 775 l 813 781 l 822 811 l 800 838 m 164 786 l 131 789 l 131 760 l 143 733 l 172 753 l 164 786 m 910 710 l 888 725 l 874 707 l 882 693 l 901 686 l 910 710 m 176 697 l 161 703 l 147 690 l 154 665 l 175 679 l 176 697 m 288 681 l 268 688 l 258 668 l 275 651 l 289 665 l 288 681 m 290 611 l 200 507 l 232 417 l 342 376 l 388 500 l 290 611 m 832 576 l 774 589 l 751 544 l 771 486 l 843 506 l 832 576 m 681 494 l 669 511 l 642 510 l 649 483 l 674 465 l 681 494 m 938 472 l 918 482 l 897 479 l 900 456 l 922 456 l 938 472 m 529 479 l 515 463 l 514 440 l 535 446 l 547 463 l 529 479 m 932 392 l 915 413 l 878 403 l 892 365 l 932 356 l 932 392 m 203 311 l 165 307 l 144 285 l 167 257 l 207 265 l 203 311 m 190 208 l 167 206 l 176 183 l 199 168 l 210 194 l 190 208 m 908 146 l 888 163 l 867 146 l 863 110 l 904 111 l 908 146 m 313 60 l 300 76 l 279 69 l 279 47 l 299 49 l 313 60 z "},"Ħ":{"ha":1072,"x_min":50,"x_max":1022,"o":"m 104 99 l 50 157 l 104 215 l 74 272 l 104 331 l 63 367 l 104 403 l 69 439 l 104 475 l 53 531 l 104 586 l 72 636 l 104 686 l 64 718 l 104 751 l 67 804 l 104 857 l 68 885 l 104 913 l 110 944 l 142 944 l 197 997 l 253 944 l 303 994 l 353 944 l 399 921 l 396 868 l 396 868 l 426 911 l 460 865 l 488 903 l 515 865 l 546 897 l 576 865 l 607 906 l 638 865 l 660 883 l 624 901 l 676 929 l 701 969 l 742 944 l 789 988 l 836 944 l 872 972 l 908 944 l 954 944 l 968 901 l 1017 868 l 968 835 l 1017 801 l 968 768 l 1006 713 l 968 658 l 1022 625 l 968 592 l 1019 539 l 968 486 l 1010 450 l 968 414 l 1001 364 l 968 314 l 999 257 l 968 199 l 1001 171 l 968 143 l 1017 104 l 968 65 l 932 28 l 881 28 l 822 -18 l 764 28 l 713 4 l 676 49 l 633 85 l 676 121 l 629 149 l 676 176 l 622 210 l 676 243 l 629 276 l 676 310 l 621 310 l 621 365 l 575 314 l 528 365 l 483 336 l 440 365 l 446 315 l 396 315 l 432 257 l 396 199 l 429 163 l 396 126 l 426 82 l 396 38 l 354 -14 l 303 28 l 247 0 l 192 28 l 153 -25 l 104 99 m 597 657 l 643 615 l 631 660 l 676 660 l 644 708 l 653 722 l 626 751 l 574 710 l 521 751 l 485 713 l 449 751 l 417 721 l 435 706 l 396 676 l 440 663 l 435 615 l 492 657 l 550 615 l 597 657 m 143 733 l 144 735 l 140 739 l 143 733 m 910 710 l 890 724 l 886 721 l 886 722 l 874 707 l 882 693 l 901 686 l 910 710 m 176 697 l 161 703 l 147 690 l 154 665 l 175 679 l 176 697 m 288 681 l 268 688 l 258 668 l 275 651 l 289 665 l 288 681 m 290 611 l 200 507 l 232 417 l 342 376 l 388 500 l 290 611 m 832 576 l 774 589 l 751 544 l 771 486 l 843 506 l 832 576 m 681 494 l 669 511 l 642 510 l 649 483 l 674 465 l 681 494 m 938 472 l 918 482 l 897 479 l 900 456 l 922 456 l 938 472 m 529 479 l 515 463 l 514 440 l 535 446 l 547 463 l 529 479 m 932 392 l 915 413 l 878 403 l 892 365 l 932 356 l 932 392 m 203 311 l 165 307 l 144 285 l 167 257 l 207 265 l 203 311 m 190 208 l 167 206 l 176 183 l 199 168 l 210 194 l 190 208 m 908 146 l 888 163 l 867 146 l 863 110 l 904 111 l 908 146 m 313 60 l 300 76 l 279 69 l 279 47 l 299 49 l 313 60 z "},"Ĥ":{"ha":1072,"x_min":50,"x_max":1022,"o":"m 104 99 l 50 157 l 104 215 l 74 272 l 104 331 l 63 367 l 104 403 l 69 439 l 104 475 l 53 531 l 104 586 l 72 636 l 104 686 l 64 718 l 104 751 l 67 804 l 104 857 l 68 885 l 104 913 l 110 944 l 142 944 l 197 997 l 253 944 l 303 994 l 353 944 l 399 921 l 396 868 l 426 833 l 396 797 l 449 767 l 396 736 l 435 706 l 396 676 l 440 663 l 435 615 l 492 657 l 550 615 l 597 657 l 643 615 l 631 660 l 676 660 l 644 708 l 676 758 l 638 817 l 676 874 l 624 901 l 676 929 l 701 969 l 742 944 l 789 988 l 836 944 l 872 972 l 908 944 l 954 944 l 968 901 l 1017 868 l 968 835 l 1017 801 l 968 768 l 1006 713 l 968 658 l 1022 625 l 968 592 l 1019 539 l 968 486 l 1010 450 l 968 414 l 1001 364 l 968 314 l 999 257 l 968 199 l 1001 171 l 968 143 l 1017 104 l 968 65 l 932 28 l 881 28 l 822 -18 l 764 28 l 713 4 l 676 49 l 633 85 l 676 121 l 629 149 l 676 176 l 622 210 l 676 243 l 629 276 l 676 310 l 621 310 l 621 365 l 575 314 l 528 365 l 483 336 l 440 365 l 446 315 l 396 315 l 432 257 l 396 199 l 429 163 l 396 126 l 426 82 l 396 38 l 354 -14 l 303 28 l 247 0 l 192 28 l 153 -25 l 104 99 m 182 833 l 171 847 l 151 839 l 156 818 l 175 818 l 182 833 m 800 838 l 779 811 l 774 775 l 813 781 l 822 811 l 800 838 m 164 786 l 131 789 l 131 760 l 143 733 l 172 753 l 164 786 m 910 710 l 888 725 l 874 707 l 882 693 l 901 686 l 910 710 m 176 697 l 161 703 l 147 690 l 154 665 l 175 679 l 176 697 m 288 681 l 268 688 l 258 668 l 275 651 l 289 665 l 288 681 m 290 611 l 200 507 l 232 417 l 342 376 l 388 500 l 290 611 m 832 576 l 774 589 l 751 544 l 771 486 l 843 506 l 832 576 m 681 494 l 669 511 l 642 510 l 649 483 l 674 465 l 681 494 m 938 472 l 918 482 l 897 479 l 900 456 l 922 456 l 938 472 m 529 479 l 515 463 l 514 440 l 535 446 l 547 463 l 529 479 m 932 392 l 915 413 l 878 403 l 892 365 l 932 356 l 932 392 m 203 311 l 165 307 l 144 285 l 167 257 l 207 265 l 203 311 m 190 208 l 167 206 l 176 183 l 199 168 l 210 194 l 190 208 m 908 146 l 888 163 l 867 146 l 863 110 l 904 111 l 908 146 m 313 60 l 300 76 l 279 69 l 279 47 l 299 49 l 313 60 m 274 1110 l 294 1158 l 340 1183 l 363 1239 l 418 1263 l 463 1288 l 511 1271 l 561 1289 l 610 1271 l 661 1257 l 699 1219 l 744 1199 l 761 1150 l 808 1126 l 828 1078 l 793 1046 l 747 1049 l 688 1043 l 636 1072 l 604 1068 l 586 1094 l 547 1086 l 511 1106 l 476 1075 l 431 1069 l 397 1036 l 353 1049 l 304 1024 l 274 1110 m 553 1222 l 543 1221 l 533 1213 l 544 1204 l 553 1211 l 553 1222 m 726 1088 l 721 1096 l 710 1093 l 713 1083 l 722 1075 l 726 1088 z "},"I":{"ha":511,"x_min":51,"x_max":460,"o":"m 104 93 l 76 149 l 104 204 l 65 260 l 104 314 l 71 361 l 104 408 l 57 439 l 104 469 l 51 503 l 104 536 l 63 583 l 104 631 l 64 678 l 104 724 l 69 754 l 104 785 l 60 821 l 104 857 l 89 915 l 142 944 l 183 978 l 225 944 l 281 988 l 336 944 l 385 978 l 407 924 l 439 893 l 407 863 l 443 804 l 407 746 l 438 708 l 407 669 l 435 642 l 407 614 l 457 575 l 407 536 l 460 506 l 407 475 l 456 428 l 407 381 l 444 336 l 407 292 l 444 238 l 407 182 l 443 138 l 407 93 l 419 50 l 381 28 l 336 -3 l 292 28 l 250 -7 l 208 28 l 161 -21 l 104 93 m 174 918 l 163 935 l 142 924 l 149 904 l 169 899 l 174 918 m 336 919 l 324 931 l 307 926 l 303 903 l 328 900 l 336 919 m 368 824 l 318 863 l 269 822 l 299 781 l 342 775 l 368 824 m 218 750 l 164 774 l 135 721 l 164 658 l 226 692 l 218 750 m 379 654 l 336 682 l 290 649 l 314 594 l 376 597 l 379 654 m 232 574 l 219 572 l 215 564 l 222 554 l 235 560 l 232 574 m 236 496 l 218 503 l 204 493 l 210 475 l 229 476 l 236 496 m 189 464 l 171 479 l 150 471 l 154 447 l 176 443 l 189 464 m 333 426 l 260 432 l 249 358 l 306 317 l 346 368 l 333 426 m 169 317 l 146 319 l 140 297 l 156 281 l 178 293 l 169 317 m 304 201 l 257 222 l 229 174 l 264 121 l 325 149 l 304 201 m 376 171 l 365 167 l 369 156 l 381 150 l 386 163 l 376 171 m 233 99 l 211 101 l 210 76 l 232 67 l 251 83 l 233 99 m 321 88 l 307 92 l 292 82 l 306 71 l 317 74 l 321 88 z "},"Ĳ":{"ha":1121,"x_min":50,"x_max":1074,"o":"m 574 78 l 536 106 l 574 133 l 554 179 l 574 225 l 603 275 l 660 272 l 649 332 l 710 331 l 675 375 l 721 408 l 693 461 l 721 514 l 688 550 l 721 586 l 689 636 l 721 685 l 676 715 l 721 746 l 693 804 l 721 863 l 682 919 l 747 944 l 793 997 l 840 944 l 892 982 l 944 944 l 993 981 l 1025 929 l 1069 885 l 1025 840 l 1072 804 l 1025 768 l 1056 710 l 1025 651 l 1053 603 l 1025 553 l 1074 522 l 1025 492 l 1058 464 l 1025 436 l 1063 383 l 1025 331 l 1063 281 l 1013 242 l 1026 185 l 978 154 l 982 97 l 925 96 l 906 51 l 858 56 l 839 18 l 800 36 l 756 -3 l 701 19 l 676 -31 l 644 15 l 615 -36 l 574 78 m 104 76 l 72 124 l 104 171 l 54 210 l 104 249 l 54 303 l 104 358 l 50 389 l 104 419 l 53 450 l 104 481 l 71 536 l 104 592 l 56 647 l 104 703 l 64 740 l 104 779 l 58 807 l 104 835 l 53 882 l 104 929 l 131 976 l 175 944 l 228 978 l 281 944 l 314 975 l 347 944 l 388 981 l 407 929 l 440 899 l 407 868 l 438 840 l 407 813 l 460 763 l 407 713 l 439 661 l 407 608 l 450 569 l 407 531 l 446 472 l 407 414 l 447 358 l 407 303 l 426 251 l 407 199 l 438 143 l 407 88 l 408 32 l 353 28 l 325 -26 l 297 28 l 244 -15 l 192 28 l 153 -3 l 104 76 m 239 854 l 229 876 l 203 868 l 201 839 l 228 839 l 239 854 m 958 831 l 914 814 l 929 776 l 956 769 l 971 793 l 958 831 m 215 740 l 171 769 l 151 715 l 181 671 l 232 694 l 215 740 m 836 667 l 797 674 l 806 636 l 832 601 l 853 642 l 836 667 m 757 654 l 743 658 l 736 643 l 749 638 l 758 642 l 757 654 m 944 596 l 921 592 l 928 567 l 951 561 l 963 583 l 944 596 m 318 583 l 290 586 l 276 563 l 299 544 l 331 553 l 318 583 m 229 464 l 190 514 l 138 476 l 139 408 l 217 396 l 229 464 m 881 508 l 849 504 l 857 476 l 878 471 l 903 486 l 881 508 m 343 481 l 307 476 l 288 446 l 318 429 l 344 444 l 343 481 m 836 322 l 817 339 l 786 335 l 799 306 l 824 300 l 836 322 m 318 258 l 289 322 l 217 290 l 244 232 l 294 199 l 318 258 m 788 221 l 728 188 l 713 110 l 793 108 l 829 164 l 788 221 m 174 200 l 144 174 l 146 135 l 196 124 l 204 172 l 174 200 z "},"Í":{"ha":511,"x_min":51,"x_max":582,"o":"m 104 93 l 76 149 l 104 204 l 65 260 l 104 314 l 71 361 l 104 408 l 57 439 l 104 469 l 51 503 l 104 536 l 63 583 l 104 631 l 64 678 l 104 724 l 69 754 l 104 785 l 60 821 l 104 857 l 89 915 l 142 944 l 183 978 l 225 944 l 281 988 l 336 944 l 385 978 l 407 924 l 439 893 l 407 863 l 443 804 l 407 746 l 438 708 l 407 669 l 435 642 l 407 614 l 457 575 l 407 536 l 460 506 l 407 475 l 456 428 l 407 381 l 444 336 l 407 292 l 444 238 l 407 182 l 443 138 l 407 93 l 419 50 l 381 28 l 336 -3 l 292 28 l 250 -7 l 208 28 l 161 -21 l 104 93 m 174 918 l 163 935 l 142 924 l 149 904 l 169 899 l 174 918 m 336 919 l 324 931 l 307 926 l 303 903 l 328 900 l 336 919 m 368 824 l 318 863 l 269 822 l 299 781 l 342 775 l 368 824 m 218 750 l 164 774 l 135 721 l 164 658 l 226 692 l 218 750 m 379 654 l 336 682 l 290 649 l 314 594 l 376 597 l 379 654 m 232 574 l 219 572 l 215 564 l 222 554 l 235 560 l 232 574 m 236 496 l 218 503 l 204 493 l 210 475 l 229 476 l 236 496 m 189 464 l 171 479 l 150 471 l 154 447 l 176 443 l 189 464 m 333 426 l 260 432 l 249 358 l 306 317 l 346 368 l 333 426 m 169 317 l 146 319 l 140 297 l 156 281 l 178 293 l 169 317 m 304 201 l 257 222 l 229 174 l 264 121 l 325 149 l 304 201 m 376 171 l 365 167 l 369 156 l 381 150 l 386 163 l 376 171 m 233 99 l 211 101 l 210 76 l 232 67 l 251 83 l 233 99 m 321 88 l 307 92 l 292 82 l 306 71 l 317 74 l 321 88 m 128 1090 l 139 1138 l 183 1158 l 194 1194 l 228 1214 l 233 1250 l 268 1260 l 325 1283 l 385 1271 l 413 1288 l 440 1271 l 474 1297 l 507 1271 l 540 1286 l 574 1271 l 582 1239 l 560 1214 l 535 1169 l 488 1156 l 468 1108 l 419 1099 l 399 1053 l 349 1050 l 315 1036 l 281 1049 l 250 1035 l 221 1049 l 174 1024 l 128 1090 m 510 1213 l 493 1236 l 461 1231 l 464 1196 l 494 1190 l 510 1213 m 288 1210 l 274 1217 l 263 1207 l 268 1193 l 289 1188 l 288 1210 m 322 1129 l 276 1143 l 244 1114 l 264 1074 l 307 1083 l 322 1129 z "},"Ĭ":{"ha":511,"x_min":13,"x_max":493,"o":"m 104 93 l 76 149 l 104 204 l 65 260 l 104 314 l 71 361 l 104 408 l 57 439 l 104 469 l 51 503 l 104 536 l 63 583 l 104 631 l 64 678 l 104 724 l 69 754 l 104 785 l 60 821 l 104 857 l 89 915 l 142 944 l 183 978 l 225 944 l 281 988 l 336 944 l 385 978 l 407 924 l 439 893 l 407 863 l 443 804 l 407 746 l 438 708 l 407 669 l 435 642 l 407 614 l 457 575 l 407 536 l 460 506 l 407 475 l 456 428 l 407 381 l 444 336 l 407 292 l 444 238 l 407 182 l 443 138 l 407 93 l 419 50 l 381 28 l 336 -3 l 292 28 l 250 -7 l 208 28 l 161 -21 l 104 93 m 174 918 l 163 935 l 142 924 l 149 904 l 169 899 l 174 918 m 336 919 l 324 931 l 307 926 l 303 903 l 328 900 l 336 919 m 368 824 l 318 863 l 269 822 l 299 781 l 342 775 l 368 824 m 218 750 l 164 774 l 135 721 l 164 658 l 226 692 l 218 750 m 379 654 l 336 682 l 290 649 l 314 594 l 376 597 l 379 654 m 232 574 l 219 572 l 215 564 l 222 554 l 235 560 l 232 574 m 236 496 l 218 503 l 204 493 l 210 475 l 229 476 l 236 496 m 189 464 l 171 479 l 150 471 l 154 447 l 176 443 l 189 464 m 333 426 l 260 432 l 249 358 l 306 317 l 346 368 l 333 426 m 169 317 l 146 319 l 140 297 l 156 281 l 178 293 l 169 317 m 304 201 l 257 222 l 229 174 l 264 121 l 325 149 l 304 201 m 376 171 l 365 167 l 369 156 l 381 150 l 386 163 l 376 171 m 233 99 l 211 101 l 210 76 l 232 67 l 251 83 l 233 99 m 321 88 l 307 92 l 292 82 l 306 71 l 317 74 l 321 88 m 167 1053 l 128 1049 l 104 1079 l 64 1079 l 58 1119 l 24 1140 l 26 1179 l 13 1222 l 25 1267 l 82 1288 l 140 1271 l 172 1265 l 193 1240 l 233 1214 l 250 1168 l 271 1203 l 311 1207 l 318 1246 l 349 1271 l 407 1285 l 464 1271 l 493 1244 l 490 1207 l 489 1156 l 453 1119 l 415 1076 l 361 1057 l 311 1028 l 167 1053 m 135 1263 l 125 1260 l 124 1251 l 133 1242 l 143 1254 l 135 1263 m 397 1211 l 390 1228 l 375 1217 l 378 1201 l 394 1193 l 397 1211 m 104 1138 l 89 1158 l 68 1144 l 65 1114 l 96 1118 l 104 1138 z "},"Î":{"ha":511,"x_min":-7,"x_max":547,"o":"m 104 93 l 76 149 l 104 204 l 65 260 l 104 314 l 71 361 l 104 408 l 57 439 l 104 469 l 51 503 l 104 536 l 63 583 l 104 631 l 64 678 l 104 724 l 69 754 l 104 785 l 60 821 l 104 857 l 89 915 l 142 944 l 183 978 l 225 944 l 281 988 l 336 944 l 385 978 l 407 924 l 439 893 l 407 863 l 443 804 l 407 746 l 438 708 l 407 669 l 435 642 l 407 614 l 457 575 l 407 536 l 460 506 l 407 475 l 456 428 l 407 381 l 444 336 l 407 292 l 444 238 l 407 182 l 443 138 l 407 93 l 419 50 l 381 28 l 336 -3 l 292 28 l 250 -7 l 208 28 l 161 -21 l 104 93 m 174 918 l 163 935 l 142 924 l 149 904 l 169 899 l 174 918 m 336 919 l 324 931 l 307 926 l 303 903 l 328 900 l 336 919 m 368 824 l 318 863 l 269 822 l 299 781 l 342 775 l 368 824 m 218 750 l 164 774 l 135 721 l 164 658 l 226 692 l 218 750 m 379 654 l 336 682 l 290 649 l 314 594 l 376 597 l 379 654 m 232 574 l 219 572 l 215 564 l 222 554 l 235 560 l 232 574 m 236 496 l 218 503 l 204 493 l 210 475 l 229 476 l 236 496 m 189 464 l 171 479 l 150 471 l 154 447 l 176 443 l 189 464 m 333 426 l 260 432 l 249 358 l 306 317 l 346 368 l 333 426 m 169 317 l 146 319 l 140 297 l 156 281 l 178 293 l 169 317 m 304 201 l 257 222 l 229 174 l 264 121 l 325 149 l 304 201 m 376 171 l 365 167 l 369 156 l 381 150 l 386 163 l 376 171 m 233 99 l 211 101 l 210 76 l 232 67 l 251 83 l 233 99 m 321 88 l 307 92 l 292 82 l 306 71 l 317 74 l 321 88 m -7 1110 l 14 1158 l 60 1183 l 82 1239 l 138 1263 l 182 1288 l 231 1271 l 281 1289 l 329 1271 l 381 1257 l 418 1219 l 464 1199 l 481 1150 l 528 1126 l 547 1078 l 513 1046 l 467 1049 l 407 1043 l 356 1072 l 324 1068 l 306 1094 l 267 1086 l 231 1106 l 196 1075 l 150 1069 l 117 1036 l 72 1049 l 24 1024 l -7 1110 m 272 1222 l 263 1221 l 253 1213 l 264 1204 l 272 1211 l 272 1222 m 446 1088 l 440 1096 l 429 1093 l 432 1083 l 442 1075 l 446 1088 z "},"Ï":{"ha":511,"x_min":-67,"x_max":579,"o":"m 104 93 l 76 149 l 104 204 l 65 260 l 104 314 l 71 361 l 104 408 l 57 439 l 104 469 l 51 503 l 104 536 l 63 583 l 104 631 l 64 678 l 104 724 l 69 754 l 104 785 l 60 821 l 104 857 l 89 915 l 142 944 l 183 978 l 225 944 l 281 988 l 336 944 l 385 978 l 407 924 l 439 893 l 407 863 l 443 804 l 407 746 l 438 708 l 407 669 l 435 642 l 407 614 l 457 575 l 407 536 l 460 506 l 407 475 l 456 428 l 407 381 l 444 336 l 407 292 l 444 238 l 407 182 l 443 138 l 407 93 l 419 50 l 381 28 l 336 -3 l 292 28 l 250 -7 l 208 28 l 161 -21 l 104 93 m 174 918 l 163 935 l 142 924 l 149 904 l 169 899 l 174 918 m 336 919 l 324 931 l 307 926 l 303 903 l 328 900 l 336 919 m 368 824 l 318 863 l 269 822 l 299 781 l 342 775 l 368 824 m 218 750 l 164 774 l 135 721 l 164 658 l 226 692 l 218 750 m 379 654 l 336 682 l 290 649 l 314 594 l 376 597 l 379 654 m 232 574 l 219 572 l 215 564 l 222 554 l 235 560 l 232 574 m 236 496 l 218 503 l 204 493 l 210 475 l 229 476 l 236 496 m 189 464 l 171 479 l 150 471 l 154 447 l 176 443 l 189 464 m 333 426 l 260 432 l 249 358 l 306 317 l 346 368 l 333 426 m 169 317 l 146 319 l 140 297 l 156 281 l 178 293 l 169 317 m 304 201 l 257 222 l 229 174 l 264 121 l 325 149 l 304 201 m 376 171 l 365 167 l 369 156 l 381 150 l 386 163 l 376 171 m 233 99 l 211 101 l 210 76 l 232 67 l 251 83 l 233 99 m 321 88 l 307 92 l 292 82 l 306 71 l 317 74 l 321 88 m 340 1054 l 317 1078 l 331 1107 l 313 1149 l 331 1190 l 313 1218 l 331 1246 l 356 1278 l 394 1271 l 447 1293 l 500 1271 l 539 1257 l 553 1218 l 574 1171 l 553 1124 l 579 1096 l 553 1068 l 507 1043 l 456 1049 l 406 1024 l 340 1054 m -43 1079 l -62 1129 l -43 1179 l -67 1222 l -37 1261 l 13 1282 l 65 1271 l 99 1288 l 132 1271 l 168 1256 l 179 1218 l 193 1176 l 179 1135 l 190 1093 l 169 1054 l 125 1025 l 76 1049 l 29 1026 l -43 1079 m 114 1251 l 101 1247 l 100 1235 l 113 1224 l 125 1239 l 114 1251 m 493 1129 l 479 1118 l 479 1104 l 494 1101 l 506 1114 l 493 1129 m 51 1108 l 32 1110 l 24 1093 l 39 1081 l 57 1089 l 51 1108 z "},"İ":{"ha":511,"x_min":51,"x_max":460,"o":"m 104 93 l 76 149 l 104 204 l 65 260 l 104 314 l 71 361 l 104 408 l 57 439 l 104 469 l 51 503 l 104 536 l 63 583 l 104 631 l 64 678 l 104 724 l 69 754 l 104 785 l 60 821 l 104 857 l 89 915 l 142 944 l 183 978 l 225 944 l 281 988 l 336 944 l 385 978 l 407 924 l 439 893 l 407 863 l 443 804 l 407 746 l 438 708 l 407 669 l 435 642 l 407 614 l 457 575 l 407 536 l 460 506 l 407 475 l 456 428 l 407 381 l 444 336 l 407 292 l 444 238 l 407 182 l 443 138 l 407 93 l 419 50 l 381 28 l 336 -3 l 292 28 l 250 -7 l 208 28 l 161 -21 l 104 93 m 174 918 l 163 935 l 142 924 l 149 904 l 169 899 l 174 918 m 336 919 l 324 931 l 307 926 l 303 903 l 328 900 l 336 919 m 368 824 l 318 863 l 269 822 l 299 781 l 342 775 l 368 824 m 218 750 l 164 774 l 135 721 l 164 658 l 226 692 l 218 750 m 379 654 l 336 682 l 290 649 l 314 594 l 376 597 l 379 654 m 232 574 l 219 572 l 215 564 l 222 554 l 235 560 l 232 574 m 236 496 l 218 503 l 204 493 l 210 475 l 229 476 l 236 496 m 189 464 l 171 479 l 150 471 l 154 447 l 176 443 l 189 464 m 333 426 l 260 432 l 249 358 l 306 317 l 346 368 l 333 426 m 169 317 l 146 319 l 140 297 l 156 281 l 178 293 l 169 317 m 304 201 l 257 222 l 229 174 l 264 121 l 325 149 l 304 201 m 376 171 l 365 167 l 369 156 l 381 150 l 386 163 l 376 171 m 233 99 l 211 101 l 210 76 l 232 67 l 251 83 l 233 99 m 321 88 l 307 92 l 292 82 l 306 71 l 317 74 l 321 88 m 142 1058 l 115 1103 l 136 1151 l 110 1204 l 136 1257 l 142 1288 l 172 1288 l 222 1313 l 272 1288 l 300 1303 l 328 1288 l 344 1274 l 318 1264 l 319 1231 l 356 1224 l 363 1254 l 349 1272 l 344 1274 l 346 1275 l 349 1272 l 363 1261 l 375 1218 l 396 1185 l 375 1151 l 400 1121 l 375 1090 l 356 1061 l 322 1049 l 283 1028 l 244 1049 l 203 1029 l 142 1058 m 301 1181 l 283 1172 l 279 1156 l 297 1142 l 319 1158 l 301 1181 z "},"Ì":{"ha":511,"x_min":-57,"x_max":460,"o":"m 104 93 l 76 149 l 104 204 l 65 260 l 104 314 l 71 361 l 104 408 l 57 439 l 104 469 l 51 503 l 104 536 l 63 583 l 104 631 l 64 678 l 104 724 l 69 754 l 104 785 l 60 821 l 104 857 l 89 915 l 142 944 l 183 978 l 225 944 l 281 988 l 336 944 l 385 978 l 407 924 l 439 893 l 407 863 l 443 804 l 407 746 l 438 708 l 407 669 l 435 642 l 407 614 l 457 575 l 407 536 l 460 506 l 407 475 l 456 428 l 407 381 l 444 336 l 407 292 l 444 238 l 407 182 l 443 138 l 407 93 l 419 50 l 381 28 l 336 -3 l 292 28 l 250 -7 l 208 28 l 161 -21 l 104 93 m 174 918 l 163 935 l 142 924 l 149 904 l 169 899 l 174 918 m 336 919 l 324 931 l 307 926 l 303 903 l 328 900 l 336 919 m 368 824 l 318 863 l 269 822 l 299 781 l 342 775 l 368 824 m 218 750 l 164 774 l 135 721 l 164 658 l 226 692 l 218 750 m 379 654 l 336 682 l 290 649 l 314 594 l 376 597 l 379 654 m 232 574 l 219 572 l 215 564 l 222 554 l 235 560 l 232 574 m 236 496 l 218 503 l 204 493 l 210 475 l 229 476 l 236 496 m 189 464 l 171 479 l 150 471 l 154 447 l 176 443 l 189 464 m 333 426 l 260 432 l 249 358 l 306 317 l 346 368 l 333 426 m 169 317 l 146 319 l 140 297 l 156 281 l 178 293 l 169 317 m 304 201 l 257 222 l 229 174 l 264 121 l 325 149 l 304 201 m 376 171 l 365 167 l 369 156 l 381 150 l 386 163 l 376 171 m 233 99 l 211 101 l 210 76 l 232 67 l 251 83 l 233 99 m 321 88 l 307 92 l 292 82 l 306 71 l 317 74 l 321 88 m 125 1071 l 81 1078 l 65 1119 l 17 1131 l -3 1176 l -37 1186 l -54 1218 l -57 1251 l -31 1271 l 11 1288 l 53 1271 l 94 1285 l 136 1271 l 188 1286 l 238 1264 l 289 1242 l 303 1188 l 349 1169 l 358 1121 l 393 1113 l 393 1078 l 381 1050 l 350 1049 l 292 1035 l 235 1049 l 207 1035 l 125 1071 m 178 1250 l 125 1226 l 133 1181 l 174 1158 l 197 1200 l 178 1250 z "},"Ī":{"ha":511,"x_min":-56,"x_max":563,"o":"m 104 93 l 76 149 l 104 204 l 65 260 l 104 314 l 71 361 l 104 408 l 57 439 l 104 469 l 51 503 l 104 536 l 63 583 l 104 631 l 64 678 l 104 724 l 69 754 l 104 785 l 60 821 l 104 857 l 89 915 l 142 944 l 183 978 l 225 944 l 281 988 l 336 944 l 385 978 l 407 924 l 439 893 l 407 863 l 443 804 l 407 746 l 438 708 l 407 669 l 435 642 l 407 614 l 457 575 l 407 536 l 460 506 l 407 475 l 456 428 l 407 381 l 444 336 l 407 292 l 444 238 l 407 182 l 443 138 l 407 93 l 419 50 l 381 28 l 336 -3 l 292 28 l 250 -7 l 208 28 l 161 -21 l 104 93 m 174 918 l 163 935 l 142 924 l 149 904 l 169 899 l 174 918 m 336 919 l 324 931 l 307 926 l 303 903 l 328 900 l 336 919 m 368 824 l 318 863 l 269 822 l 299 781 l 342 775 l 368 824 m 218 750 l 164 774 l 135 721 l 164 658 l 226 692 l 218 750 m 379 654 l 336 682 l 290 649 l 314 594 l 376 597 l 379 654 m 232 574 l 219 572 l 215 564 l 222 554 l 235 560 l 232 574 m 236 496 l 218 503 l 204 493 l 210 475 l 229 476 l 236 496 m 189 464 l 171 479 l 150 471 l 154 447 l 176 443 l 189 464 m 333 426 l 260 432 l 249 358 l 306 317 l 346 368 l 333 426 m 169 317 l 146 319 l 140 297 l 156 281 l 178 293 l 169 317 m 304 201 l 257 222 l 229 174 l 264 121 l 325 149 l 304 201 m 376 171 l 365 167 l 369 156 l 381 150 l 386 163 l 376 171 m 233 99 l 211 101 l 210 76 l 232 67 l 251 83 l 233 99 m 321 88 l 307 92 l 292 82 l 306 71 l 317 74 l 321 88 m -32 1129 l -56 1179 l -29 1229 l -6 1261 l 32 1243 l 71 1264 l 108 1243 l 161 1269 l 214 1243 l 250 1260 l 285 1243 l 313 1257 l 340 1243 l 382 1263 l 424 1243 l 456 1264 l 489 1243 l 528 1229 l 542 1190 l 563 1154 l 542 1118 l 532 1076 l 500 1049 l 469 1025 l 439 1049 l 410 1033 l 379 1049 l 329 1024 l 279 1049 l 236 1025 l 192 1049 l 164 1035 l 136 1049 l 106 1024 l 76 1049 l 35 1029 l -32 1129 m 147 1093 l 133 1092 l 132 1075 l 149 1075 l 160 1086 l 147 1093 z "},"Į":{"ha":511,"x_min":50,"x_max":461,"o":"m 300 -271 l 231 -285 l 213 -215 l 158 -203 l 178 -151 l 122 -135 l 168 -97 l 119 -46 l 157 15 l 110 28 l 104 76 l 51 129 l 104 182 l 60 226 l 104 269 l 76 314 l 104 358 l 68 386 l 104 414 l 69 450 l 104 486 l 75 542 l 104 597 l 69 639 l 104 681 l 68 729 l 104 779 l 50 818 l 104 857 l 68 915 l 131 944 l 158 988 l 186 944 l 214 983 l 242 944 l 294 999 l 347 944 l 390 989 l 407 929 l 458 899 l 407 868 l 436 815 l 407 763 l 443 713 l 407 664 l 461 606 l 407 547 l 439 511 l 407 475 l 460 428 l 407 381 l 443 333 l 407 286 l 440 240 l 407 193 l 454 151 l 407 110 l 453 60 l 393 28 l 369 -32 l 319 7 l 351 -51 l 286 -64 l 344 -93 l 339 -158 l 394 -124 l 407 -187 l 421 -243 l 300 -271 m 346 929 l 333 936 l 326 924 l 333 910 l 346 917 l 346 929 m 196 901 l 165 900 l 146 879 l 171 867 l 196 869 l 196 901 m 304 850 l 289 860 l 274 858 l 275 842 l 292 832 l 304 850 m 303 801 l 275 790 l 275 764 l 299 756 l 324 774 l 303 801 m 247 731 l 236 739 l 221 728 l 229 710 l 249 713 l 247 731 m 374 625 l 358 643 l 329 629 l 346 603 l 371 601 l 374 625 m 193 618 l 171 615 l 153 596 l 178 576 l 193 597 l 193 618 m 328 553 l 281 571 l 244 547 l 258 504 l 308 499 l 328 553 m 264 454 l 228 475 l 204 446 l 221 421 l 244 426 l 264 454 m 342 349 l 322 376 l 283 364 l 292 325 l 329 314 l 342 349 m 169 303 l 151 310 l 138 304 l 142 288 l 156 289 l 169 303 m 193 154 l 179 153 l 174 138 l 189 136 l 196 143 l 193 154 m 272 151 l 233 144 l 217 106 l 257 96 l 278 115 l 272 151 m 285 -106 l 275 -97 l 264 -107 l 271 -117 l 282 -118 l 285 -106 z "},"Ĩ":{"ha":511,"x_min":-12,"x_max":524,"o":"m 104 93 l 76 149 l 104 204 l 65 260 l 104 314 l 71 361 l 104 408 l 57 439 l 104 469 l 51 503 l 104 536 l 63 583 l 104 631 l 64 678 l 104 724 l 69 754 l 104 785 l 60 821 l 104 857 l 89 915 l 142 944 l 183 978 l 225 944 l 281 988 l 336 944 l 385 978 l 407 924 l 439 893 l 407 863 l 443 804 l 407 746 l 438 708 l 407 669 l 435 642 l 407 614 l 457 575 l 407 536 l 460 506 l 407 475 l 456 428 l 407 381 l 444 336 l 407 292 l 444 238 l 407 182 l 443 138 l 407 93 l 419 50 l 381 28 l 336 -3 l 292 28 l 250 -7 l 208 28 l 161 -21 l 104 93 m 174 918 l 163 935 l 142 924 l 149 904 l 169 899 l 174 918 m 336 919 l 324 931 l 307 926 l 303 903 l 328 900 l 336 919 m 368 824 l 318 863 l 269 822 l 299 781 l 342 775 l 368 824 m 218 750 l 164 774 l 135 721 l 164 658 l 226 692 l 218 750 m 379 654 l 336 682 l 290 649 l 314 594 l 376 597 l 379 654 m 232 574 l 219 572 l 215 564 l 222 554 l 235 560 l 232 574 m 236 496 l 218 503 l 204 493 l 210 475 l 229 476 l 236 496 m 189 464 l 171 479 l 150 471 l 154 447 l 176 443 l 189 464 m 333 426 l 260 432 l 249 358 l 306 317 l 346 368 l 333 426 m 169 317 l 146 319 l 140 297 l 156 281 l 178 293 l 169 317 m 304 201 l 257 222 l 229 174 l 264 121 l 325 149 l 304 201 m 376 171 l 365 167 l 369 156 l 381 150 l 386 163 l 376 171 m 233 99 l 211 101 l 210 76 l 232 67 l 251 83 l 233 99 m 321 88 l 307 92 l 292 82 l 306 71 l 317 74 l 321 88 m 293 1050 l 253 1053 l 225 1083 l 188 1060 l 144 1074 l 131 1044 l 99 1049 l 49 1026 l -1 1049 l -12 1101 l -4 1154 l -6 1189 l 24 1208 l 40 1251 l 86 1261 l 125 1294 l 172 1278 l 215 1283 l 249 1256 l 296 1258 l 331 1228 l 372 1265 l 428 1271 l 469 1292 l 511 1271 l 524 1221 l 515 1168 l 513 1122 l 474 1096 l 453 1057 l 410 1051 l 382 1026 l 293 1050 m 117 1225 l 90 1218 l 71 1190 l 106 1172 l 121 1199 l 117 1225 m 244 1160 l 210 1196 l 158 1172 l 171 1115 l 224 1118 l 244 1160 z "},"J":{"ha":975,"x_min":1,"x_max":933,"o":"m 393 17 l 340 -3 l 300 35 l 244 0 l 226 61 l 167 61 l 142 117 l 90 106 l 104 157 l 60 175 l 64 224 l 1 264 l 42 326 l 92 374 l 144 329 l 172 383 l 200 329 l 256 360 l 311 329 l 367 331 l 374 276 l 421 288 l 415 239 l 467 294 l 525 244 l 519 301 l 571 325 l 526 368 l 575 408 l 546 447 l 575 486 l 525 539 l 575 590 l 521 643 l 575 696 l 532 672 l 514 718 l 479 690 l 443 718 l 385 678 l 328 718 l 292 682 l 256 718 l 222 679 l 190 718 l 143 685 l 125 739 l 79 785 l 125 832 l 86 878 l 125 924 l 149 986 l 201 944 l 249 994 l 294 944 l 328 979 l 361 944 l 392 978 l 422 944 l 467 990 l 510 944 l 551 992 l 593 944 l 649 972 l 704 944 l 740 976 l 775 944 l 817 988 l 858 944 l 903 922 l 879 879 l 908 840 l 879 801 l 922 743 l 879 685 l 911 647 l 879 608 l 933 581 l 879 553 l 919 508 l 879 464 l 925 419 l 879 375 l 908 346 l 878 319 l 911 267 l 858 232 l 885 189 l 835 182 l 838 138 l 794 129 l 786 61 l 718 72 l 708 11 l 657 44 l 626 -1 l 576 24 l 519 -28 l 393 17 m 789 896 l 760 904 l 736 892 l 740 853 l 781 860 l 789 896 m 571 838 l 506 858 l 499 790 l 542 765 l 607 779 l 571 838 m 874 840 l 844 851 l 818 839 l 833 815 l 857 813 l 874 840 m 390 815 l 375 806 l 383 792 l 399 788 l 407 804 l 390 815 m 324 776 l 300 768 l 294 740 l 321 742 l 335 756 l 324 776 m 796 756 l 760 764 l 749 726 l 778 708 l 813 722 l 796 756 m 826 644 l 778 654 l 754 629 l 765 594 l 815 588 l 826 644 m 815 431 l 790 428 l 788 403 l 810 390 l 831 408 l 815 431 m 733 388 l 717 385 l 718 365 l 738 357 l 746 375 l 733 388 m 847 338 l 826 328 l 825 299 l 853 303 l 871 322 l 847 338 m 321 285 l 303 296 l 293 275 l 308 261 l 324 268 l 321 285 m 590 197 l 576 233 l 542 214 l 538 176 l 578 158 l 590 197 m 303 213 l 288 224 l 271 215 l 274 193 l 294 196 l 303 213 m 469 172 l 435 179 l 432 139 l 467 124 l 496 150 l 469 172 m 385 99 l 357 99 l 356 65 l 385 65 l 403 82 l 385 99 z "},"Ĵ":{"ha":975,"x_min":1,"x_max":933,"o":"m 393 17 l 340 -3 l 300 35 l 244 0 l 226 61 l 167 61 l 142 117 l 90 106 l 104 157 l 60 175 l 64 224 l 1 264 l 42 326 l 92 374 l 144 329 l 172 383 l 200 329 l 256 360 l 311 329 l 367 331 l 374 276 l 421 288 l 415 239 l 467 294 l 525 244 l 519 301 l 571 325 l 526 368 l 575 408 l 546 447 l 575 486 l 525 539 l 575 590 l 521 643 l 575 696 l 532 672 l 514 718 l 479 690 l 443 718 l 385 678 l 328 718 l 292 682 l 256 718 l 222 679 l 190 718 l 143 685 l 125 739 l 79 785 l 125 832 l 86 878 l 125 924 l 149 986 l 201 944 l 249 994 l 294 944 l 328 979 l 361 944 l 392 978 l 422 944 l 467 990 l 510 944 l 551 992 l 593 944 l 649 972 l 704 944 l 740 976 l 775 944 l 817 988 l 858 944 l 903 922 l 879 879 l 908 840 l 879 801 l 922 743 l 879 685 l 911 647 l 879 608 l 933 581 l 879 553 l 919 508 l 879 464 l 925 419 l 879 375 l 908 346 l 878 319 l 911 267 l 858 232 l 885 189 l 835 182 l 838 138 l 794 129 l 786 61 l 718 72 l 708 11 l 657 44 l 626 -1 l 576 24 l 519 -28 l 393 17 m 789 896 l 760 904 l 736 892 l 740 853 l 781 860 l 789 896 m 571 838 l 506 858 l 499 790 l 542 765 l 607 779 l 571 838 m 874 840 l 844 851 l 818 839 l 833 815 l 857 813 l 874 840 m 390 815 l 375 806 l 383 792 l 399 788 l 407 804 l 390 815 m 324 776 l 300 768 l 294 740 l 321 742 l 335 756 l 324 776 m 796 756 l 760 764 l 749 726 l 778 708 l 813 722 l 796 756 m 826 644 l 778 654 l 754 629 l 765 594 l 815 588 l 826 644 m 815 431 l 790 428 l 788 403 l 810 390 l 831 408 l 815 431 m 733 388 l 717 385 l 718 365 l 738 357 l 746 375 l 733 388 m 847 338 l 826 328 l 825 299 l 853 303 l 871 322 l 847 338 m 321 285 l 303 296 l 293 275 l 308 261 l 324 268 l 321 285 m 590 197 l 576 233 l 542 214 l 538 176 l 578 158 l 590 197 m 303 213 l 288 224 l 271 215 l 274 193 l 294 196 l 303 213 m 469 172 l 435 179 l 432 139 l 467 124 l 496 150 l 469 172 m 385 99 l 357 99 l 356 65 l 385 65 l 403 82 l 385 99 m 253 1110 l 274 1158 l 319 1183 l 342 1239 l 397 1263 l 442 1288 l 490 1271 l 540 1289 l 589 1271 l 640 1257 l 678 1219 l 724 1199 l 740 1150 l 788 1126 l 807 1078 l 772 1046 l 726 1049 l 667 1043 l 615 1072 l 583 1068 l 565 1094 l 526 1086 l 490 1106 l 456 1075 l 410 1069 l 376 1036 l 332 1049 l 283 1024 l 253 1110 m 532 1222 l 522 1221 l 513 1213 l 524 1204 l 532 1211 l 532 1222 m 706 1088 l 700 1096 l 689 1093 l 692 1083 l 701 1075 l 706 1088 z "},"K":{"ha":993,"x_min":51,"x_max":979,"o":"m 104 54 l 76 110 l 104 165 l 67 210 l 104 254 l 56 311 l 104 369 l 72 414 l 104 458 l 51 508 l 104 558 l 61 606 l 104 653 l 76 711 l 104 768 l 60 821 l 104 874 l 108 926 l 158 944 l 211 975 l 263 944 l 318 999 l 374 944 l 410 925 l 389 890 l 422 844 l 389 797 l 421 761 l 389 726 l 418 696 l 404 656 l 421 692 l 451 665 l 454 710 l 492 736 l 481 796 l 538 818 l 525 860 l 567 871 l 540 917 l 593 918 l 628 969 l 683 944 l 714 982 l 744 944 l 772 972 l 799 944 l 826 972 l 854 944 l 899 974 l 933 932 l 951 886 l 903 881 l 910 831 l 863 814 l 867 761 l 818 739 l 831 676 l 771 658 l 781 617 l 739 606 l 757 554 l 703 544 l 735 504 l 708 460 l 768 426 l 768 360 l 813 354 l 796 311 l 847 304 l 831 254 l 897 239 l 878 174 l 933 151 l 926 93 l 979 68 l 938 28 l 910 -3 l 882 28 l 832 -24 l 782 28 l 749 -25 l 715 28 l 668 -19 l 625 32 l 556 38 l 579 103 l 536 129 l 535 179 l 490 208 l 489 261 l 442 279 l 451 329 l 433 281 l 389 307 l 426 263 l 389 219 l 426 189 l 389 158 l 424 125 l 389 93 l 399 44 l 351 28 l 304 -15 l 257 28 l 217 -17 l 175 28 l 144 -24 l 104 54 m 296 861 l 279 867 l 268 853 l 281 840 l 297 844 l 296 861 m 200 846 l 178 858 l 161 844 l 164 821 l 188 824 l 200 846 m 789 754 l 713 819 l 619 786 l 660 708 l 718 699 l 789 754 m 275 774 l 207 767 l 164 710 l 225 650 l 279 706 l 275 774 m 665 589 l 590 644 l 513 614 l 543 546 l 600 529 l 665 589 m 360 521 l 267 503 l 242 444 l 279 376 l 346 425 l 360 521 m 513 472 l 500 471 l 489 460 l 503 453 l 515 457 l 513 472 m 713 369 l 575 411 l 515 282 l 601 168 l 688 258 l 713 369 m 326 249 l 258 272 l 218 217 l 258 174 l 303 190 l 326 249 m 828 117 l 792 174 l 718 157 l 719 78 l 794 50 l 828 117 m 656 133 l 633 136 l 625 108 l 651 97 l 663 117 l 656 133 z "},"Ķ":{"ha":993,"x_min":51,"x_max":979,"o":"m 104 54 l 76 110 l 104 165 l 67 210 l 104 254 l 56 311 l 104 369 l 72 414 l 104 458 l 51 508 l 104 558 l 61 606 l 104 653 l 76 711 l 104 768 l 60 821 l 104 874 l 108 926 l 158 944 l 211 975 l 263 944 l 318 999 l 374 944 l 410 925 l 389 890 l 422 844 l 389 797 l 421 761 l 389 726 l 418 696 l 404 656 l 421 692 l 451 665 l 454 710 l 492 736 l 481 796 l 538 818 l 525 860 l 567 871 l 540 917 l 593 918 l 628 969 l 683 944 l 714 982 l 744 944 l 772 972 l 799 944 l 826 972 l 854 944 l 899 974 l 933 932 l 951 886 l 903 881 l 910 831 l 863 814 l 867 761 l 818 739 l 831 676 l 771 658 l 781 617 l 739 606 l 757 554 l 703 544 l 735 504 l 708 460 l 768 426 l 768 360 l 813 354 l 796 311 l 847 304 l 831 254 l 897 239 l 878 174 l 933 151 l 926 93 l 979 68 l 938 28 l 910 -3 l 882 28 l 832 -24 l 782 28 l 749 -25 l 715 28 l 668 -19 l 625 32 l 556 38 l 579 103 l 536 129 l 535 179 l 490 208 l 489 261 l 442 279 l 451 329 l 433 281 l 389 307 l 426 263 l 389 219 l 426 189 l 389 158 l 424 125 l 389 93 l 399 44 l 351 28 l 304 -15 l 257 28 l 217 -17 l 175 28 l 144 -24 l 104 54 m 296 861 l 279 867 l 268 853 l 281 840 l 297 844 l 296 861 m 200 846 l 178 858 l 161 844 l 164 821 l 188 824 l 200 846 m 789 754 l 713 819 l 619 786 l 660 708 l 718 699 l 789 754 m 275 774 l 207 767 l 164 710 l 225 650 l 279 706 l 275 774 m 665 589 l 590 644 l 513 614 l 543 546 l 600 529 l 665 589 m 360 521 l 267 503 l 242 444 l 279 376 l 346 425 l 360 521 m 513 472 l 500 471 l 489 460 l 503 453 l 515 457 l 513 472 m 713 369 l 575 411 l 515 282 l 601 168 l 688 258 l 713 369 m 326 249 l 258 272 l 218 217 l 258 174 l 303 190 l 326 249 m 828 117 l 792 174 l 718 157 l 719 78 l 794 50 l 828 117 m 656 133 l 633 136 l 625 108 l 651 97 l 663 117 l 656 133 m 328 -262 l 317 -224 l 339 -190 l 331 -135 l 365 -90 l 414 -62 l 468 -76 l 525 -50 l 583 -76 l 617 -62 l 633 -94 l 636 -142 l 606 -178 l 611 -233 l 569 -269 l 543 -314 l 499 -340 l 471 -357 l 443 -340 l 393 -357 l 328 -262 m 474 -136 l 417 -167 l 424 -225 l 475 -232 l 506 -192 l 474 -136 z "},"L":{"ha":869,"x_min":53,"x_max":878,"o":"m 104 88 l 61 124 l 104 160 l 63 215 l 104 269 l 68 314 l 104 358 l 60 400 l 104 442 l 53 492 l 104 542 l 71 578 l 104 614 l 69 661 l 104 708 l 69 743 l 104 779 l 58 826 l 104 874 l 75 917 l 119 944 l 169 972 l 219 944 l 247 986 l 275 944 l 333 989 l 392 944 l 424 919 l 401 885 l 432 838 l 401 790 l 439 732 l 401 674 l 432 635 l 401 596 l 450 568 l 401 540 l 432 485 l 401 429 l 436 399 l 401 368 l 432 340 l 401 313 l 456 299 l 418 257 l 468 294 l 517 257 l 544 308 l 572 257 l 613 310 l 654 257 l 682 290 l 710 257 l 758 290 l 808 257 l 844 231 l 824 192 l 867 164 l 824 138 l 878 110 l 824 82 l 806 36 l 758 28 l 706 -8 l 653 28 l 606 -11 l 558 28 l 503 -4 l 447 28 l 400 -12 l 353 28 l 294 -8 l 236 28 l 206 -10 l 175 28 l 144 -7 l 104 88 m 182 867 l 158 857 l 172 838 l 192 831 l 204 854 l 182 867 m 321 778 l 294 768 l 293 747 l 311 728 l 328 750 l 321 778 m 232 743 l 201 756 l 182 724 l 207 692 l 236 714 l 232 743 m 140 661 l 121 660 l 113 640 l 132 626 l 142 644 l 140 661 m 172 567 l 144 557 l 124 532 l 154 508 l 179 533 l 172 567 m 301 522 l 286 533 l 271 517 l 282 494 l 303 506 l 301 522 m 388 308 l 360 338 l 329 318 l 331 285 l 363 282 l 388 308 m 299 185 l 290 206 l 269 193 l 268 169 l 289 174 l 299 185 m 794 167 l 756 176 l 736 154 l 746 126 l 781 125 l 794 167 m 528 165 l 450 161 l 432 88 l 494 57 l 542 96 l 528 165 m 306 143 l 271 126 l 278 96 l 301 86 l 332 108 l 306 143 z "},"Ĺ":{"ha":869,"x_min":53,"x_max":878,"o":"m 104 88 l 61 124 l 104 160 l 63 215 l 104 269 l 68 314 l 104 358 l 60 400 l 104 442 l 53 492 l 104 542 l 71 578 l 104 614 l 69 661 l 104 708 l 69 743 l 104 779 l 58 826 l 104 874 l 75 917 l 119 944 l 169 972 l 219 944 l 247 986 l 275 944 l 333 989 l 392 944 l 424 919 l 401 885 l 432 838 l 401 790 l 439 732 l 401 674 l 432 635 l 401 596 l 450 568 l 401 540 l 432 485 l 401 429 l 436 399 l 401 368 l 432 340 l 401 313 l 456 299 l 418 257 l 468 294 l 517 257 l 544 308 l 572 257 l 613 310 l 654 257 l 682 290 l 710 257 l 758 290 l 808 257 l 844 231 l 824 192 l 867 164 l 824 138 l 878 110 l 824 82 l 806 36 l 758 28 l 706 -8 l 653 28 l 606 -11 l 558 28 l 503 -4 l 447 28 l 400 -12 l 353 28 l 294 -8 l 236 28 l 206 -10 l 175 28 l 144 -7 l 104 88 m 182 867 l 158 857 l 172 838 l 192 831 l 204 854 l 182 867 m 321 778 l 294 768 l 293 747 l 311 728 l 328 750 l 321 778 m 232 743 l 201 756 l 182 724 l 207 692 l 236 714 l 232 743 m 140 661 l 121 660 l 113 640 l 132 626 l 142 644 l 140 661 m 172 567 l 144 557 l 124 532 l 154 508 l 179 533 l 172 567 m 301 522 l 286 533 l 271 517 l 282 494 l 303 506 l 301 522 m 388 308 l 360 338 l 329 318 l 331 285 l 363 282 l 388 308 m 299 185 l 290 206 l 269 193 l 268 169 l 289 174 l 299 185 m 794 167 l 756 176 l 736 154 l 746 126 l 781 125 l 794 167 m 528 165 l 450 161 l 432 88 l 494 57 l 542 96 l 528 165 m 306 143 l 271 126 l 278 96 l 301 86 l 332 108 l 306 143 m 113 1090 l 124 1138 l 168 1158 l 179 1194 l 213 1214 l 218 1250 l 253 1260 l 310 1283 l 369 1271 l 397 1288 l 425 1271 l 458 1297 l 492 1271 l 525 1286 l 558 1271 l 567 1239 l 544 1214 l 519 1169 l 472 1156 l 453 1108 l 404 1099 l 383 1053 l 333 1050 l 300 1036 l 265 1049 l 235 1035 l 206 1049 l 158 1024 l 113 1090 m 494 1213 l 478 1236 l 446 1231 l 449 1196 l 479 1190 l 494 1213 m 272 1210 l 258 1217 l 247 1207 l 253 1193 l 274 1188 l 272 1210 m 307 1129 l 261 1143 l 229 1114 l 249 1074 l 292 1083 l 307 1129 z "},"Ľ":{"ha":869,"x_min":53,"x_max":878,"o":"m 104 88 l 61 124 l 104 160 l 63 215 l 104 269 l 68 314 l 104 358 l 60 400 l 104 442 l 53 492 l 104 542 l 71 578 l 104 614 l 69 661 l 104 708 l 69 743 l 104 779 l 58 826 l 104 874 l 75 917 l 119 944 l 169 972 l 219 944 l 247 986 l 275 944 l 333 989 l 392 944 l 424 919 l 401 885 l 432 838 l 401 790 l 439 732 l 401 674 l 432 635 l 401 596 l 450 568 l 401 540 l 432 485 l 401 429 l 436 399 l 401 368 l 432 340 l 401 313 l 456 299 l 418 257 l 468 294 l 517 257 l 544 308 l 572 257 l 613 310 l 654 257 l 682 290 l 710 257 l 758 290 l 808 257 l 844 231 l 824 192 l 867 164 l 824 138 l 878 110 l 824 82 l 806 36 l 758 28 l 706 -8 l 653 28 l 606 -11 l 558 28 l 503 -4 l 447 28 l 400 -12 l 353 28 l 294 -8 l 236 28 l 206 -10 l 175 28 l 144 -7 l 104 88 m 182 867 l 158 857 l 172 838 l 192 831 l 204 854 l 182 867 m 321 778 l 294 768 l 293 747 l 311 728 l 328 750 l 321 778 m 232 743 l 201 756 l 182 724 l 207 692 l 236 714 l 232 743 m 140 661 l 121 660 l 113 640 l 132 626 l 142 644 l 140 661 m 172 567 l 144 557 l 124 532 l 154 508 l 179 533 l 172 567 m 301 522 l 286 533 l 271 517 l 282 494 l 303 506 l 301 522 m 388 308 l 360 338 l 329 318 l 331 285 l 363 282 l 388 308 m 299 185 l 290 206 l 269 193 l 268 169 l 289 174 l 299 185 m 794 167 l 756 176 l 736 154 l 746 126 l 781 125 l 794 167 m 528 165 l 450 161 l 432 88 l 494 57 l 542 96 l 528 165 m 306 143 l 271 126 l 278 96 l 301 86 l 332 108 l 306 143 m 531 688 l 511 724 l 540 753 l 529 782 l 549 807 l 540 843 l 564 872 l 594 908 l 640 894 l 699 921 l 757 894 l 797 890 l 822 858 l 826 828 l 801 808 l 804 754 l 765 717 l 761 672 l 728 642 l 692 618 l 651 631 l 600 604 l 531 688 m 797 846 l 783 849 l 772 846 l 778 835 l 788 836 l 797 846 m 738 753 l 711 754 l 706 732 l 719 713 l 742 726 l 738 753 m 626 739 l 575 736 l 547 685 l 600 665 l 651 685 l 626 739 z "},"Ļ":{"ha":869,"x_min":53,"x_max":878,"o":"m 104 88 l 61 124 l 104 160 l 63 215 l 104 269 l 68 314 l 104 358 l 60 400 l 104 442 l 53 492 l 104 542 l 71 578 l 104 614 l 69 661 l 104 708 l 69 743 l 104 779 l 58 826 l 104 874 l 75 917 l 119 944 l 169 972 l 219 944 l 247 986 l 275 944 l 333 989 l 392 944 l 424 919 l 401 885 l 432 838 l 401 790 l 439 732 l 401 674 l 432 635 l 401 596 l 450 568 l 401 540 l 432 485 l 401 429 l 436 399 l 401 368 l 432 340 l 401 313 l 456 299 l 418 257 l 468 294 l 517 257 l 544 308 l 572 257 l 613 310 l 654 257 l 682 290 l 710 257 l 758 290 l 808 257 l 844 231 l 824 192 l 867 164 l 824 138 l 878 110 l 824 82 l 806 36 l 758 28 l 706 -8 l 653 28 l 606 -11 l 558 28 l 503 -4 l 447 28 l 400 -12 l 353 28 l 294 -8 l 236 28 l 206 -10 l 175 28 l 144 -7 l 104 88 m 182 867 l 158 857 l 172 838 l 192 831 l 204 854 l 182 867 m 321 778 l 294 768 l 293 747 l 311 728 l 328 750 l 321 778 m 232 743 l 201 756 l 182 724 l 207 692 l 236 714 l 232 743 m 140 661 l 121 660 l 113 640 l 132 626 l 142 644 l 140 661 m 172 567 l 144 557 l 124 532 l 154 508 l 179 533 l 172 567 m 301 522 l 286 533 l 271 517 l 282 494 l 303 506 l 301 522 m 388 308 l 360 338 l 329 318 l 331 285 l 363 282 l 388 308 m 299 185 l 290 206 l 269 193 l 268 169 l 289 174 l 299 185 m 794 167 l 756 176 l 736 154 l 746 126 l 781 125 l 794 167 m 528 165 l 450 161 l 432 88 l 494 57 l 542 96 l 528 165 m 306 143 l 271 126 l 278 96 l 301 86 l 332 108 l 306 143 m 265 -262 l 254 -224 l 276 -190 l 268 -135 l 303 -90 l 351 -62 l 406 -76 l 463 -50 l 521 -76 l 554 -62 l 571 -94 l 574 -142 l 543 -178 l 549 -233 l 507 -269 l 481 -314 l 436 -340 l 408 -357 l 381 -340 l 331 -357 l 265 -262 m 411 -136 l 354 -167 l 361 -225 l 413 -232 l 443 -192 l 411 -136 z "},"Ŀ":{"ha":874,"x_min":53,"x_max":878,"o":"m 104 88 l 61 124 l 104 160 l 63 215 l 104 269 l 68 314 l 104 358 l 60 400 l 104 442 l 53 492 l 104 542 l 71 578 l 104 614 l 69 661 l 104 708 l 69 743 l 104 779 l 58 826 l 104 874 l 75 917 l 119 944 l 169 972 l 219 944 l 247 986 l 275 944 l 333 989 l 392 944 l 424 919 l 401 885 l 432 838 l 401 790 l 439 732 l 401 674 l 432 635 l 401 596 l 450 568 l 401 540 l 432 485 l 401 429 l 436 399 l 401 368 l 432 340 l 401 313 l 456 299 l 418 257 l 468 294 l 517 257 l 544 308 l 572 257 l 613 310 l 654 257 l 682 290 l 710 257 l 758 290 l 808 257 l 844 231 l 824 192 l 867 164 l 824 138 l 878 110 l 824 82 l 806 36 l 758 28 l 706 -8 l 653 28 l 606 -11 l 558 28 l 503 -4 l 447 28 l 400 -12 l 353 28 l 294 -8 l 236 28 l 206 -10 l 175 28 l 144 -7 l 104 88 m 182 867 l 158 857 l 172 838 l 192 831 l 204 854 l 182 867 m 321 778 l 294 768 l 293 747 l 311 728 l 328 750 l 321 778 m 232 743 l 201 756 l 182 724 l 207 692 l 236 714 l 232 743 m 140 661 l 121 660 l 113 640 l 132 626 l 142 644 l 140 661 m 172 567 l 144 557 l 124 532 l 154 508 l 179 533 l 172 567 m 301 522 l 286 533 l 271 517 l 282 494 l 303 506 l 301 522 m 388 308 l 360 338 l 329 318 l 331 285 l 363 282 l 388 308 m 299 185 l 290 206 l 269 193 l 268 169 l 289 174 l 299 185 m 794 167 l 756 176 l 736 154 l 746 126 l 781 125 l 794 167 m 528 165 l 450 161 l 432 88 l 494 57 l 542 96 l 528 165 m 306 143 l 271 126 l 278 96 l 301 86 l 332 108 l 306 143 m 578 536 l 542 582 l 578 629 l 608 675 l 663 664 l 697 708 l 733 664 l 776 657 l 796 618 l 835 568 l 796 519 l 815 475 l 778 446 l 744 413 l 711 446 l 685 413 l 657 446 l 626 413 l 578 536 m 740 657 l 726 657 l 724 646 l 733 639 l 744 646 l 740 657 m 697 611 l 660 613 l 646 581 l 672 564 l 700 575 l 697 611 m 769 600 l 749 592 l 754 574 l 768 568 l 778 581 l 769 600 m 781 508 l 756 522 l 735 511 l 735 481 l 771 474 l 781 508 m 674 519 l 663 513 l 660 497 l 678 494 l 686 510 l 674 519 z "},"Ł":{"ha":881,"x_min":-7,"x_max":885,"o":"m 115 99 l 65 135 l 115 171 l 88 203 l 115 236 l 88 294 l 115 353 l 92 319 l 53 329 l 22 363 l 46 400 l -7 433 l 46 467 l 33 515 l 82 507 l 56 561 l 115 575 l 79 614 l 115 653 l 86 694 l 115 735 l 76 776 l 115 818 l 63 865 l 115 913 l 117 957 l 158 944 l 200 993 l 242 944 l 297 989 l 353 944 l 392 972 l 413 929 l 463 871 l 413 814 l 450 775 l 413 736 l 440 696 l 413 654 l 442 682 l 479 664 l 513 719 l 575 701 l 611 742 l 658 715 l 706 671 l 658 626 l 708 590 l 651 565 l 631 526 l 590 540 l 561 479 l 499 504 l 469 454 l 413 465 l 458 417 l 413 367 l 451 336 l 413 307 l 469 313 l 479 257 l 508 278 l 539 257 l 569 310 l 600 257 l 643 289 l 688 257 l 743 303 l 797 257 l 843 240 l 835 192 l 885 147 l 835 104 l 883 76 l 835 49 l 822 -11 l 775 28 l 725 -7 l 675 28 l 633 -11 l 592 28 l 553 -18 l 514 28 l 461 -12 l 408 28 l 358 -22 l 308 28 l 256 -24 l 203 28 l 164 -6 l 115 99 m 178 799 l 163 826 l 126 813 l 143 781 l 172 769 l 178 799 m 357 757 l 349 769 l 333 763 l 338 749 l 351 744 l 357 757 m 611 703 l 592 697 l 596 681 l 608 678 l 619 688 l 611 703 m 279 694 l 238 660 l 244 613 l 297 597 l 315 651 l 279 694 m 589 583 l 571 596 l 557 576 l 565 553 l 594 557 l 589 583 m 324 508 l 238 533 l 208 464 l 232 388 l 333 407 l 324 508 m 194 335 l 165 319 l 172 290 l 203 274 l 211 308 l 194 335 m 474 196 l 439 232 l 376 217 l 393 150 l 449 156 l 474 196 m 276 201 l 210 229 l 160 182 l 188 115 l 251 138 l 276 201 m 596 201 l 563 164 l 563 117 l 624 101 l 646 165 l 596 201 m 749 135 l 732 135 l 722 121 l 735 108 l 750 118 l 749 135 z "},"M":{"ha":1189,"x_min":57,"x_max":1138,"o":"m 104 132 l 71 165 l 104 199 l 65 249 l 104 297 l 74 344 l 104 392 l 60 436 l 104 481 l 57 525 l 104 569 l 75 619 l 104 669 l 71 713 l 104 757 l 65 813 l 104 868 l 67 924 l 131 944 l 161 981 l 190 944 l 249 972 l 306 944 l 344 979 l 363 931 l 417 906 l 415 846 l 471 833 l 456 779 l 515 751 l 513 685 l 550 675 l 540 638 l 585 610 l 589 557 l 596 611 l 646 632 l 643 675 l 683 694 l 661 758 l 728 769 l 708 839 l 779 854 l 789 919 l 850 944 l 889 978 l 926 944 l 974 976 l 1021 944 l 1063 944 l 1085 907 l 1125 871 l 1085 835 l 1117 804 l 1085 774 l 1126 718 l 1085 664 l 1114 636 l 1085 608 l 1126 561 l 1085 514 l 1121 469 l 1085 425 l 1129 394 l 1085 364 l 1138 336 l 1085 308 l 1129 264 l 1085 221 l 1124 190 l 1085 160 l 1135 107 l 1085 54 l 1064 22 l 1026 28 l 976 -1 l 928 28 l 900 -25 l 872 28 l 843 -6 l 817 31 l 761 76 l 814 126 l 763 153 l 814 181 l 783 219 l 814 258 l 790 317 l 814 374 l 771 388 l 763 432 l 760 372 l 708 343 l 693 285 l 638 261 l 600 208 l 563 261 l 513 258 l 504 307 l 469 324 l 469 363 l 424 381 l 406 426 l 410 383 l 375 357 l 401 300 l 375 242 l 418 211 l 375 181 l 425 144 l 375 110 l 415 68 l 372 31 l 343 -1 l 311 28 l 261 -25 l 213 28 l 163 -18 l 104 132 m 907 918 l 893 928 l 871 922 l 879 896 l 907 894 l 907 918 m 185 903 l 153 913 l 150 878 l 175 849 l 192 881 l 185 903 m 922 833 l 907 838 l 892 832 l 903 821 l 914 821 l 922 833 m 375 814 l 321 826 l 321 771 l 357 756 l 393 775 l 375 814 m 1051 800 l 1035 817 l 1014 800 l 1028 782 l 1053 775 l 1051 800 m 194 744 l 175 739 l 172 721 l 189 713 l 200 725 l 194 744 m 946 735 l 889 742 l 882 679 l 936 640 l 965 694 l 946 735 m 275 733 l 263 736 l 261 724 l 269 715 l 278 724 l 275 733 m 1057 714 l 1046 728 l 1026 719 l 1031 697 l 1051 697 l 1057 714 m 432 704 l 415 697 l 419 681 l 436 678 l 439 692 l 432 704 m 331 594 l 307 586 l 307 561 l 328 561 l 338 574 l 331 594 m 533 558 l 503 574 l 471 563 l 472 514 l 517 525 l 533 558 m 957 568 l 876 503 l 892 390 l 1008 399 l 1032 499 l 957 568 m 642 565 l 625 565 l 625 549 l 639 535 l 658 550 l 642 565 m 157 544 l 132 556 l 118 536 l 126 514 l 151 518 l 157 544 m 614 449 l 600 440 l 604 422 l 622 422 l 632 440 l 614 449 m 574 394 l 546 376 l 558 353 l 583 336 l 592 368 l 574 394 m 225 310 l 203 310 l 200 293 l 208 278 l 229 286 l 225 310 m 974 279 l 875 281 l 861 197 l 917 149 l 981 189 l 974 279 m 979 115 l 967 110 l 972 99 l 983 94 l 989 107 l 979 115 m 163 78 l 143 72 l 147 54 l 165 44 l 172 64 l 163 78 z "},"N":{"ha":1028,"x_min":56,"x_max":978,"o":"m 104 88 l 60 115 l 104 143 l 76 201 l 104 260 l 75 297 l 104 336 l 76 378 l 104 419 l 56 458 l 104 497 l 64 539 l 104 581 l 63 625 l 104 669 l 60 708 l 104 746 l 71 782 l 104 818 l 65 863 l 104 907 l 117 942 l 153 944 l 201 983 l 251 944 l 313 986 l 364 931 l 431 907 l 421 838 l 476 807 l 478 743 l 532 708 l 539 644 l 583 631 l 575 583 l 624 600 l 625 596 l 653 611 l 624 657 l 653 704 l 619 761 l 653 819 l 632 856 l 653 890 l 649 943 l 701 944 l 753 983 l 804 944 l 851 996 l 897 944 l 936 922 l 924 879 l 954 824 l 924 768 l 953 718 l 924 669 l 975 639 l 924 608 l 969 553 l 924 497 l 978 458 l 924 419 l 958 392 l 924 364 l 978 306 l 924 249 l 967 190 l 924 132 l 951 104 l 924 76 l 921 25 l 869 28 l 818 0 l 765 28 l 733 -1 l 700 28 l 650 25 l 643 75 l 589 82 l 603 135 l 561 157 l 557 204 l 508 240 l 493 300 l 453 313 l 457 356 l 415 354 l 406 396 l 411 357 l 375 342 l 396 289 l 375 236 l 413 201 l 375 165 l 403 115 l 375 65 l 353 15 l 300 28 l 261 -7 l 224 28 l 196 -18 l 168 28 l 142 -6 l 104 88 m 347 874 l 297 888 l 274 861 l 272 810 l 333 815 l 347 874 m 779 838 l 728 836 l 688 796 l 732 749 l 797 772 l 779 838 m 303 738 l 261 718 l 271 681 l 304 665 l 313 699 l 303 738 m 893 683 l 849 706 l 818 674 l 835 636 l 883 629 l 893 683 m 301 607 l 286 610 l 276 601 l 282 589 l 301 588 l 301 607 m 844 569 l 799 556 l 768 525 l 806 485 l 853 514 l 844 569 m 171 497 l 151 511 l 139 499 l 136 476 l 161 474 l 171 497 m 529 458 l 494 454 l 486 421 l 515 397 l 554 422 l 529 458 m 374 399 l 364 394 l 364 382 l 375 385 l 382 392 l 374 399 m 764 381 l 672 381 l 669 281 l 751 265 l 838 314 l 764 381 m 193 356 l 175 356 l 182 338 l 197 325 l 204 344 l 193 356 m 286 321 l 228 296 l 201 240 l 261 225 l 306 256 l 286 321 m 660 196 l 643 208 l 624 201 l 626 176 l 650 179 l 660 196 m 835 164 l 792 154 l 792 114 l 826 88 l 847 125 l 835 164 m 718 125 l 699 158 l 661 144 l 667 110 l 693 107 l 718 125 z "},"Ń":{"ha":1028,"x_min":56,"x_max":978,"o":"m 104 88 l 60 115 l 104 143 l 76 201 l 104 260 l 75 297 l 104 336 l 76 378 l 104 419 l 56 458 l 104 497 l 64 539 l 104 581 l 63 625 l 104 669 l 60 708 l 104 746 l 71 782 l 104 818 l 65 863 l 104 907 l 117 942 l 153 944 l 201 983 l 251 944 l 313 986 l 364 931 l 431 907 l 421 838 l 476 807 l 478 743 l 532 708 l 539 644 l 583 631 l 575 583 l 624 600 l 625 596 l 653 611 l 624 657 l 653 704 l 619 761 l 653 819 l 632 856 l 653 890 l 649 943 l 701 944 l 753 983 l 804 944 l 851 996 l 897 944 l 936 922 l 924 879 l 954 824 l 924 768 l 953 718 l 924 669 l 975 639 l 924 608 l 969 553 l 924 497 l 978 458 l 924 419 l 958 392 l 924 364 l 978 306 l 924 249 l 967 190 l 924 132 l 951 104 l 924 76 l 921 25 l 869 28 l 818 0 l 765 28 l 733 -1 l 700 28 l 650 25 l 643 75 l 589 82 l 603 135 l 561 157 l 557 204 l 508 240 l 493 300 l 453 313 l 457 356 l 415 354 l 406 396 l 411 357 l 375 342 l 396 289 l 375 236 l 413 201 l 375 165 l 403 115 l 375 65 l 353 15 l 300 28 l 261 -7 l 224 28 l 196 -18 l 168 28 l 142 -6 l 104 88 m 347 874 l 297 888 l 274 861 l 272 810 l 333 815 l 347 874 m 779 838 l 728 836 l 688 796 l 732 749 l 797 772 l 779 838 m 303 738 l 261 718 l 271 681 l 304 665 l 313 699 l 303 738 m 893 683 l 849 706 l 818 674 l 835 636 l 883 629 l 893 683 m 301 607 l 286 610 l 276 601 l 282 589 l 301 588 l 301 607 m 844 569 l 799 556 l 768 525 l 806 485 l 853 514 l 844 569 m 171 497 l 151 511 l 139 499 l 136 476 l 161 474 l 171 497 m 529 458 l 494 454 l 486 421 l 515 397 l 554 422 l 529 458 m 374 399 l 364 394 l 364 382 l 375 385 l 382 392 l 374 399 m 764 381 l 672 381 l 669 281 l 751 265 l 838 314 l 764 381 m 193 356 l 175 356 l 182 338 l 197 325 l 204 344 l 193 356 m 286 321 l 228 296 l 201 240 l 261 225 l 306 256 l 286 321 m 660 196 l 643 208 l 624 201 l 626 176 l 650 179 l 660 196 m 835 164 l 792 154 l 792 114 l 826 88 l 847 125 l 835 164 m 718 125 l 699 158 l 661 144 l 667 110 l 693 107 l 718 125 m 386 1090 l 397 1138 l 442 1158 l 453 1194 l 486 1214 l 492 1250 l 526 1260 l 583 1283 l 643 1271 l 671 1288 l 699 1271 l 732 1297 l 765 1271 l 799 1286 l 832 1271 l 840 1239 l 818 1214 l 793 1169 l 746 1156 l 726 1108 l 678 1099 l 657 1053 l 607 1050 l 574 1036 l 539 1049 l 508 1035 l 479 1049 l 432 1024 l 386 1090 m 768 1213 l 751 1236 l 719 1231 l 722 1196 l 753 1190 l 768 1213 m 546 1210 l 532 1217 l 521 1207 l 526 1193 l 547 1188 l 546 1210 m 581 1129 l 535 1143 l 503 1114 l 522 1074 l 565 1083 l 581 1129 z "},"Ň":{"ha":1028,"x_min":56,"x_max":978,"o":"m 104 88 l 60 115 l 104 143 l 76 201 l 104 260 l 75 297 l 104 336 l 76 378 l 104 419 l 56 458 l 104 497 l 64 539 l 104 581 l 63 625 l 104 669 l 60 708 l 104 746 l 71 782 l 104 818 l 65 863 l 104 907 l 117 942 l 153 944 l 201 983 l 251 944 l 313 986 l 364 931 l 431 907 l 421 838 l 476 807 l 478 743 l 532 708 l 539 644 l 583 631 l 575 583 l 624 600 l 625 596 l 653 611 l 624 657 l 653 704 l 619 761 l 653 819 l 632 856 l 653 890 l 649 943 l 701 944 l 753 983 l 804 944 l 851 996 l 897 944 l 936 922 l 924 879 l 954 824 l 924 768 l 953 718 l 924 669 l 975 639 l 924 608 l 969 553 l 924 497 l 978 458 l 924 419 l 958 392 l 924 364 l 978 306 l 924 249 l 967 190 l 924 132 l 951 104 l 924 76 l 921 25 l 869 28 l 818 0 l 765 28 l 733 -1 l 700 28 l 650 25 l 643 75 l 589 82 l 603 135 l 561 157 l 557 204 l 508 240 l 493 300 l 453 313 l 457 356 l 415 354 l 406 396 l 411 357 l 375 342 l 396 289 l 375 236 l 413 201 l 375 165 l 403 115 l 375 65 l 353 15 l 300 28 l 261 -7 l 224 28 l 196 -18 l 168 28 l 142 -6 l 104 88 m 347 874 l 297 888 l 274 861 l 272 810 l 333 815 l 347 874 m 779 838 l 728 836 l 688 796 l 732 749 l 797 772 l 779 838 m 303 738 l 261 718 l 271 681 l 304 665 l 313 699 l 303 738 m 893 683 l 849 706 l 818 674 l 835 636 l 883 629 l 893 683 m 301 607 l 286 610 l 276 601 l 282 589 l 301 588 l 301 607 m 844 569 l 799 556 l 768 525 l 806 485 l 853 514 l 844 569 m 171 497 l 151 511 l 139 499 l 136 476 l 161 474 l 171 497 m 529 458 l 494 454 l 486 421 l 515 397 l 554 422 l 529 458 m 374 399 l 364 394 l 364 382 l 375 385 l 382 392 l 374 399 m 764 381 l 672 381 l 669 281 l 751 265 l 838 314 l 764 381 m 193 356 l 175 356 l 182 338 l 197 325 l 204 344 l 193 356 m 286 321 l 228 296 l 201 240 l 261 225 l 306 256 l 286 321 m 660 196 l 643 208 l 624 201 l 626 176 l 650 179 l 660 196 m 835 164 l 792 154 l 792 114 l 826 88 l 847 125 l 835 164 m 718 125 l 699 158 l 661 144 l 667 110 l 693 107 l 718 125 m 382 1068 l 336 1082 l 326 1129 l 293 1136 l 289 1169 l 238 1189 l 222 1242 l 257 1271 l 303 1271 l 342 1285 l 378 1264 l 424 1269 l 449 1232 l 482 1239 l 499 1210 l 540 1236 l 589 1236 l 629 1276 l 685 1271 l 732 1289 l 779 1271 l 789 1233 l 768 1201 l 742 1147 l 690 1117 l 686 1083 l 654 1076 l 621 1038 l 571 1049 l 525 1022 l 478 1049 l 451 1031 l 382 1068 m 507 1175 l 454 1188 l 443 1142 l 464 1110 l 510 1122 l 507 1175 z "},"Ņ":{"ha":1028,"x_min":56,"x_max":978,"o":"m 104 88 l 60 115 l 104 143 l 76 201 l 104 260 l 75 297 l 104 336 l 76 378 l 104 419 l 56 458 l 104 497 l 64 539 l 104 581 l 63 625 l 104 669 l 60 708 l 104 746 l 71 782 l 104 818 l 65 863 l 104 907 l 117 942 l 153 944 l 201 983 l 251 944 l 313 986 l 364 931 l 431 907 l 421 838 l 476 807 l 478 743 l 532 708 l 539 644 l 583 631 l 575 583 l 624 600 l 625 596 l 653 611 l 624 657 l 653 704 l 619 761 l 653 819 l 632 856 l 653 890 l 649 943 l 701 944 l 753 983 l 804 944 l 851 996 l 897 944 l 936 922 l 924 879 l 954 824 l 924 768 l 953 718 l 924 669 l 975 639 l 924 608 l 969 553 l 924 497 l 978 458 l 924 419 l 958 392 l 924 364 l 978 306 l 924 249 l 967 190 l 924 132 l 951 104 l 924 76 l 921 25 l 869 28 l 818 0 l 765 28 l 733 -1 l 700 28 l 650 25 l 643 75 l 589 82 l 603 135 l 561 157 l 557 204 l 508 240 l 493 300 l 453 313 l 457 356 l 415 354 l 406 396 l 411 357 l 375 342 l 396 289 l 375 236 l 413 201 l 375 165 l 403 115 l 375 65 l 353 15 l 300 28 l 261 -7 l 224 28 l 196 -18 l 168 28 l 142 -6 l 104 88 m 347 874 l 297 888 l 274 861 l 272 810 l 333 815 l 347 874 m 779 838 l 728 836 l 688 796 l 732 749 l 797 772 l 779 838 m 303 738 l 261 718 l 271 681 l 304 665 l 313 699 l 303 738 m 893 683 l 849 706 l 818 674 l 835 636 l 883 629 l 893 683 m 301 607 l 286 610 l 276 601 l 282 589 l 301 588 l 301 607 m 844 569 l 799 556 l 768 525 l 806 485 l 853 514 l 844 569 m 171 497 l 151 511 l 139 499 l 136 476 l 161 474 l 171 497 m 529 458 l 494 454 l 486 421 l 515 397 l 554 422 l 529 458 m 374 399 l 364 394 l 364 382 l 375 385 l 382 392 l 374 399 m 764 381 l 672 381 l 669 281 l 751 265 l 838 314 l 764 381 m 193 356 l 175 356 l 182 338 l 197 325 l 204 344 l 193 356 m 286 321 l 228 296 l 201 240 l 261 225 l 306 256 l 286 321 m 660 196 l 643 208 l 624 201 l 626 176 l 650 179 l 660 196 m 835 164 l 792 154 l 792 114 l 826 88 l 847 125 l 835 164 m 718 125 l 699 158 l 661 144 l 667 110 l 693 107 l 718 125 m 350 -262 l 339 -224 l 361 -190 l 353 -135 l 388 -90 l 436 -62 l 490 -76 l 547 -50 l 606 -76 l 639 -62 l 656 -94 l 658 -142 l 628 -178 l 633 -233 l 592 -269 l 565 -314 l 521 -340 l 493 -357 l 465 -340 l 415 -357 l 350 -262 m 496 -136 l 439 -167 l 446 -225 l 497 -232 l 528 -192 l 496 -136 z "},"Ñ":{"ha":1028,"x_min":56,"x_max":978,"o":"m 104 88 l 60 115 l 104 143 l 76 201 l 104 260 l 75 297 l 104 336 l 76 378 l 104 419 l 56 458 l 104 497 l 64 539 l 104 581 l 63 625 l 104 669 l 60 708 l 104 746 l 71 782 l 104 818 l 65 863 l 104 907 l 117 942 l 153 944 l 201 983 l 251 944 l 313 986 l 364 931 l 431 907 l 421 838 l 476 807 l 478 743 l 532 708 l 539 644 l 583 631 l 575 583 l 624 600 l 625 596 l 653 611 l 624 657 l 653 704 l 619 761 l 653 819 l 632 856 l 653 890 l 649 943 l 701 944 l 753 983 l 804 944 l 851 996 l 897 944 l 936 922 l 924 879 l 954 824 l 924 768 l 953 718 l 924 669 l 975 639 l 924 608 l 969 553 l 924 497 l 978 458 l 924 419 l 958 392 l 924 364 l 978 306 l 924 249 l 967 190 l 924 132 l 951 104 l 924 76 l 921 25 l 869 28 l 818 0 l 765 28 l 733 -1 l 700 28 l 650 25 l 643 75 l 589 82 l 603 135 l 561 157 l 557 204 l 508 240 l 493 300 l 453 313 l 457 356 l 415 354 l 406 396 l 411 357 l 375 342 l 396 289 l 375 236 l 413 201 l 375 165 l 403 115 l 375 65 l 353 15 l 300 28 l 261 -7 l 224 28 l 196 -18 l 168 28 l 142 -6 l 104 88 m 347 874 l 297 888 l 274 861 l 272 810 l 333 815 l 347 874 m 779 838 l 728 836 l 688 796 l 732 749 l 797 772 l 779 838 m 303 738 l 261 718 l 271 681 l 304 665 l 313 699 l 303 738 m 893 683 l 849 706 l 818 674 l 835 636 l 883 629 l 893 683 m 301 607 l 286 610 l 276 601 l 282 589 l 301 588 l 301 607 m 844 569 l 799 556 l 768 525 l 806 485 l 853 514 l 844 569 m 171 497 l 151 511 l 139 499 l 136 476 l 161 474 l 171 497 m 529 458 l 494 454 l 486 421 l 515 397 l 554 422 l 529 458 m 374 399 l 364 394 l 364 382 l 375 385 l 382 392 l 374 399 m 764 381 l 672 381 l 669 281 l 751 265 l 838 314 l 764 381 m 193 356 l 175 356 l 182 338 l 197 325 l 204 344 l 193 356 m 286 321 l 228 296 l 201 240 l 261 225 l 306 256 l 286 321 m 660 196 l 643 208 l 624 201 l 626 176 l 650 179 l 660 196 m 835 164 l 792 154 l 792 114 l 826 88 l 847 125 l 835 164 m 718 125 l 699 158 l 661 144 l 667 110 l 693 107 l 718 125 m 551 1050 l 511 1053 l 483 1083 l 446 1060 l 403 1074 l 389 1044 l 357 1049 l 307 1026 l 257 1049 l 246 1101 l 254 1154 l 253 1189 l 282 1208 l 299 1251 l 344 1261 l 383 1294 l 431 1278 l 474 1283 l 507 1256 l 554 1258 l 589 1228 l 631 1265 l 686 1271 l 728 1292 l 769 1271 l 782 1221 l 774 1168 l 771 1122 l 732 1096 l 711 1057 l 668 1051 l 640 1026 l 551 1050 m 375 1225 l 349 1218 l 329 1190 l 364 1172 l 379 1199 l 375 1225 m 503 1160 l 468 1196 l 417 1172 l 429 1115 l 482 1118 l 503 1160 z "},"Ŋ":{"ha":1028,"x_min":53,"x_max":976,"o":"m 467 -264 l 436 -229 l 467 -193 l 425 -156 l 467 -117 l 442 -79 l 482 -58 l 519 -12 l 560 -56 l 581 6 l 644 6 l 599 40 l 640 79 l 593 88 l 604 135 l 556 156 l 556 208 l 497 229 l 500 292 l 442 310 l 447 369 l 408 356 l 375 381 l 413 350 l 375 319 l 413 272 l 375 225 l 404 190 l 375 154 l 394 107 l 375 60 l 383 21 l 343 28 l 289 -26 l 235 28 l 185 -21 l 136 28 l 97 56 l 104 104 l 65 157 l 104 210 l 53 251 l 104 292 l 76 342 l 104 392 l 58 419 l 104 447 l 71 500 l 104 553 l 74 611 l 104 669 l 68 697 l 104 724 l 58 754 l 104 785 l 64 835 l 104 885 l 108 931 l 153 944 l 210 996 l 268 944 l 300 993 l 333 944 l 392 938 l 396 879 l 454 879 l 426 828 l 472 797 l 478 743 l 521 731 l 513 688 l 558 674 l 550 626 l 607 604 l 607 543 l 610 589 l 653 572 l 632 614 l 653 654 l 629 701 l 653 747 l 632 781 l 653 814 l 633 853 l 653 890 l 646 940 l 696 944 l 739 999 l 783 944 l 824 994 l 865 944 l 915 946 l 924 896 l 953 854 l 924 813 l 954 754 l 924 696 l 964 646 l 924 596 l 956 568 l 924 540 l 954 507 l 924 475 l 957 436 l 924 397 l 965 342 l 924 286 l 976 258 l 924 231 l 972 192 l 924 153 l 967 108 l 924 64 l 965 11 l 917 -36 l 939 -92 l 883 -118 l 904 -181 l 839 -175 l 839 -228 l 788 -215 l 757 -285 l 685 -260 l 663 -307 l 621 -275 l 590 -332 l 549 -283 l 514 -326 l 467 -264 m 286 865 l 219 804 l 222 708 l 317 721 l 363 800 l 286 865 m 743 854 l 726 853 l 729 835 l 744 831 l 751 843 l 743 854 m 313 642 l 297 636 l 303 622 l 314 621 l 322 631 l 313 642 m 447 571 l 413 572 l 386 553 l 413 535 l 446 531 l 447 571 m 150 508 l 132 499 l 128 481 l 147 474 l 156 490 l 150 508 m 838 479 l 807 499 l 781 481 l 790 451 l 818 453 l 838 479 m 739 465 l 711 490 l 689 460 l 703 435 l 729 436 l 739 465 m 576 464 l 503 463 l 514 400 l 550 364 l 594 403 l 576 464 m 185 408 l 150 413 l 149 376 l 178 358 l 208 383 l 185 408 m 643 329 l 608 313 l 615 274 l 658 261 l 669 303 l 643 329 m 261 243 l 250 251 l 236 251 l 236 235 l 251 229 l 261 243 m 721 224 l 688 247 l 679 207 l 696 182 l 731 190 l 721 224 m 204 225 l 169 229 l 163 203 l 174 171 l 213 186 l 204 225 m 288 153 l 219 149 l 214 94 l 247 43 l 308 83 l 288 153 m 760 33 l 746 40 l 733 28 l 742 10 l 763 14 l 760 33 m 726 -67 l 679 -75 l 661 -119 l 704 -139 l 744 -115 l 726 -67 m 806 -81 l 794 -76 l 783 -82 l 789 -96 l 803 -93 l 806 -81 m 563 -153 l 544 -143 l 528 -157 l 535 -179 l 557 -172 l 563 -153 z "},"O":{"ha":1031,"x_min":28,"x_max":1007,"o":"m 493 14 l 432 -29 l 382 25 l 319 -1 l 282 56 l 226 56 l 200 104 l 131 108 l 133 178 l 75 179 l 107 226 l 53 274 l 81 340 l 50 385 l 78 431 l 38 489 l 78 549 l 28 586 l 81 621 l 36 675 l 96 708 l 78 749 l 119 765 l 128 825 l 183 850 l 200 919 l 271 908 l 286 956 l 328 932 l 354 979 l 399 949 l 435 981 l 476 957 l 531 1001 l 582 956 l 638 979 l 681 938 l 736 950 l 769 904 l 824 910 l 839 857 l 886 856 l 885 808 l 942 785 l 929 725 l 983 704 l 946 660 l 978 629 l 951 593 l 1001 551 l 953 508 l 1007 481 l 953 453 l 1000 413 l 951 374 l 974 314 l 936 264 l 965 213 l 908 197 l 925 153 l 878 151 l 872 92 l 813 90 l 794 42 l 744 54 l 721 8 l 675 32 l 639 -21 l 588 17 l 553 -17 l 493 14 m 656 881 l 644 893 l 631 888 l 629 872 l 644 868 l 656 881 m 592 853 l 574 849 l 564 833 l 581 821 l 593 835 l 592 853 m 433 806 l 413 800 l 403 779 l 426 768 l 446 785 l 433 806 m 685 804 l 671 800 l 669 783 l 685 785 l 697 794 l 685 804 m 308 746 l 256 756 l 213 722 l 247 674 l 308 682 l 308 746 m 549 232 l 567 263 l 600 257 l 594 294 l 632 301 l 625 332 l 646 357 l 625 386 l 647 413 l 622 442 l 647 469 l 625 497 l 647 525 l 624 553 l 647 582 l 619 608 l 642 638 l 611 656 l 622 690 l 588 694 l 581 728 l 546 708 l 526 743 l 503 703 l 471 736 l 458 703 l 422 708 l 428 672 l 394 660 l 406 629 l 385 604 l 408 575 l 383 549 l 404 519 l 383 492 l 415 464 l 383 436 l 407 408 l 385 379 l 401 353 l 390 324 l 425 308 l 415 272 l 458 283 l 460 239 l 494 271 l 549 232 m 729 669 l 683 667 l 664 638 l 685 600 l 719 625 l 729 669 m 210 600 l 174 644 l 114 625 l 131 568 l 185 542 l 210 600 m 874 592 l 836 578 l 829 540 l 868 524 l 896 556 l 874 592 m 292 447 l 264 461 l 258 428 l 281 407 l 306 426 l 292 447 m 857 440 l 779 415 l 768 340 l 833 332 l 903 363 l 857 440 m 226 278 l 189 324 l 132 304 l 144 249 l 199 217 l 226 278 m 706 229 l 679 242 l 661 214 l 682 186 l 715 199 l 706 229 m 367 210 l 356 218 l 344 211 l 347 197 l 364 196 l 367 210 m 824 197 l 793 190 l 793 156 l 824 153 l 843 174 l 824 197 m 540 167 l 524 188 l 494 176 l 507 151 l 531 142 l 540 167 z "},"Ó":{"ha":1031,"x_min":28,"x_max":1007,"o":"m 493 14 l 432 -29 l 382 25 l 319 -1 l 282 56 l 226 56 l 200 104 l 131 108 l 133 178 l 75 179 l 107 226 l 53 274 l 81 340 l 50 385 l 78 431 l 38 489 l 78 549 l 28 586 l 81 621 l 36 675 l 96 708 l 78 749 l 119 765 l 128 825 l 183 850 l 200 919 l 271 908 l 286 956 l 328 932 l 354 979 l 399 949 l 435 981 l 476 957 l 531 1001 l 582 956 l 638 979 l 681 938 l 736 950 l 769 904 l 824 910 l 839 857 l 886 856 l 885 808 l 942 785 l 929 725 l 983 704 l 946 660 l 978 629 l 951 593 l 1001 551 l 953 508 l 1007 481 l 953 453 l 1000 413 l 951 374 l 974 314 l 936 264 l 965 213 l 908 197 l 925 153 l 878 151 l 872 92 l 813 90 l 794 42 l 744 54 l 721 8 l 675 32 l 639 -21 l 588 17 l 553 -17 l 493 14 m 656 881 l 644 893 l 631 888 l 629 872 l 644 868 l 656 881 m 592 853 l 574 849 l 564 833 l 581 821 l 593 835 l 592 853 m 433 806 l 413 800 l 403 779 l 426 768 l 446 785 l 433 806 m 685 804 l 671 800 l 669 783 l 685 785 l 697 794 l 685 804 m 308 746 l 256 756 l 213 722 l 247 674 l 308 682 l 308 746 m 549 232 l 567 263 l 600 257 l 594 294 l 632 301 l 625 332 l 646 357 l 625 386 l 647 413 l 622 442 l 647 469 l 625 497 l 647 525 l 624 553 l 647 582 l 619 608 l 642 638 l 611 656 l 622 690 l 588 694 l 581 728 l 546 708 l 526 743 l 503 703 l 471 736 l 458 703 l 422 708 l 428 672 l 394 660 l 406 629 l 385 604 l 408 575 l 383 549 l 404 519 l 383 492 l 415 464 l 383 436 l 407 408 l 385 379 l 401 353 l 390 324 l 425 308 l 415 272 l 458 283 l 460 239 l 494 271 l 549 232 m 729 669 l 683 667 l 664 638 l 685 600 l 719 625 l 729 669 m 210 600 l 174 644 l 114 625 l 131 568 l 185 542 l 210 600 m 874 592 l 836 578 l 829 540 l 868 524 l 896 556 l 874 592 m 292 447 l 264 461 l 258 428 l 281 407 l 306 426 l 292 447 m 857 440 l 779 415 l 768 340 l 833 332 l 903 363 l 857 440 m 226 278 l 189 324 l 132 304 l 144 249 l 199 217 l 226 278 m 706 229 l 679 242 l 661 214 l 682 186 l 715 199 l 706 229 m 367 210 l 356 218 l 344 211 l 347 197 l 364 196 l 367 210 m 824 197 l 793 190 l 793 156 l 824 153 l 843 174 l 824 197 m 540 167 l 524 188 l 494 176 l 507 151 l 531 142 l 540 167 m 388 1090 l 399 1138 l 443 1158 l 454 1194 l 488 1214 l 493 1250 l 528 1260 l 585 1283 l 644 1271 l 672 1288 l 700 1271 l 733 1297 l 767 1271 l 800 1286 l 833 1271 l 842 1239 l 819 1214 l 794 1169 l 747 1156 l 728 1108 l 679 1099 l 658 1053 l 608 1050 l 575 1036 l 540 1049 l 510 1035 l 481 1049 l 433 1024 l 388 1090 m 769 1213 l 753 1236 l 721 1231 l 724 1196 l 754 1190 l 769 1213 m 547 1210 l 533 1217 l 522 1207 l 528 1193 l 549 1188 l 547 1210 m 582 1129 l 536 1143 l 504 1114 l 524 1074 l 567 1083 l 582 1129 z "},"Ŏ":{"ha":1031,"x_min":28,"x_max":1007,"o":"m 493 14 l 432 -29 l 382 25 l 319 -1 l 282 56 l 226 56 l 200 104 l 131 108 l 133 178 l 75 179 l 107 226 l 53 274 l 81 340 l 50 385 l 78 431 l 38 489 l 78 549 l 28 586 l 81 621 l 36 675 l 96 708 l 78 749 l 119 765 l 128 825 l 183 850 l 200 919 l 271 908 l 286 956 l 328 932 l 354 979 l 399 949 l 435 981 l 476 957 l 531 1001 l 582 956 l 638 979 l 681 938 l 736 950 l 769 904 l 824 910 l 839 857 l 886 856 l 885 808 l 942 785 l 929 725 l 983 704 l 946 660 l 978 629 l 951 593 l 1001 551 l 953 508 l 1007 481 l 953 453 l 1000 413 l 951 374 l 974 314 l 936 264 l 965 213 l 908 197 l 925 153 l 878 151 l 872 92 l 813 90 l 794 42 l 744 54 l 721 8 l 675 32 l 639 -21 l 588 17 l 553 -17 l 493 14 m 656 881 l 644 893 l 631 888 l 629 872 l 644 868 l 656 881 m 592 853 l 574 849 l 564 833 l 581 821 l 593 835 l 592 853 m 433 806 l 413 800 l 403 779 l 426 768 l 446 785 l 433 806 m 685 804 l 671 800 l 669 783 l 685 785 l 697 794 l 685 804 m 308 746 l 256 756 l 213 722 l 247 674 l 308 682 l 308 746 m 549 232 l 567 263 l 600 257 l 594 294 l 632 301 l 625 332 l 646 357 l 625 386 l 647 413 l 622 442 l 647 469 l 625 497 l 647 525 l 624 553 l 647 582 l 619 608 l 642 638 l 611 656 l 622 690 l 588 694 l 581 728 l 546 708 l 526 743 l 503 703 l 471 736 l 458 703 l 422 708 l 428 672 l 394 660 l 406 629 l 385 604 l 408 575 l 383 549 l 404 519 l 383 492 l 415 464 l 383 436 l 407 408 l 385 379 l 401 353 l 390 324 l 425 308 l 415 272 l 458 283 l 460 239 l 494 271 l 549 232 m 729 669 l 683 667 l 664 638 l 685 600 l 719 625 l 729 669 m 210 600 l 174 644 l 114 625 l 131 568 l 185 542 l 210 600 m 874 592 l 836 578 l 829 540 l 868 524 l 896 556 l 874 592 m 292 447 l 264 461 l 258 428 l 281 407 l 306 426 l 292 447 m 857 440 l 779 415 l 768 340 l 833 332 l 903 363 l 857 440 m 226 278 l 189 324 l 132 304 l 144 249 l 199 217 l 226 278 m 706 229 l 679 242 l 661 214 l 682 186 l 715 199 l 706 229 m 367 210 l 356 218 l 344 211 l 347 197 l 364 196 l 367 210 m 824 197 l 793 190 l 793 156 l 824 153 l 843 174 l 824 197 m 540 167 l 524 188 l 494 176 l 507 151 l 531 142 l 540 167 m 426 1053 l 388 1049 l 364 1079 l 324 1079 l 318 1119 l 283 1140 l 286 1179 l 272 1222 l 285 1267 l 342 1288 l 400 1271 l 432 1265 l 453 1240 l 493 1214 l 510 1168 l 531 1203 l 571 1207 l 578 1246 l 608 1271 l 667 1285 l 724 1271 l 753 1244 l 750 1207 l 749 1156 l 713 1119 l 675 1076 l 621 1057 l 571 1028 l 426 1053 m 394 1263 l 385 1260 l 383 1251 l 393 1242 l 403 1254 l 394 1263 m 657 1211 l 650 1228 l 635 1217 l 638 1201 l 654 1193 l 657 1211 m 364 1138 l 349 1158 l 328 1144 l 325 1114 l 356 1118 l 364 1138 z "},"Ô":{"ha":1031,"x_min":28,"x_max":1007,"o":"m 493 14 l 432 -29 l 382 25 l 319 -1 l 282 56 l 226 56 l 200 104 l 131 108 l 133 178 l 75 179 l 107 226 l 53 274 l 81 340 l 50 385 l 78 431 l 38 489 l 78 549 l 28 586 l 81 621 l 36 675 l 96 708 l 78 749 l 119 765 l 128 825 l 183 850 l 200 919 l 271 908 l 286 956 l 328 932 l 354 979 l 399 949 l 435 981 l 476 957 l 531 1001 l 582 956 l 638 979 l 681 938 l 736 950 l 769 904 l 824 910 l 839 857 l 886 856 l 885 808 l 942 785 l 929 725 l 983 704 l 946 660 l 978 629 l 951 593 l 1001 551 l 953 508 l 1007 481 l 953 453 l 1000 413 l 951 374 l 974 314 l 936 264 l 965 213 l 908 197 l 925 153 l 878 151 l 872 92 l 813 90 l 794 42 l 744 54 l 721 8 l 675 32 l 639 -21 l 588 17 l 553 -17 l 493 14 m 656 881 l 644 893 l 631 888 l 629 872 l 644 868 l 656 881 m 592 853 l 574 849 l 564 833 l 581 821 l 593 835 l 592 853 m 433 806 l 413 800 l 403 779 l 426 768 l 446 785 l 433 806 m 685 804 l 671 800 l 669 783 l 685 785 l 697 794 l 685 804 m 308 746 l 256 756 l 213 722 l 247 674 l 308 682 l 308 746 m 549 232 l 567 263 l 600 257 l 594 294 l 632 301 l 625 332 l 646 357 l 625 386 l 647 413 l 622 442 l 647 469 l 625 497 l 647 525 l 624 553 l 647 582 l 619 608 l 642 638 l 611 656 l 622 690 l 588 694 l 581 728 l 546 708 l 526 743 l 503 703 l 471 736 l 458 703 l 422 708 l 428 672 l 394 660 l 406 629 l 385 604 l 408 575 l 383 549 l 404 519 l 383 492 l 415 464 l 383 436 l 407 408 l 385 379 l 401 353 l 390 324 l 425 308 l 415 272 l 458 283 l 460 239 l 494 271 l 549 232 m 729 669 l 683 667 l 664 638 l 685 600 l 719 625 l 729 669 m 210 600 l 174 644 l 114 625 l 131 568 l 185 542 l 210 600 m 874 592 l 836 578 l 829 540 l 868 524 l 896 556 l 874 592 m 292 447 l 264 461 l 258 428 l 281 407 l 306 426 l 292 447 m 857 440 l 779 415 l 768 340 l 833 332 l 903 363 l 857 440 m 226 278 l 189 324 l 132 304 l 144 249 l 199 217 l 226 278 m 706 229 l 679 242 l 661 214 l 682 186 l 715 199 l 706 229 m 367 210 l 356 218 l 344 211 l 347 197 l 364 196 l 367 210 m 824 197 l 793 190 l 793 156 l 824 153 l 843 174 l 824 197 m 540 167 l 524 188 l 494 176 l 507 151 l 531 142 l 540 167 m 253 1110 l 274 1158 l 319 1183 l 342 1239 l 397 1263 l 442 1288 l 490 1271 l 540 1289 l 589 1271 l 640 1257 l 678 1219 l 724 1199 l 740 1150 l 788 1126 l 807 1078 l 772 1046 l 726 1049 l 667 1043 l 615 1072 l 583 1068 l 565 1094 l 526 1086 l 490 1106 l 456 1075 l 410 1069 l 376 1036 l 332 1049 l 283 1024 l 253 1110 m 532 1222 l 522 1221 l 513 1213 l 524 1204 l 532 1211 l 532 1222 m 706 1088 l 700 1096 l 689 1093 l 692 1083 l 701 1075 l 706 1088 z "},"Ö":{"ha":1031,"x_min":28,"x_max":1007,"o":"m 493 14 l 432 -29 l 382 25 l 319 -1 l 282 56 l 226 56 l 200 104 l 131 108 l 133 178 l 75 179 l 107 226 l 53 274 l 81 340 l 50 385 l 78 431 l 38 489 l 78 549 l 28 586 l 81 621 l 36 675 l 96 708 l 78 749 l 119 765 l 128 825 l 183 850 l 200 919 l 271 908 l 286 956 l 328 932 l 354 979 l 399 949 l 435 981 l 476 957 l 531 1001 l 582 956 l 638 979 l 681 938 l 736 950 l 769 904 l 824 910 l 839 857 l 886 856 l 885 808 l 942 785 l 929 725 l 983 704 l 946 660 l 978 629 l 951 593 l 1001 551 l 953 508 l 1007 481 l 953 453 l 1000 413 l 951 374 l 974 314 l 936 264 l 965 213 l 908 197 l 925 153 l 878 151 l 872 92 l 813 90 l 794 42 l 744 54 l 721 8 l 675 32 l 639 -21 l 588 17 l 553 -17 l 493 14 m 656 881 l 644 893 l 631 888 l 629 872 l 644 868 l 656 881 m 592 853 l 574 849 l 564 833 l 581 821 l 593 835 l 592 853 m 433 806 l 413 800 l 403 779 l 426 768 l 446 785 l 433 806 m 685 804 l 671 800 l 669 783 l 685 785 l 697 794 l 685 804 m 308 746 l 256 756 l 213 722 l 247 674 l 308 682 l 308 746 m 549 232 l 567 263 l 600 257 l 594 294 l 632 301 l 625 332 l 646 357 l 625 386 l 647 413 l 622 442 l 647 469 l 625 497 l 647 525 l 624 553 l 647 582 l 619 608 l 642 638 l 611 656 l 622 690 l 588 694 l 581 728 l 546 708 l 526 743 l 503 703 l 471 736 l 458 703 l 422 708 l 428 672 l 394 660 l 406 629 l 385 604 l 408 575 l 383 549 l 404 519 l 383 492 l 415 464 l 383 436 l 407 408 l 385 379 l 401 353 l 390 324 l 425 308 l 415 272 l 458 283 l 460 239 l 494 271 l 549 232 m 729 669 l 683 667 l 664 638 l 685 600 l 719 625 l 729 669 m 210 600 l 174 644 l 114 625 l 131 568 l 185 542 l 210 600 m 874 592 l 836 578 l 829 540 l 868 524 l 896 556 l 874 592 m 292 447 l 264 461 l 258 428 l 281 407 l 306 426 l 292 447 m 857 440 l 779 415 l 768 340 l 833 332 l 903 363 l 857 440 m 226 278 l 189 324 l 132 304 l 144 249 l 199 217 l 226 278 m 706 229 l 679 242 l 661 214 l 682 186 l 715 199 l 706 229 m 367 210 l 356 218 l 344 211 l 347 197 l 364 196 l 367 210 m 824 197 l 793 190 l 793 156 l 824 153 l 843 174 l 824 197 m 540 167 l 524 188 l 494 176 l 507 151 l 531 142 l 540 167 m 600 1054 l 576 1078 l 590 1107 l 572 1149 l 590 1190 l 572 1218 l 590 1246 l 615 1278 l 654 1271 l 707 1293 l 760 1271 l 799 1257 l 813 1218 l 833 1171 l 813 1124 l 839 1096 l 813 1068 l 767 1043 l 715 1049 l 665 1024 l 600 1054 m 217 1079 l 197 1129 l 217 1179 l 193 1222 l 222 1261 l 272 1282 l 325 1271 l 358 1288 l 392 1271 l 428 1256 l 439 1218 l 453 1176 l 439 1135 l 450 1093 l 429 1054 l 385 1025 l 336 1049 l 289 1026 l 217 1079 m 374 1251 l 361 1247 l 360 1235 l 372 1224 l 385 1239 l 374 1251 m 753 1129 l 739 1118 l 739 1104 l 754 1101 l 765 1114 l 753 1129 m 311 1108 l 292 1110 l 283 1093 l 299 1081 l 317 1089 l 311 1108 z "},"Ò":{"ha":1031,"x_min":28,"x_max":1007,"o":"m 493 14 l 432 -29 l 382 25 l 319 -1 l 282 56 l 226 56 l 200 104 l 131 108 l 133 178 l 75 179 l 107 226 l 53 274 l 81 340 l 50 385 l 78 431 l 38 489 l 78 549 l 28 586 l 81 621 l 36 675 l 96 708 l 78 749 l 119 765 l 128 825 l 183 850 l 200 919 l 271 908 l 286 956 l 328 932 l 354 979 l 399 949 l 435 981 l 476 957 l 531 1001 l 582 956 l 638 979 l 681 938 l 736 950 l 769 904 l 824 910 l 839 857 l 886 856 l 885 808 l 942 785 l 929 725 l 983 704 l 946 660 l 978 629 l 951 593 l 1001 551 l 953 508 l 1007 481 l 953 453 l 1000 413 l 951 374 l 974 314 l 936 264 l 965 213 l 908 197 l 925 153 l 878 151 l 872 92 l 813 90 l 794 42 l 744 54 l 721 8 l 675 32 l 639 -21 l 588 17 l 553 -17 l 493 14 m 656 881 l 644 893 l 631 888 l 629 872 l 644 868 l 656 881 m 592 853 l 574 849 l 564 833 l 581 821 l 593 835 l 592 853 m 433 806 l 413 800 l 403 779 l 426 768 l 446 785 l 433 806 m 685 804 l 671 800 l 669 783 l 685 785 l 697 794 l 685 804 m 308 746 l 256 756 l 213 722 l 247 674 l 308 682 l 308 746 m 549 232 l 567 263 l 600 257 l 594 294 l 632 301 l 625 332 l 646 357 l 625 386 l 647 413 l 622 442 l 647 469 l 625 497 l 647 525 l 624 553 l 647 582 l 619 608 l 642 638 l 611 656 l 622 690 l 588 694 l 581 728 l 546 708 l 526 743 l 503 703 l 471 736 l 458 703 l 422 708 l 428 672 l 394 660 l 406 629 l 385 604 l 408 575 l 383 549 l 404 519 l 383 492 l 415 464 l 383 436 l 407 408 l 385 379 l 401 353 l 390 324 l 425 308 l 415 272 l 458 283 l 460 239 l 494 271 l 549 232 m 729 669 l 683 667 l 664 638 l 685 600 l 719 625 l 729 669 m 210 600 l 174 644 l 114 625 l 131 568 l 185 542 l 210 600 m 874 592 l 836 578 l 829 540 l 868 524 l 896 556 l 874 592 m 292 447 l 264 461 l 258 428 l 281 407 l 306 426 l 292 447 m 857 440 l 779 415 l 768 340 l 833 332 l 903 363 l 857 440 m 226 278 l 189 324 l 132 304 l 144 249 l 199 217 l 226 278 m 706 229 l 679 242 l 661 214 l 682 186 l 715 199 l 706 229 m 367 210 l 356 218 l 344 211 l 347 197 l 364 196 l 367 210 m 824 197 l 793 190 l 793 156 l 824 153 l 843 174 l 824 197 m 540 167 l 524 188 l 494 176 l 507 151 l 531 142 l 540 167 m 385 1071 l 340 1078 l 325 1119 l 276 1131 l 257 1176 l 222 1186 l 206 1218 l 203 1251 l 229 1271 l 271 1288 l 313 1271 l 354 1285 l 396 1271 l 447 1286 l 497 1264 l 549 1242 l 563 1188 l 608 1169 l 618 1121 l 653 1113 l 653 1078 l 640 1050 l 610 1049 l 551 1035 l 494 1049 l 467 1035 l 385 1071 m 438 1250 l 385 1226 l 393 1181 l 433 1158 l 457 1200 l 438 1250 z "},"Ő":{"ha":1031,"x_min":28,"x_max":1007,"o":"m 493 14 l 432 -29 l 382 25 l 319 -1 l 282 56 l 226 56 l 200 104 l 131 108 l 133 178 l 75 179 l 107 226 l 53 274 l 81 340 l 50 385 l 78 431 l 38 489 l 78 549 l 28 586 l 81 621 l 36 675 l 96 708 l 78 749 l 119 765 l 128 825 l 183 850 l 200 919 l 271 908 l 286 956 l 328 932 l 354 979 l 399 949 l 435 981 l 476 957 l 531 1001 l 582 956 l 638 979 l 681 938 l 736 950 l 769 904 l 824 910 l 839 857 l 886 856 l 885 808 l 942 785 l 929 725 l 983 704 l 946 660 l 978 629 l 951 593 l 1001 551 l 953 508 l 1007 481 l 953 453 l 1000 413 l 951 374 l 974 314 l 936 264 l 965 213 l 908 197 l 925 153 l 878 151 l 872 92 l 813 90 l 794 42 l 744 54 l 721 8 l 675 32 l 639 -21 l 588 17 l 553 -17 l 493 14 m 656 881 l 644 893 l 631 888 l 629 872 l 644 868 l 656 881 m 592 853 l 574 849 l 564 833 l 581 821 l 593 835 l 592 853 m 433 806 l 413 800 l 403 779 l 426 768 l 446 785 l 433 806 m 685 804 l 671 800 l 669 783 l 685 785 l 697 794 l 685 804 m 308 746 l 256 756 l 213 722 l 247 674 l 308 682 l 308 746 m 549 232 l 567 263 l 600 257 l 594 294 l 632 301 l 625 332 l 646 357 l 625 386 l 647 413 l 622 442 l 647 469 l 625 497 l 647 525 l 624 553 l 647 582 l 619 608 l 642 638 l 611 656 l 622 690 l 588 694 l 581 728 l 546 708 l 526 743 l 503 703 l 471 736 l 458 703 l 422 708 l 428 672 l 394 660 l 406 629 l 385 604 l 408 575 l 383 549 l 404 519 l 383 492 l 415 464 l 383 436 l 407 408 l 385 379 l 401 353 l 390 324 l 425 308 l 415 272 l 458 283 l 460 239 l 494 271 l 549 232 m 729 669 l 683 667 l 664 638 l 685 600 l 719 625 l 729 669 m 210 600 l 174 644 l 114 625 l 131 568 l 185 542 l 210 600 m 874 592 l 836 578 l 829 540 l 868 524 l 896 556 l 874 592 m 292 447 l 264 461 l 258 428 l 281 407 l 306 426 l 292 447 m 857 440 l 779 415 l 768 340 l 833 332 l 903 363 l 857 440 m 226 278 l 189 324 l 132 304 l 144 249 l 199 217 l 226 278 m 706 229 l 679 242 l 661 214 l 682 186 l 715 199 l 706 229 m 367 210 l 356 218 l 344 211 l 347 197 l 364 196 l 367 210 m 824 197 l 793 190 l 793 156 l 824 153 l 843 174 l 824 197 m 540 167 l 524 188 l 494 176 l 507 151 l 531 142 l 540 167 m 618 1107 l 624 1157 l 657 1193 l 660 1229 l 685 1254 l 721 1278 l 764 1271 l 811 1296 l 857 1271 l 896 1296 l 933 1271 l 950 1246 l 940 1218 l 932 1176 l 892 1165 l 883 1125 l 844 1114 l 836 1081 l 804 1069 l 764 1036 l 714 1049 l 665 1029 l 618 1107 m 292 1138 l 292 1196 l 335 1233 l 357 1267 l 397 1271 l 438 1285 l 479 1271 l 528 1293 l 576 1271 l 607 1268 l 622 1244 l 596 1189 l 544 1157 l 526 1111 l 482 1089 l 472 1054 l 435 1051 l 383 1026 l 331 1049 l 303 1029 l 292 1138 m 831 1186 l 767 1224 l 690 1186 l 721 1092 l 807 1115 l 831 1186 m 381 1183 l 363 1172 l 363 1151 l 381 1154 l 392 1165 l 381 1183 z "},"Ō":{"ha":1031,"x_min":28,"x_max":1007,"o":"m 493 14 l 432 -29 l 382 25 l 319 -1 l 282 56 l 226 56 l 200 104 l 131 108 l 133 178 l 75 179 l 107 226 l 53 274 l 81 340 l 50 385 l 78 431 l 38 489 l 78 549 l 28 586 l 81 621 l 36 675 l 96 708 l 78 749 l 119 765 l 128 825 l 183 850 l 200 919 l 271 908 l 286 956 l 328 932 l 354 979 l 399 949 l 435 981 l 476 957 l 531 1001 l 582 956 l 638 979 l 681 938 l 736 950 l 769 904 l 824 910 l 839 857 l 886 856 l 885 808 l 942 785 l 929 725 l 983 704 l 946 660 l 978 629 l 951 593 l 1001 551 l 953 508 l 1007 481 l 953 453 l 1000 413 l 951 374 l 974 314 l 936 264 l 965 213 l 908 197 l 925 153 l 878 151 l 872 92 l 813 90 l 794 42 l 744 54 l 721 8 l 675 32 l 639 -21 l 588 17 l 553 -17 l 493 14 m 656 881 l 644 893 l 631 888 l 629 872 l 644 868 l 656 881 m 592 853 l 574 849 l 564 833 l 581 821 l 593 835 l 592 853 m 433 806 l 413 800 l 403 779 l 426 768 l 446 785 l 433 806 m 685 804 l 671 800 l 669 783 l 685 785 l 697 794 l 685 804 m 308 746 l 256 756 l 213 722 l 247 674 l 308 682 l 308 746 m 549 232 l 567 263 l 600 257 l 594 294 l 632 301 l 625 332 l 646 357 l 625 386 l 647 413 l 622 442 l 647 469 l 625 497 l 647 525 l 624 553 l 647 582 l 619 608 l 642 638 l 611 656 l 622 690 l 588 694 l 581 728 l 546 708 l 526 743 l 503 703 l 471 736 l 458 703 l 422 708 l 428 672 l 394 660 l 406 629 l 385 604 l 408 575 l 383 549 l 404 519 l 383 492 l 415 464 l 383 436 l 407 408 l 385 379 l 401 353 l 390 324 l 425 308 l 415 272 l 458 283 l 460 239 l 494 271 l 549 232 m 729 669 l 683 667 l 664 638 l 685 600 l 719 625 l 729 669 m 210 600 l 174 644 l 114 625 l 131 568 l 185 542 l 210 600 m 874 592 l 836 578 l 829 540 l 868 524 l 896 556 l 874 592 m 292 447 l 264 461 l 258 428 l 281 407 l 306 426 l 292 447 m 857 440 l 779 415 l 768 340 l 833 332 l 903 363 l 857 440 m 226 278 l 189 324 l 132 304 l 144 249 l 199 217 l 226 278 m 706 229 l 679 242 l 661 214 l 682 186 l 715 199 l 706 229 m 367 210 l 356 218 l 344 211 l 347 197 l 364 196 l 367 210 m 824 197 l 793 190 l 793 156 l 824 153 l 843 174 l 824 197 m 540 167 l 524 188 l 494 176 l 507 151 l 531 142 l 540 167 m 228 1129 l 204 1179 l 231 1229 l 254 1261 l 292 1243 l 331 1264 l 368 1243 l 421 1269 l 474 1243 l 510 1260 l 544 1243 l 572 1257 l 600 1243 l 642 1263 l 683 1243 l 715 1264 l 749 1243 l 788 1229 l 801 1190 l 822 1154 l 801 1118 l 792 1076 l 760 1049 l 729 1025 l 699 1049 l 669 1033 l 639 1049 l 589 1024 l 539 1049 l 496 1025 l 451 1049 l 424 1035 l 396 1049 l 365 1024 l 336 1049 l 294 1029 l 228 1129 m 407 1093 l 393 1092 l 392 1075 l 408 1075 l 419 1086 l 407 1093 z "}}}
